<svg width="404" height="40" viewBox="0 0 404 40" fill="none" xmlns="http://www.w3.org/2000/svg">
<g opacity="0.8">
<path d="M0 19L370 19" stroke="#FFD66D" stroke-width="3" stroke-dasharray="8 8"/>
<path d="M399.375 18.863C399.879 19.0183 400.233 19.4807 400.219 20.007C400.204 20.5413 399.812 20.9858 399.293 21.1125C397.972 21.4347 396.606 21.9767 395.196 22.7368C393.493 23.6717 391.9 24.7974 390.417 26.1144C388.934 27.4025 387.71 28.7702 386.744 30.2174C385.544 32.0175 384.718 33.735 384.267 35.3701C384.127 35.8772 383.672 36.246 383.147 36.2313C382.622 36.2165 382.189 35.8238 382.076 35.311C381.717 33.6765 380.99 31.9281 379.895 30.0668C378.6 27.8326 376.721 25.7409 374.261 23.7918C372.122 22.0775 369.967 20.8889 367.798 20.226C367.284 20.0689 366.919 19.5989 366.935 19.062C366.95 18.5356 367.326 18.0923 367.836 17.9621C369.997 17.4108 372.09 16.4754 374.115 15.1565C376.442 13.632 378.403 11.7792 379.998 9.5978C381.408 7.65436 382.393 5.72021 382.953 3.79628C383.1 3.29241 383.558 2.93289 384.083 2.94772C384.613 2.96273 385.052 3.35613 385.167 3.87441C385.426 5.04458 385.848 6.24706 386.433 7.48124C387.17 9.00562 388.127 10.4781 389.301 11.8992C390.505 13.2923 391.857 14.5604 393.357 15.7017C395.318 17.1767 397.324 18.2299 399.375 18.863Z" fill="#DCB347"/>
</g>
</svg>
