<svg width="869" height="24" viewBox="0 0 869 24" fill="none" xmlns="http://www.w3.org/2000/svg">
<path d="M856.864 0.00747976C857.239 0.00747972 857.556 0.278976 857.647 0.642713C857.936 1.80204 858.49 3.03495 859.309 4.3412C860.279 5.90967 861.662 7.36451 863.457 8.70595C865.018 9.88619 866.58 10.6911 868.142 11.1204C868.511 11.222 868.781 11.55 868.781 11.9336C868.781 12.3096 868.522 12.6338 868.16 12.737C866.629 13.1742 865.154 13.8839 863.736 14.8661C862.105 16.0011 860.743 17.3632 859.649 18.9522C858.682 20.3678 858.018 21.7678 857.657 23.1522C857.562 23.5149 857.243 23.7813 856.868 23.7813C856.489 23.7813 856.168 23.509 856.075 23.1413C855.867 22.3114 855.542 21.4619 855.099 20.5928C854.542 19.5197 853.83 18.4879 852.963 17.4973C852.076 16.5274 851.085 15.6503 849.991 14.8661C848.562 13.853 847.109 13.1412 845.632 12.7307C845.27 12.6301 845.007 12.3075 845.007 11.9315C845.007 11.5499 845.278 11.2247 845.646 11.1237C846.582 10.8671 847.546 10.4532 848.536 9.88227C849.733 9.18059 850.848 8.34482 851.88 7.37485C852.911 6.42557 853.758 5.42469 854.418 4.37223C855.238 3.06324 855.793 1.82082 856.082 0.644735C856.171 0.279925 856.489 0.00747979 856.864 0.00747976Z" fill="#FE927B"/>
<path d="M11.8564 0.00747976C12.2313 0.00747972 12.5482 0.278976 12.639 0.642713C12.9284 1.80204 13.4824 3.03495 14.3011 4.3412C15.271 5.90967 16.6537 7.36451 18.4491 8.70595C20.0107 9.88619 21.5722 10.6911 23.1338 11.1204C23.5036 11.222 23.7734 11.55 23.7734 11.9336C23.7734 12.3096 23.514 12.6338 23.1524 12.737C21.6214 13.1742 20.1465 13.8839 18.7277 14.8661C17.0974 16.0011 15.7353 17.3632 14.6416 18.9522C13.674 20.3678 13.0098 21.7678 12.6489 23.1522C12.5544 23.5149 12.2351 23.7813 11.8603 23.7813C11.4813 23.7813 11.1598 23.509 11.0675 23.1413C10.8593 22.3114 10.5338 21.4619 10.0912 20.5928C9.5339 19.5197 8.82199 18.4879 7.9552 17.4973C7.06785 16.5274 6.07719 15.6503 4.98348 14.8661C3.5542 13.853 2.10127 13.1412 0.62444 12.7307C0.262128 12.6301 -0.000334789 12.3075 -0.000334822 11.9315C-0.000334855 11.5499 0.270091 11.2247 0.63811 11.1237C1.5742 10.8671 2.53775 10.4532 3.52853 9.88227C4.72554 9.18059 5.83993 8.34482 6.87183 7.37485C7.90361 6.42557 8.74972 5.42469 9.41016 4.37223C10.2304 3.06324 10.785 1.82082 11.0738 0.644735C11.1635 0.279925 11.4809 0.00747979 11.8564 0.00747976Z" fill="#FE927B"/>
<path d="M859 12.0079L7 12.0078" stroke="#FE927B" stroke-width="3" stroke-linejoin="round" stroke-dasharray="8 8"/>
</svg>
