<svg width="404" height="40" viewBox="0 0 404 40" fill="none" xmlns="http://www.w3.org/2000/svg">
<g opacity="0.8">
<path d="M0 19L370 19" stroke="#DAD2FF" stroke-width="3" stroke-dasharray="8 8"/>
<path d="M399.375 18.864C399.879 19.0193 400.233 19.4807 400.219 20.007C400.203 20.5413 399.812 20.9858 399.292 21.1125C397.972 21.4347 396.607 21.9766 395.197 22.7365C393.494 23.6715 391.9 24.7973 390.416 26.1144C388.934 27.4025 387.71 28.7702 386.744 30.2174C385.544 32.0175 384.718 33.735 384.267 35.3701C384.127 35.8772 383.672 36.246 383.147 36.2313C382.622 36.2165 382.189 35.8238 382.076 35.311C381.717 33.6765 380.99 31.9281 379.895 30.0668C378.6 27.8326 376.721 25.7409 374.261 23.7918C372.122 22.0776 369.967 20.8889 367.797 20.226C367.284 20.0689 366.919 19.5988 366.935 19.062C366.95 18.5356 367.326 18.0923 367.836 17.9621C369.997 17.4108 372.089 16.4754 374.115 15.1565C376.442 13.632 378.403 11.7792 379.998 9.5978C381.408 7.65453 382.393 5.72097 382.953 3.79722C383.1 3.29325 383.558 2.93293 384.083 2.94771C384.613 2.96272 385.052 3.35613 385.167 3.8744C385.426 5.04461 385.848 6.24676 386.434 7.48098C387.171 9.00547 388.127 10.479 389.301 11.9002C390.505 13.2931 391.858 14.5603 393.358 15.7014C395.319 17.1763 397.324 18.2309 399.375 18.864Z" fill="#DAD2FF"/>
</g>
</svg>
