<svg width="154" height="174" viewBox="0 0 154 174" fill="none" xmlns="http://www.w3.org/2000/svg">
<path d="M11.9171 173.547C11.5421 173.547 11.2252 173.276 11.1344 172.912C10.845 171.753 10.291 170.52 9.47236 169.213C8.50243 167.645 7.11975 166.19 5.32434 164.849C3.76278 163.668 2.20123 162.864 0.639678 162.434C0.269838 162.333 0 162.005 0 161.621C0 161.245 0.259459 160.921 0.621058 160.818C2.15206 160.381 3.62695 159.671 5.04573 158.689C6.67605 157.554 8.03809 156.192 9.13185 154.602C10.0994 153.187 10.7637 151.787 11.1245 150.402C11.219 150.04 11.5383 149.773 11.9132 149.773C12.2921 149.773 12.6136 150.046 12.7059 150.413C12.9142 151.243 13.2396 152.093 13.6823 152.962C14.2395 154.035 14.9514 155.067 15.8182 156.057C16.7056 157.027 17.6962 157.904 18.79 158.689C20.2192 159.702 21.6722 160.414 23.149 160.824C23.5113 160.925 23.7738 161.247 23.7738 161.623C23.7738 162.005 23.5033 162.33 23.1353 162.431C22.1992 162.688 21.2357 163.101 20.2449 163.672C19.0479 164.374 17.9335 165.21 16.9016 166.18C15.8698 167.129 15.0237 168.13 14.3633 169.182C13.5431 170.491 12.9884 171.734 12.6996 172.91C12.61 173.275 12.2926 173.547 11.9171 173.547Z" fill="#47B4DC"/>
<path d="M11.8906 155.72L11.8906 22.5869C11.8906 13.396 19.3413 5.94531 28.5323 5.94531L143.835 5.94531" stroke="#47B4DC" stroke-width="2.37738" stroke-linecap="round" stroke-dasharray="8 8"/>
<circle cx="147.397" cy="5.94344" r="5.94344" fill="#47B4DC"/>
</svg>
