<svg width="170" height="49" viewBox="0 0 170 49" fill="none" xmlns="http://www.w3.org/2000/svg">
<path opacity="0.7" d="M145.703 24.2969C145.703 10.8786 156.582 0.000969718 170 0.000969132L170 48.5937C156.581 48.5937 145.703 37.7154 145.703 24.2969ZM72.8906 24.2969C72.8909 10.8786 83.7691 0.000972901 97.1875 0.000972314L97.1875 23.6699C97.5203 10.5414 108.268 0.00097183 121.477 0.000971253L121.477 22.4424C122.424 9.8905 132.909 0.000970753 145.703 0.000970194L145.703 48.5937C132.909 48.5937 122.424 38.7035 121.477 26.1514L121.477 48.5937C108.268 48.5937 97.5201 38.0526 97.1875 24.9238L97.1875 48.5937C83.769 48.5937 72.8906 37.7154 72.8906 24.2969ZM24.3047 24.2969C24.3049 10.8786 35.1832 0.000975025 48.6016 0.000974438L48.6016 23.4619C49.0419 10.4302 59.7439 0.000973951 72.8828 0.000973377L72.8828 48.5937C59.7437 48.5937 49.0417 38.1638 48.6016 25.1318L48.6016 48.5937C35.183 48.5937 24.3047 37.7154 24.3047 24.2969ZM-1.06205e-06 24.2969C0.000253988 10.8786 10.8785 0.000976087 24.2969 0.0009755L24.2969 48.5937C10.8783 48.5937 -4.75507e-07 37.7154 -1.06205e-06 24.2969Z" fill="url(#paint0_linear_684_3557)" fill-opacity="0.3"/>
<defs>
<linearGradient id="paint0_linear_684_3557" x1="5.24327" y1="27.3799" x2="121.896" y2="-5.22192" gradientUnits="userSpaceOnUse">
<stop offset="0.0477547" stop-color="#8F89CA"/>
<stop offset="1" stop-color="#FDE3E0"/>
</linearGradient>
</defs>
</svg>
