<svg width="1920" height="940" viewBox="0 0 1920 940" fill="none" xmlns="http://www.w3.org/2000/svg">
<g clip-path="url(#clip0_2437_2964)">
<path opacity="0.25" d="M1537.87 425.783C1644.14 518.77 1757.94 705.578 1801.56 787.359C1917.4 477.887 1860.43 236.327 1817.46 154.231C1736.76 -9.80821 1624.64 -66.4892 1578.67 -74.3247C1447.73 -105.074 1394.92 35.5807 1384.89 109.752C1368.8 251.007 1480.17 379.296 1537.87 425.783Z" fill="#F6F2E8"/>
<path d="M273.041 579.197L327.198 709.486L426.109 608.385L392.975 745.571L532.614 721.602L424.846 813.285L551.875 875.602L410.633 886.76L476.534 1011.56L355.77 937.935L335.37 1077.55L281.211 947.261L182.301 1048.36L215.434 911.174L75.7951 935.145L183.565 843.462L56.5342 781.145L197.776 769.985L131.875 645.185L252.639 718.811L273.041 579.197Z" fill="url(#paint0_linear_2437_2964)"/>
<g filter="url(#filter0_f_2437_2964)">
<path fill-rule="evenodd" clip-rule="evenodd" d="M406.089 553.014C452.863 568.562 505.983 552.477 549.773 575.086C594.468 598.163 627.864 637.725 653.678 680.85C679.742 724.392 702.618 773.018 698.52 823.58C694.515 872.985 650.626 907.795 631.571 953.565C608.999 1007.78 617.272 1075.69 576.107 1117.62C532.837 1161.69 466.816 1171.72 406.089 1183.23C335.463 1196.62 260.766 1217.14 194.209 1190.01C125.477 1162 52.899 1107.38 40.5925 1034.28C27.6532 957.423 119.228 900.378 132.518 823.58C142.601 765.315 97.1203 709.42 106.901 651.104C118.842 579.914 125.347 479.356 194.031 456.838C269.071 432.235 331.15 528.104 406.089 553.014Z" fill="#D9A51E"/>
</g>
<path d="M1382.86 73.6855C1382.67 73.1408 1382.43 72.594 1382.15 72.0459L1382.15 72.0371C1381.54 70.8725 1380.77 69.763 1379.85 68.707L1379.83 68.6875C1378.89 67.6553 1377.83 66.7236 1376.68 65.8926L1376.67 65.8887C1375.48 65.0422 1374.25 64.3846 1372.99 63.9209C1373.7 63.6542 1374.41 63.3146 1375.12 62.9043L1375.13 62.9004C1376.4 62.1549 1377.58 61.2681 1378.68 60.2422C1379.78 59.2303 1380.69 58.1488 1381.42 56.9961L1381.42 56.9951C1382.03 56.0195 1382.51 55.0575 1382.86 54.1113C1383.21 55.0442 1383.69 55.9966 1384.29 56.9648C1385.29 58.5743 1386.66 60.0444 1388.39 61.3838L1388.74 61.6504C1390.06 62.6525 1391.42 63.4172 1392.79 63.9268C1391.5 64.3995 1390.25 65.0506 1389.05 65.8809L1389.05 65.8828C1387.3 67.097 1385.84 68.5602 1384.66 70.2705L1384.66 70.2734C1383.89 71.4012 1383.29 72.5389 1382.86 73.6855Z" fill="#DCB347" stroke="#FFD66D" stroke-width="2.37738"/>
<path d="M537.864 73.6855C537.667 73.1408 537.43 72.594 537.15 72.0459L537.146 72.0371C536.542 70.8725 535.774 69.763 534.85 68.707L534.832 68.6875C533.888 67.6553 532.835 66.7236 531.676 65.8926L531.671 65.8887C530.477 65.0422 529.25 64.3846 527.994 63.9209C528.7 63.6542 529.41 63.3146 530.122 62.9043L530.13 62.9004C531.402 62.1549 532.584 61.2681 533.677 60.2422C534.777 59.2303 535.694 58.1488 536.417 56.9961L536.417 56.9951C537.028 56.0195 537.512 55.0575 537.859 54.1113C538.207 55.0442 538.687 55.9966 539.294 56.9648C540.29 58.5743 541.665 60.0444 543.388 61.3838L543.737 61.6504C545.064 62.6525 546.415 63.4172 547.791 63.9268C546.498 64.3995 545.25 65.0506 544.051 65.8809L544.049 65.8828C542.305 67.097 540.839 68.5602 539.662 70.2705L539.66 70.2734C538.889 71.4012 538.287 72.5389 537.864 73.6855Z" fill="#DCB347" stroke="#FFD66D" stroke-width="2.37738"/>
</g>
<defs>
<filter id="filter0_f_2437_2964" x="-460.656" y="-47.1641" width="1659.66" height="1750.51" filterUnits="userSpaceOnUse" color-interpolation-filters="sRGB">
<feFlood flood-opacity="0" result="BackgroundImageFix"/>
<feBlend mode="normal" in="SourceGraphic" in2="BackgroundImageFix" result="shape"/>
<feGaussianBlur stdDeviation="250" result="effect1_foregroundBlur_2437_2964"/>
</filter>
<linearGradient id="paint0_linear_2437_2964" x1="413.913" y1="649.407" x2="199.584" y2="978.19" gradientUnits="userSpaceOnUse">
<stop stop-color="#FFCA40"/>
<stop offset="1" stop-color="#BF9015"/>
</linearGradient>
<clipPath id="clip0_2437_2964">
<rect width="1920" height="940" fill="white"/>
</clipPath>
</defs>
</svg>
