<svg width="1920" height="1169" viewBox="0 0 1920 1169" fill="none" xmlns="http://www.w3.org/2000/svg">
<g clip-path="url(#clip0_200_3410)">
<g filter="url(#filter0_f_200_3410)">
<path fill-rule="evenodd" clip-rule="evenodd" d="M1520.45 -146.78C1602.39 -160.801 1688.74 -128.197 1743.03 -65.2386C1799.66 0.440329 1828.95 94.5187 1798.55 175.738C1770.96 249.43 1682.23 267.742 1608.29 294.674C1547.37 316.868 1486.23 331.041 1424.22 312.094C1344.93 287.87 1241.42 260.754 1228.99 178.787C1216.7 97.7404 1321.83 58.5482 1376.51 -2.5266C1424.18 -55.7738 1450.01 -134.728 1520.45 -146.78Z" fill="#C2BCFF"/>
</g>
<g filter="url(#filter1_f_200_3410)">
<path fill-rule="evenodd" clip-rule="evenodd" d="M1267.45 -122.78C1349.39 -136.801 1435.74 -104.197 1490.03 -41.2386C1546.66 24.4403 1575.95 118.519 1545.55 199.738C1517.96 273.43 1429.23 291.742 1355.29 318.674C1294.37 340.868 1233.23 355.041 1171.22 336.094C1091.93 311.87 988.42 284.754 975.99 202.787C963.7 121.74 1068.83 82.5482 1123.51 21.4734C1171.18 -31.7738 1197.01 -110.728 1267.45 -122.78Z" fill="#7C6FFF"/>
</g>
<g filter="url(#filter2_f_200_3410)">
<path fill-rule="evenodd" clip-rule="evenodd" d="M241.449 311.22C323.39 297.199 409.742 329.803 464.03 392.761C520.663 458.44 549.953 552.519 519.548 633.738C491.961 707.43 403.228 725.742 329.293 752.674C268.365 774.868 207.23 789.041 145.216 770.094C65.9294 745.87 -37.5803 718.754 -50.0097 636.787C-62.2996 555.74 42.8306 516.548 97.5068 455.473C145.175 402.226 171.006 323.272 241.449 311.22Z" fill="#7C6FFF"/>
</g>
<path d="M1581.81 1265.04L1576.53 1140.31L1463.55 1194.15L1532.88 1090.29L1409.58 1067.64L1527.05 1024.33L1440.52 933.85L1561.24 967.624L1544.53 843.871L1622.41 941.833L1681.9 832.076L1687.19 956.808L1800.16 902.968L1730.83 1006.83L1854.13 1029.47L1736.67 1072.79L1823.2 1163.27L1702.47 1129.49L1719.18 1253.25L1641.3 1155.28L1581.81 1265.04Z" fill="url(#paint0_linear_200_3410)" fill-opacity="0.2"/>
<path opacity="0.7" d="M539.5 1061.5C630.351 1061.5 704 1135.15 704 1226H375C375 1135.15 448.649 1061.5 539.5 1061.5ZM539.5 733C630.351 733 704 806.649 704 897.5H552.405C637.224 904.082 704 974.992 704 1061.5H375C375 974.992 441.776 904.082 526.595 897.5H375C375 806.649 448.649 733 539.5 733ZM539.5 568.5C630.351 568.5 704 642.149 704 733H375C375 642.149 448.649 568.5 539.5 568.5ZM539.5 404C630.351 404 704 477.649 704 568.5H375C375 477.649 448.649 404 539.5 404ZM539.5 239.5C630.351 239.5 704 313.149 704 404H375C375 313.149 448.649 239.5 539.5 239.5ZM539.5 75C630.351 75 704 148.649 704 239.5H375C375 148.649 448.649 75 539.5 75Z" fill="url(#paint1_linear_200_3410)" fill-opacity="0.3"/>
<g filter="url(#filter3_f_200_3410)">
<path fill-rule="evenodd" clip-rule="evenodd" d="M353.449 -96.7804C435.39 -110.801 521.742 -78.1972 576.03 -15.2386C632.663 50.4403 661.953 144.519 631.548 225.738C603.961 299.43 515.228 317.742 441.293 344.674C380.365 366.868 319.23 381.041 257.216 362.094C177.929 337.87 74.4197 310.754 61.9903 228.787C49.7004 147.74 154.831 108.548 209.507 47.4734C257.175 -5.77384 283.006 -84.7275 353.449 -96.7804Z" fill="#7C6FFF"/>
</g>
</g>
<defs>
<filter id="filter0_f_200_3410" x="728" y="-650" width="1582.77" height="1470.93" filterUnits="userSpaceOnUse" color-interpolation-filters="sRGB">
<feFlood flood-opacity="0" result="BackgroundImageFix"/>
<feBlend mode="normal" in="SourceGraphic" in2="BackgroundImageFix" result="shape"/>
<feGaussianBlur stdDeviation="250" result="effect1_foregroundBlur_200_3410"/>
</filter>
<filter id="filter1_f_200_3410" x="475" y="-626" width="1582.77" height="1470.93" filterUnits="userSpaceOnUse" color-interpolation-filters="sRGB">
<feFlood flood-opacity="0" result="BackgroundImageFix"/>
<feBlend mode="normal" in="SourceGraphic" in2="BackgroundImageFix" result="shape"/>
<feGaussianBlur stdDeviation="250" result="effect1_foregroundBlur_200_3410"/>
</filter>
<filter id="filter2_f_200_3410" x="-551" y="-192" width="1582.77" height="1470.93" filterUnits="userSpaceOnUse" color-interpolation-filters="sRGB">
<feFlood flood-opacity="0" result="BackgroundImageFix"/>
<feBlend mode="normal" in="SourceGraphic" in2="BackgroundImageFix" result="shape"/>
<feGaussianBlur stdDeviation="250" result="effect1_foregroundBlur_200_3410"/>
</filter>
<filter id="filter3_f_200_3410" x="-439" y="-600" width="1582.77" height="1470.93" filterUnits="userSpaceOnUse" color-interpolation-filters="sRGB">
<feFlood flood-opacity="0" result="BackgroundImageFix"/>
<feBlend mode="normal" in="SourceGraphic" in2="BackgroundImageFix" result="shape"/>
<feGaussianBlur stdDeviation="250" result="effect1_foregroundBlur_200_3410"/>
</filter>
<linearGradient id="paint0_linear_200_3410" x1="1730.39" y1="1121.13" x2="1579.64" y2="885.209" gradientUnits="userSpaceOnUse">
<stop offset="0.0477547" stop-color="#9790D4"/>
<stop offset="1" stop-color="#FDD2CD"/>
</linearGradient>
<linearGradient id="paint1_linear_200_3410" x1="518.629" y1="110.5" x2="739.364" y2="900.31" gradientUnits="userSpaceOnUse">
<stop offset="0.0477547" stop-color="#8F89CA"/>
<stop offset="1" stop-color="#FDE3E0"/>
</linearGradient>
<clipPath id="clip0_200_3410">
<rect width="1920" height="1169" fill="white"/>
</clipPath>
</defs>
</svg>
