<svg width="385" height="350" viewBox="0 0 385 350" fill="none" xmlns="http://www.w3.org/2000/svg">
<g clip-path="url(#clip0_710_3845)">
<path d="M259.363 151.57C232.04 151.57 204.229 150.462 178.21 143.216C152.679 136.134 129.244 122.39 108.349 106.491C94.6683 96.1418 82.2352 87.8824 64.4755 89.1238C47.1022 90.0612 30.4889 96.5535 17.0742 107.632C-5.51178 127.412 -2.11692 164.073 6.92126 189.732C20.5007 228.483 61.8281 255.478 96.9547 272.947C137.535 293.222 182.124 305.003 226.814 311.761C265.988 317.734 316.329 322.048 350.277 296.484C381.452 272.947 390.008 219.273 382.37 183.037C380.514 172.333 374.814 162.673 366.339 155.877C344.438 139.846 311.756 150.557 287.143 151.076C278.003 151.272 268.699 151.5 259.363 151.564V151.57Z" fill="#FAF8F2" fill-opacity="0.08"/>
<path opacity="0.3" d="M193.816 350.003C260.004 350.003 313.656 346.658 313.656 342.529C313.656 338.399 260.004 335.055 193.816 335.055C127.629 335.055 73.9766 338.399 73.9766 342.529C73.9766 346.658 127.629 350.003 193.816 350.003Z" fill="#1F4A63"/>
<path d="M24.7188 54.2888L67.1545 50.6974C72.4495 50.2351 77.7381 51.6032 82.14 54.5738C86.5419 57.5444 89.7911 61.9401 91.3429 67.02L132.018 203.155L124.05 217.419C122.004 221.093 120.997 225.254 121.13 229.46C121.263 233.666 122.536 237.757 124.81 241.292C127.084 244.832 130.276 247.682 134.051 249.551C137.82 251.419 142.025 252.224 146.218 251.888L309.114 238.049" stroke="#BFBBBD" stroke-width="5.15" stroke-linecap="round" stroke-linejoin="round"/>
<path d="M97.4204 87.686L286.76 71.6232C288.622 71.4648 290.503 71.7245 292.251 72.3896C294.006 73.0547 295.583 74.1061 296.868 75.4616C298.154 76.817 299.123 78.4512 299.693 80.231C300.263 82.0108 300.428 83.9047 300.175 85.7542L287.343 178.369C286.956 181.149 285.639 183.715 283.612 185.659C281.585 187.604 278.969 188.807 276.176 189.079L132.015 203.147L97.4141 87.6797L97.4204 87.686Z" stroke="#BFBBBD" stroke-width="5.15" stroke-linecap="round" stroke-linejoin="round"/>
<path d="M164.339 283.109C172.833 283.109 179.717 276.224 179.717 267.73C179.717 259.237 172.833 252.352 164.339 252.352C155.846 252.352 148.961 259.237 148.961 267.73C148.961 276.224 155.846 283.109 164.339 283.109Z" fill="#303030" fill-opacity="0.7" stroke="#BFBBBD" stroke-width="5.15" stroke-linecap="round" stroke-linejoin="round"/>
<path d="M271.409 274.031C279.903 274.031 286.788 267.146 286.788 258.652C286.788 250.158 279.903 243.273 271.409 243.273C262.916 243.273 256.031 250.158 256.031 258.652C256.031 267.146 262.916 274.031 271.409 274.031Z" fill="#303030" fill-opacity="0.7" stroke="#BFBBBD" stroke-width="5.15" stroke-linecap="round" stroke-linejoin="round"/>
<path d="M58.3249 47.0234L18.3149 50.4184C14.8504 50.7097 12.2726 53.7627 12.5703 57.2273C12.8616 60.692 15.9145 63.2699 19.379 62.9722L59.3889 59.5772C62.8535 59.2859 65.4313 56.2329 65.1336 52.7683C64.8423 49.3036 61.7894 46.7257 58.3249 47.0234Z" fill="#BFBBBD"/>
<path d="M177.133 159.214C177.912 153.254 180.705 147.743 185.05 143.595C189.395 139.44 195.025 136.9 201.011 136.393C206.996 135.88 212.982 137.432 217.966 140.789C222.951 144.146 226.637 149.105 228.417 154.844" stroke="#BFBBBD" stroke-width="5.15" stroke-linecap="round" stroke-linejoin="round"/>
<path d="M228.842 123.989C230.862 123.989 232.497 122.355 232.497 120.334C232.497 118.314 230.862 116.68 228.842 116.68C226.822 116.68 225.188 118.314 225.188 120.334C225.188 122.355 226.822 123.989 228.842 123.989Z" fill="#BFBBBD"/>
<path d="M170.905 128.887C172.925 128.887 174.559 127.253 174.559 125.233C174.559 123.212 172.925 121.578 170.905 121.578C168.884 121.578 167.25 123.212 167.25 125.233C167.25 127.253 168.884 128.887 170.905 128.887Z" fill="#BFBBBD"/>
<path d="M67.9062 263.195V277.263" stroke="#BFBBBD" stroke-width="5.15" stroke-linecap="round" stroke-linejoin="round"/>
<path d="M60.8906 270.211H74.9261" stroke="#BFBBBD" stroke-width="5.15" stroke-linecap="round" stroke-linejoin="round"/>
<path d="M292.203 1.63281V15.6688" stroke="#BFBBBD" stroke-width="5.15" stroke-linecap="round" stroke-linejoin="round"/>
<path d="M285.188 8.64844H299.223" stroke="#BFBBBD" stroke-width="5.15" stroke-linecap="round" stroke-linejoin="round"/>
<path d="M126.016 43.5859V57.6219" stroke="#BFBBBD" stroke-width="5.15" stroke-linecap="round" stroke-linejoin="round"/>
<path d="M118.961 50.6016H133.028" stroke="#BFBBBD" stroke-width="5.15" stroke-linecap="round" stroke-linejoin="round"/>
<path d="M327.238 95.2024C329.075 95.2024 330.569 93.7139 330.569 91.8707C330.569 90.0275 329.075 88.5391 327.238 88.5391C325.401 88.5391 323.906 90.0275 323.906 91.8707C323.906 93.7139 325.401 95.2024 327.238 95.2024Z" fill="#BFBBBD" stroke="#BFBBBD" stroke-width="5.15" stroke-linecap="round" stroke-linejoin="round"/>
<path d="M202.792 65.2566C204.559 65.2566 205.991 63.8252 205.991 62.058C205.991 60.2908 204.559 58.8594 202.792 58.8594C201.025 58.8594 199.594 60.2908 199.594 62.058C199.594 63.8252 201.025 65.2566 202.792 65.2566Z" fill="#BFBBBD"/>
<path d="M224.277 297.444C226.044 297.444 227.475 296.013 227.475 294.245C227.475 292.478 226.044 291.047 224.277 291.047C222.51 291.047 221.078 292.478 221.078 294.245C221.078 296.013 222.51 297.444 224.277 297.444Z" fill="#BFBBBD"/>
</g>
<defs>
<clipPath id="clip0_710_3845">
<rect width="385" height="350" fill="white"/>
</clipPath>
</defs>
</svg>
