<svg width="139" height="51" viewBox="0 0 139 51" fill="none" xmlns="http://www.w3.org/2000/svg">
<path d="M34.9233 43.4171V17.3787H40.5853V43.4171H34.9233Z" fill="white"/>
<path d="M44.5816 22.1198V17.3787H50.2436V22.1198H44.5816ZM44.5816 43.4171V24.3738H50.2436V43.4171H44.5816Z" fill="white"/>
<path d="M54.2396 24.3743H59.9016V29.8545C60.4943 26.7462 62.2375 23.9864 66.2364 23.9864C69.8002 23.9864 71.7783 26.201 71.7783 29.8939C72.3709 26.7462 74.1141 23.9864 78.113 23.9864C81.6768 23.9864 83.6549 26.201 83.6549 30.1271V43.4176H77.9929V32.0692C77.9929 29.582 77.2027 28.3004 74.9043 28.3004C72.6058 28.3004 71.7783 29.7759 71.7783 32.8869V43.4202H66.1163V32.0718C66.1163 29.5846 65.3234 28.303 63.0276 28.303C60.7319 28.303 59.9016 29.7785 59.9016 32.8895V43.4228H54.2396V24.3743Z" fill="white"/>
<path d="M23.0657 1.82683L23.3078 3.33983C23.2328 4.84278 22.4623 6.1315 20.9314 6.51979C19.4449 6.89804 18.388 6.59344 17.2969 5.6294C17.2697 5.60597 17.2458 5.57585 17.2185 5.55241C16.9185 4.98002 16.6423 4.51474 16.5844 3.84527C16.4821 2.63354 16.9117 1.39168 17.9277 0.665304C18.3266 0.380781 19.1005 0.116341 19.5847 0.0427C21.0883 -0.178224 22.3975 0.464464 23.0589 1.82348H23.0657V1.82683Z" fill="white"/>
<path d="M33.185 35.3939C33.393 40.271 30.1029 45.3455 25.9365 47.692C20.4643 50.7716 14.2421 50.5071 14.2421 50.5071C-0.916349 50.3364 0.0110217 42.3597 0.0110217 42.3597C0.934984 34.4299 8.61648 36.7027 8.61648 36.7027C8.28576 38.671 8.57557 40.743 10.0928 42.1723C11.7907 43.7723 14.8217 44.1238 17.0583 43.7422C21.0985 43.0593 24.3 40.04 23.7885 35.8525C23.3351 32.147 20.72 28.7428 18.0095 26.2758C16.0048 24.4515 13.5227 22.992 11.8009 20.8899C8.02324 16.2806 11.9271 11.273 16.6423 9.47214C20.6007 7.95915 24.9648 8.61523 28.7084 10.4194C29.0834 10.6002 29.3801 10.9215 29.5062 11.3132C30.2597 13.6563 29.496 15.3132 28.9641 16.0999C28.7766 16.3743 28.364 16.3844 28.1526 16.1266C26.349 13.9074 23.8158 11.8019 20.778 11.7115C18.0061 11.6278 15.7422 13.6161 16.2741 16.5015C16.6423 18.4832 18.1323 20.0799 19.7381 21.3351C22.135 23.213 24.9 24.5887 27.3821 26.3595C29.8608 28.1335 32.1315 30.4499 32.8884 33.3688C33.0588 34.0315 33.1577 34.7077 33.185 35.3839V35.3939Z" fill="white"/>
<path d="M138.405 26.1819C138.405 26.5605 137.827 26.7634 136.67 26.7904L135.099 26.831H134.356L128.777 39.1233C128.171 40.4485 127.868 41.2869 127.868 41.6385C127.868 42.2065 128.295 42.4904 129.149 42.4904C130.389 42.4904 131.491 41.8414 132.455 40.5432C132.675 40.2727 132.841 40.1375 132.951 40.1375C133.171 40.1375 133.281 40.2321 133.281 40.4215C133.281 40.773 132.827 41.341 131.918 42.1253C130.871 43.0178 129.617 43.4641 128.157 43.4641C127.166 43.4641 126.353 43.2207 125.719 42.7339C125.113 42.247 124.81 41.625 124.81 40.8677C124.81 40.3809 125.127 39.4749 125.761 38.1496L131.174 26.7498H129.48C129.011 26.7498 128.777 26.6552 128.777 26.4659C128.777 26.1143 128.97 25.9385 129.356 25.9385H129.728C129.865 25.9655 130.086 25.979 130.389 25.979C130.774 25.979 131.146 25.9655 131.504 25.9385L132.207 24.194C132.455 23.599 132.648 23.3015 132.785 23.3015C132.923 23.3015 133.13 23.3286 133.405 23.3827C133.708 23.4367 133.942 23.4638 134.108 23.4638C134.411 23.4638 134.851 23.3286 135.43 23.0581C135.54 23.004 135.637 22.977 135.719 22.977C135.857 22.977 135.926 23.0311 135.926 23.1392C135.926 23.1392 135.774 23.4638 135.471 24.1129L134.562 26.0602L135.554 26.0196L137.124 25.9385C137.262 25.9385 137.427 25.925 137.62 25.8979C137.813 25.8709 137.923 25.8573 137.951 25.8573C138.254 25.8573 138.405 25.9655 138.405 26.1819Z" fill="white"/>
<path d="M124.84 26.2225C124.84 26.2225 124.813 26.2901 124.757 26.4253L124.468 27.0744L119.84 37.6628C118.904 39.7994 118.435 41.1246 118.435 41.6385C118.435 42.3687 118.793 42.7339 119.51 42.7339C120.529 42.7339 121.658 42.0307 122.898 40.6243C123.201 40.2727 123.408 40.0969 123.518 40.0969C123.683 40.0969 123.766 40.178 123.766 40.3403C123.766 40.9894 122.953 41.8008 121.328 42.7744C120.364 43.3424 119.372 43.6264 118.353 43.6264C117.554 43.6264 116.851 43.41 116.245 42.9773C115.639 42.5445 115.336 42.0442 115.336 41.4762C115.336 41.1517 115.46 40.6513 115.708 39.9752L116.204 38.5959C114.358 40.6784 112.953 42.0307 111.989 42.6527C111.053 43.2748 109.896 43.5858 108.518 43.5858C107.444 43.5858 106.562 43.383 105.874 42.9773C105.185 42.5445 104.841 41.9901 104.841 41.314C104.841 40.5837 105.144 39.556 105.75 38.2308L110.006 28.8594C110.116 28.616 110.35 28.1427 110.708 27.4395C110.791 27.3043 110.832 27.2096 110.832 27.1555C110.832 26.9392 110.502 26.831 109.84 26.831C108.959 26.831 108.518 26.6822 108.518 26.3847C108.518 26.1954 108.615 26.1008 108.807 26.1008C109.028 26.1008 109.345 26.1278 109.758 26.1819C110.171 26.236 110.488 26.263 110.708 26.263C112.141 26.263 113.201 26.1413 113.89 25.8979C114.055 25.8438 114.165 25.8168 114.22 25.8168C114.358 25.8168 114.427 25.8979 114.427 26.0602C114.427 26.2766 114.152 26.9662 113.601 28.1292C113.05 29.2651 112.54 30.4416 112.072 31.6586C111.962 31.9562 111.535 32.9433 110.791 34.6202L109.138 38.3525C108.449 39.8941 108.105 40.9894 108.105 41.6385C108.105 42.4228 108.615 42.815 109.634 42.815C110.708 42.815 112.099 41.9495 113.807 40.2186C115.736 38.2713 117.333 35.8102 118.601 32.8351L121.245 26.6687C121.383 26.3442 121.534 26.1819 121.7 26.1819C121.672 26.1819 121.961 26.2089 122.567 26.263H122.898C123.642 26.263 124.124 26.2225 124.344 26.1413C124.482 26.0872 124.578 26.0602 124.633 26.0602C124.771 26.0602 124.84 26.1143 124.84 26.2225Z" fill="white"/>
<path d="M103.439 32.2672C103.439 35.4315 101.965 38.2848 99.0178 40.8271C96.7038 42.8285 94.2934 43.8292 91.7865 43.8292C90.0786 43.8292 88.6737 43.2477 87.5717 42.0848C86.4698 40.9218 85.9189 39.4208 85.9189 37.5817C85.9189 36.013 86.3734 34.4038 87.2825 32.754C88.1916 31.1042 89.4037 29.6978 90.9188 28.5349C93.2879 26.7228 95.5743 25.8168 97.7781 25.8168C99.4585 25.8168 100.822 26.4118 101.869 27.6018C102.916 28.7918 103.439 30.3469 103.439 32.2672ZM100.257 29.6302C100.257 27.5747 99.3208 26.547 97.4476 26.547C95.1611 26.547 93.1777 28.1562 91.4973 31.3747C89.8995 34.4579 89.1006 37.3518 89.1006 40.0563C89.1006 42.0848 90.0235 43.099 91.8692 43.099C94.1832 43.099 96.1115 41.6385 97.6542 38.7176C99.3897 35.418 100.257 32.3889 100.257 29.6302Z" fill="white"/>
</svg>
