<svg width="137" height="52" viewBox="0 0 137 52" fill="none" xmlns="http://www.w3.org/2000/svg">
<path d="M35.1875 44.7602V18.5078H40.8926V44.7602H35.1875Z" fill="#695CE1"/>
<path d="M44.9141 23.2879V18.5078H50.6192V23.2879H44.9141ZM44.9141 44.7602V25.5604H50.6192V44.7602H44.9141Z" fill="#695CE1"/>
<path d="M54.6484 44.7627V25.563H60.3536V31.0882C60.9507 27.9543 62.7072 25.1719 66.7366 25.1719C70.3275 25.1719 72.3207 27.4047 72.3207 31.1279C72.9178 27.9543 74.6743 25.1719 78.7037 25.1719C82.2946 25.1719 84.2878 27.4047 84.2878 31.363V44.7627H78.5826V33.3211C78.5826 30.8134 77.7864 29.5213 75.4705 29.5213C73.1545 29.5213 72.3207 31.009 72.3207 34.1455V44.7654H66.6155V33.3237C66.6155 30.8161 65.8167 29.5239 63.5034 29.5239C61.1901 29.5239 60.3536 31.0116 60.3536 34.1481V44.768H54.6484V44.7627Z" fill="#695CE1"/>
<path d="M23.2409 2.82622L23.4848 4.35164C23.4092 5.86695 22.6328 7.16626 21.0903 7.55774C19.5924 7.9391 18.5275 7.63199 17.4281 6.66004C17.4006 6.63641 17.3766 6.60604 17.3491 6.58242C17.0468 6.00532 16.7685 5.53621 16.7101 4.86125C16.6071 3.63955 17.0399 2.38749 18.0637 1.65515C18.4656 1.36828 19.2455 1.10167 19.7333 1.02743C21.2483 0.804686 22.5675 1.45266 23.234 2.82284H23.2409V2.82622Z" fill="#695CE1"/>
<path d="M33.4377 36.6704C33.6473 41.5876 30.3321 46.7038 26.134 49.0696C20.6202 52.1745 14.3505 51.9078 14.3505 51.9078C-0.923327 51.7357 0.0111057 43.6935 0.0111057 43.6935C0.942103 35.6985 8.6821 37.99 8.6821 37.99C8.34886 39.9744 8.64087 42.0634 10.1696 43.5045C11.8805 45.1177 14.9346 45.472 17.1882 45.0873C21.2592 44.3988 24.485 41.3547 23.9697 37.1328C23.5128 33.3968 20.8778 29.9646 18.1467 27.4774C16.1266 25.6381 13.6257 24.1667 11.8908 22.0473C8.08433 17.4001 12.0179 12.3513 16.7691 10.5357C20.7576 9.01024 25.1549 9.67171 28.927 11.4907C29.3049 11.673 29.6038 11.997 29.7309 12.3918C30.4901 14.7542 29.7206 16.4248 29.1847 17.2179C28.9957 17.4946 28.58 17.5047 28.367 17.2449C26.5497 15.0073 23.9972 12.8846 20.9362 12.7934C18.1432 12.7091 15.8621 14.7137 16.398 17.6228C16.7691 19.6207 18.2703 21.2305 19.8884 22.4961C22.3035 24.3894 25.0896 25.7765 27.5906 27.5617C30.0882 29.3504 32.3762 31.6858 33.1388 34.6287C33.3106 35.2969 33.4102 35.9786 33.4377 36.6603V36.6704Z" fill="#695CE1"/>
<path d="M137.004 27.3797C137.004 27.7614 136.431 27.966 135.286 27.9932L133.731 28.0341H132.995L127.473 40.4274C126.874 41.7635 126.574 42.6088 126.574 42.9633C126.574 43.5359 126.996 43.8223 127.842 43.8223C129.069 43.8223 130.159 43.1678 131.114 41.859C131.332 41.5863 131.495 41.45 131.605 41.45C131.823 41.45 131.932 41.5454 131.932 41.7363C131.932 42.0907 131.482 42.6634 130.582 43.4541C129.546 44.354 128.305 44.8039 126.86 44.8039C125.878 44.8039 125.074 44.5585 124.447 44.0677C123.847 43.5769 123.547 42.9497 123.547 42.1862C123.547 41.6954 123.86 40.7819 124.488 39.4458L129.846 27.9523H128.169C127.705 27.9523 127.473 27.8569 127.473 27.666C127.473 27.3115 127.664 27.1343 128.046 27.1343H128.414C128.551 27.1615 128.769 27.1752 129.069 27.1752C129.45 27.1752 129.819 27.1615 130.173 27.1343L130.868 25.3755C131.114 24.7756 131.305 24.4757 131.441 24.4757C131.577 24.4757 131.782 24.5029 132.054 24.5575C132.354 24.612 132.586 24.6393 132.75 24.6393C133.05 24.6393 133.486 24.5029 134.059 24.2302C134.168 24.1757 134.263 24.1484 134.345 24.1484C134.481 24.1484 134.549 24.203 134.549 24.312C134.549 24.312 134.4 24.6393 134.1 25.2937L133.2 27.257L134.181 27.2161L135.736 27.1343C135.872 27.1343 136.036 27.1206 136.226 27.0934C136.417 27.0661 136.526 27.0525 136.554 27.0525C136.854 27.0525 137.004 27.1615 137.004 27.3797Z" fill="#060606"/>
<path d="M123.57 27.4246C123.57 27.4246 123.543 27.4928 123.488 27.6292L123.202 28.2836L118.621 38.959C117.694 41.1132 117.23 42.4493 117.23 42.9674C117.23 43.7036 117.585 44.0717 118.294 44.0717C119.303 44.0717 120.421 43.3628 121.648 41.9448C121.948 41.5903 122.152 41.4131 122.261 41.4131C122.425 41.4131 122.507 41.4949 122.507 41.6585C122.507 42.3129 121.702 43.131 120.093 44.1126C119.139 44.6853 118.157 44.9716 117.148 44.9716C116.358 44.9716 115.662 44.7534 115.062 44.3171C114.462 43.8809 114.163 43.3764 114.163 42.8038C114.163 42.4766 114.285 41.9721 114.531 41.2904L115.021 39.8997C113.195 41.9994 111.804 43.3628 110.849 43.9899C109.922 44.6171 108.777 44.9307 107.414 44.9307C106.35 44.9307 105.478 44.7262 104.796 44.3171C104.114 43.8809 103.773 43.3219 103.773 42.6402C103.773 41.9039 104.073 40.8677 104.673 39.5316L108.886 30.0833C108.995 29.8379 109.227 29.3607 109.582 28.6517C109.663 28.5154 109.704 28.4199 109.704 28.3654C109.704 28.1472 109.377 28.0382 108.723 28.0382C107.85 28.0382 107.414 27.8882 107.414 27.5883C107.414 27.3974 107.509 27.3019 107.7 27.3019C107.918 27.3019 108.232 27.3292 108.641 27.3837C109.05 27.4383 109.363 27.4655 109.582 27.4655C110.999 27.4655 112.049 27.3428 112.731 27.0974C112.895 27.0429 113.004 27.0156 113.058 27.0156C113.195 27.0156 113.263 27.0974 113.263 27.261C113.263 27.4792 112.99 28.1745 112.445 29.347C111.899 30.4923 111.395 31.6784 110.931 32.9055C110.822 33.2055 110.4 34.2007 109.663 35.8913L108.027 39.6543C107.346 41.2086 107.005 42.3129 107.005 42.9674C107.005 43.7581 107.509 44.1535 108.518 44.1535C109.582 44.1535 110.959 43.281 112.649 41.5358C114.558 39.5725 116.139 37.0911 117.394 34.0917L120.012 27.8746C120.148 27.5473 120.298 27.3837 120.461 27.3837C120.434 27.3837 120.72 27.411 121.32 27.4655H121.648C122.384 27.4655 122.861 27.4246 123.079 27.3428C123.215 27.2883 123.311 27.261 123.365 27.261C123.502 27.261 123.57 27.3156 123.57 27.4246Z" fill="#060606"/>
<path d="M102.389 33.519C102.389 36.7094 100.93 39.5862 98.0128 42.1493C95.7223 44.1672 93.3363 45.1761 90.8549 45.1761C89.1643 45.1761 87.7737 44.5898 86.683 43.4173C85.5922 42.2448 85.0469 40.7314 85.0469 38.8772C85.0469 37.2956 85.4968 35.6732 86.3966 34.0099C87.2965 32.3465 88.4963 30.9286 89.996 29.7561C92.3411 27.9291 94.6043 27.0156 96.7857 27.0156C98.4491 27.0156 99.7988 27.6155 100.835 28.8153C101.871 30.0151 102.389 31.583 102.389 33.519ZM99.2398 30.8604C99.2398 28.788 98.3127 27.7519 96.4585 27.7519C94.1953 27.7519 92.232 29.3743 90.5686 32.6192C88.9871 35.7277 88.1963 38.6454 88.1963 41.3722C88.1963 43.4173 89.1098 44.4398 90.9368 44.4398C93.2273 44.4398 95.136 42.9674 96.663 40.0224C98.3809 36.6957 99.2398 33.6417 99.2398 30.8604Z" fill="#060606"/>
</svg>
