<svg width="1170" height="878" viewBox="0 0 1170 878" fill="none" xmlns="http://www.w3.org/2000/svg">
<path d="M630.288 397.693H539.703L475.648 333.639V243.054L539.703 179H630.288L694.344 243.054V333.639L630.288 397.693ZM541.185 394.109H628.803L690.759 332.154V244.539L628.803 182.585H541.185L479.233 244.539V332.154L541.185 394.109Z" fill="#EEE2FF"/>
<path d="M625.011 384.366H545.191L544.796 383.973L488.75 327.925V248.105L489.141 247.712L545.191 191.664H625.011L625.407 192.058L681.452 248.105V327.925L681.061 328.318L625.011 384.366ZM546.307 381.677H623.9L678.767 326.81V249.216L623.9 194.349H546.307L491.439 249.216V326.81L546.307 381.677Z" fill="#EEE2FF"/>
<path d="M596.902 699.09H573.102V394.109H596.902V699.09ZM576.686 695.505H593.317V397.694H576.686V695.505Z" fill="#EEE2FF"/>
<path d="M1085 695.508H85V699.093H1085V695.508Z" fill="#EEE2FF"/>
<path d="M274.136 490.235H220.856C219.865 490.235 219.062 489.433 219.062 488.442C219.062 487.451 219.865 486.648 220.856 486.648H274.136C275.128 486.648 275.93 487.451 275.93 488.442C275.93 489.433 275.128 490.235 274.136 490.235Z" fill="#EEE2FF"/>
<path d="M327.154 500.774H186.645C185.654 500.774 184.852 499.972 184.852 498.981C184.852 497.99 185.654 497.188 186.645 497.188H327.154C328.145 497.188 328.947 497.99 328.947 498.981C328.947 499.972 328.145 500.774 327.154 500.774Z" fill="#EEE2FF"/>
<path d="M318.234 490.235H296.34C295.349 490.235 294.547 489.433 294.547 488.442C294.547 487.451 295.349 486.648 296.34 486.648H318.234C319.225 486.648 320.027 487.451 320.027 488.442C320.027 489.433 319.225 490.235 318.234 490.235Z" fill="#EEE2FF"/>
<path d="M293.448 511.298H240.661C239.669 511.298 238.867 510.496 238.867 509.504C238.867 508.513 239.669 507.711 240.661 507.711H293.448C294.439 507.711 295.241 508.513 295.241 509.504C295.241 510.496 294.439 511.298 293.448 511.298Z" fill="#EEE2FF"/>
<path d="M364.075 490.237C363.084 490.237 362.282 489.434 362.282 488.443C362.282 487.452 363.084 486.65 364.075 486.65C389.697 486.65 410.543 465.763 410.543 440.091C410.543 414.419 389.697 393.619 364.075 393.619C356.212 393.619 348.719 395.506 341.808 399.23C341.367 399.467 340.845 399.506 340.373 399.345C339.901 399.182 339.514 398.83 339.316 398.369C333.243 384.493 319.48 375.53 304.251 375.53C289.023 375.53 274.706 384.891 268.858 399.378C268.525 400.191 267.677 400.652 266.799 400.456C264.303 399.893 261.69 399.617 258.812 399.617C243.53 399.617 229.771 408.68 223.758 422.706C223.569 423.147 223.212 423.493 222.764 423.669C222.323 423.845 221.823 423.837 221.382 423.639C217.71 422.006 213.445 421.145 209.047 421.145C191.012 421.145 176.343 435.817 176.343 453.852C176.343 471.887 191.012 486.648 209.047 486.648C210.038 486.648 210.84 487.45 210.84 488.441C210.84 489.432 210.038 490.234 209.047 490.234C189.038 490.234 172.758 473.913 172.758 453.854C172.758 433.795 189.038 417.563 209.047 417.563C213.303 417.563 217.464 418.295 221.188 419.691C228.103 405.263 242.682 396.034 258.812 396.034C261.403 396.034 263.808 396.239 266.117 396.661C272.821 381.597 287.627 371.945 304.251 371.945C320.875 371.945 334.795 381.013 341.795 395.204C348.767 391.774 356.251 390.034 364.075 390.034C391.675 390.034 414.127 412.489 414.127 440.091C414.127 467.693 391.675 490.234 364.075 490.234V490.237Z" fill="#EEE2FF"/>
<path d="M971.033 422.345H851.293C850.302 422.345 849.5 421.543 849.5 420.551C849.5 419.56 850.302 418.758 851.293 418.758H971.033C972.024 418.758 972.826 419.56 972.826 420.551C972.826 421.543 972.024 422.345 971.033 422.345Z" fill="#EEE2FF"/>
<path d="M918.014 432.876H705.801C704.81 432.876 704.008 432.074 704.008 431.083C704.008 430.091 704.81 429.289 705.801 429.289H918.014C919.006 429.289 919.808 430.091 919.808 431.083C919.808 432.074 919.006 432.876 918.014 432.876Z" fill="#EEE2FF"/>
<path d="M828.992 422.345H807.098C806.107 422.345 805.305 421.543 805.305 420.551C805.305 419.56 806.107 418.758 807.098 418.758H828.992C829.983 418.758 830.785 419.56 830.785 420.551C830.785 421.543 829.983 422.345 828.992 422.345Z" fill="#EEE2FF"/>
<path d="M923.36 443.415H827.551C826.56 443.415 825.758 442.613 825.758 441.622C825.758 440.63 826.56 439.828 827.551 439.828H923.36C924.351 439.828 925.153 440.63 925.153 441.622C925.153 442.613 924.351 443.415 923.36 443.415Z" fill="#EEE2FF"/>
<path d="M916.786 422.342C915.795 422.342 914.993 421.539 914.993 420.548C914.993 419.557 915.795 418.755 916.786 418.755C942.408 418.755 963.254 397.868 963.254 372.196C963.254 346.524 942.408 325.726 916.786 325.726C908.919 325.726 901.43 327.613 894.519 331.337C894.073 331.574 893.556 331.616 893.084 331.453C892.61 331.289 892.225 330.937 892.027 330.479C885.954 316.603 872.191 307.639 856.962 307.639C841.734 307.639 827.412 317 821.569 331.487C821.241 332.303 820.375 332.761 819.51 332.566C817.014 332.003 814.401 331.726 811.523 331.726C796.241 331.726 782.482 340.789 776.469 354.816C776.28 355.257 775.923 355.603 775.475 355.779C775.03 355.955 774.53 355.946 774.093 355.748C770.421 354.116 766.156 353.255 761.758 353.255C743.723 353.255 729.054 367.926 729.054 385.961C729.054 403.996 743.723 418.755 761.758 418.755C762.749 418.755 763.551 419.557 763.551 420.548C763.551 421.539 762.749 422.342 761.758 422.342C741.749 422.342 725.469 406.022 725.469 385.963C725.469 365.905 741.749 349.672 761.758 349.672C766.014 349.672 770.175 350.405 773.899 351.8C780.814 337.372 795.393 328.144 811.523 328.144C814.114 328.144 816.519 328.348 818.827 328.77C825.532 313.707 840.338 304.055 856.962 304.055C873.586 304.055 887.506 313.122 894.506 327.313C901.473 323.883 908.958 322.144 916.786 322.144C944.386 322.144 966.838 344.598 966.838 372.198C966.838 399.798 944.386 422.342 916.786 422.342Z" fill="#EEE2FF"/>
<path d="M653.573 574.139C647.206 574.139 642.023 568.956 642.023 562.589C642.023 556.222 647.206 551.039 653.573 551.039C659.941 551.039 665.123 556.222 665.123 562.589C665.123 568.956 659.941 574.139 653.573 574.139ZM653.573 554.624C649.182 554.624 645.608 558.198 645.608 562.589C645.608 566.98 649.182 570.554 653.573 570.554C657.965 570.554 661.539 566.983 661.539 562.589C661.539 558.196 657.965 554.624 653.573 554.624Z" fill="#EEE2FF"/>
<path d="M458.691 521.059C452.321 521.059 447.141 515.876 447.141 509.509C447.141 503.141 452.323 497.961 458.691 497.961C465.058 497.961 470.241 503.141 470.241 509.509C470.241 515.876 465.058 521.059 458.691 521.059ZM458.691 501.544C454.299 501.544 450.725 505.117 450.725 509.507C450.725 513.896 454.299 517.472 458.691 517.472C463.082 517.472 466.656 513.898 466.656 509.507C466.656 505.115 463.082 501.544 458.691 501.544Z" fill="#EEE2FF"/>
<path d="M375.847 683.764C365.938 683.764 357.875 675.703 357.875 665.792C357.875 655.881 365.938 647.82 375.847 647.82C385.755 647.82 393.818 655.881 393.818 665.792C393.818 675.703 385.755 683.764 375.847 683.764ZM375.847 651.407C367.914 651.407 361.46 657.862 361.46 665.794C361.46 673.727 367.912 680.181 375.847 680.181C383.782 680.181 390.234 673.727 390.234 665.794C390.234 657.862 383.782 651.407 375.847 651.407Z" fill="#EEE2FF"/>
<path d="M890.302 648.034C882.394 648.034 875.961 641.602 875.961 633.693C875.961 625.784 882.391 619.352 890.302 619.352C898.213 619.352 904.644 625.784 904.644 633.693C904.644 641.602 898.211 648.034 890.302 648.034ZM890.302 622.939C884.372 622.939 879.546 627.762 879.546 633.695C879.546 639.628 884.37 644.452 890.302 644.452C896.235 644.452 901.059 639.628 901.059 633.695C901.059 627.762 896.235 622.939 890.302 622.939Z" fill="#EEE2FF"/>
<path d="M745.331 659.648C744.872 659.648 744.414 659.474 744.064 659.122L727.588 642.646C726.887 641.946 726.887 640.811 727.588 640.111C728.288 639.411 729.422 639.411 730.122 640.111L746.598 656.587C747.298 657.287 747.298 658.422 746.598 659.122C746.248 659.472 745.79 659.648 745.331 659.648Z" fill="#EEE2FF"/>
<path d="M728.855 659.648C728.396 659.648 727.938 659.474 727.588 659.122C726.887 658.422 726.887 657.287 727.588 656.587L744.064 640.111C744.764 639.411 745.898 639.411 746.598 640.111C747.298 640.811 747.298 641.946 746.598 642.646L730.122 659.122C729.772 659.472 729.314 659.648 728.855 659.648Z" fill="#EEE2FF"/>
<path d="M428.815 601.906C428.357 601.906 427.898 601.732 427.548 601.38L411.072 584.904C410.372 584.204 410.372 583.069 411.072 582.369C411.772 581.669 412.907 581.669 413.607 582.369L430.083 598.845C430.783 599.545 430.783 600.68 430.083 601.38C429.733 601.73 429.274 601.906 428.815 601.906Z" fill="#EEE2FF"/>
<path d="M412.339 601.906C411.881 601.906 411.422 601.732 411.072 601.38C410.372 600.68 410.372 599.545 411.072 598.845L427.548 582.369C428.248 581.669 429.383 581.669 430.083 582.369C430.783 583.069 430.783 584.204 430.083 584.904L413.607 601.38C413.257 601.73 412.798 601.906 412.339 601.906Z" fill="#EEE2FF"/>
<path d="M220.847 622.937C220.388 622.937 219.929 622.761 219.579 622.411L203.103 605.935C202.403 605.235 202.403 604.1 203.103 603.4C203.803 602.7 204.938 602.7 205.638 603.4L222.114 619.876C222.814 620.576 222.814 621.711 222.114 622.411C221.764 622.761 221.305 622.937 220.847 622.937Z" fill="#EEE2FF"/>
<path d="M204.371 622.937C203.912 622.937 203.453 622.761 203.103 622.411C202.403 621.711 202.403 620.576 203.103 619.876L219.579 603.4C220.279 602.7 221.414 602.7 222.114 603.4C222.814 604.1 222.814 605.235 222.114 605.935L205.638 622.411C205.288 622.761 204.829 622.937 204.371 622.937Z" fill="#EEE2FF"/>
<path d="M832.292 547.054C831.833 547.054 831.375 546.88 831.025 546.528L814.548 530.052C813.848 529.352 813.848 528.217 814.548 527.517C815.248 526.817 816.383 526.817 817.083 527.517L833.559 543.993C834.259 544.693 834.259 545.828 833.559 546.528C833.209 546.878 832.751 547.054 832.292 547.054Z" fill="#EEE2FF"/>
<path d="M815.816 547.054C815.357 547.054 814.898 546.88 814.548 546.528C813.848 545.828 813.848 544.693 814.548 543.993L831.025 527.517C831.725 526.817 832.859 526.817 833.559 527.517C834.259 528.217 834.259 529.352 833.559 530.052L817.083 546.528C816.733 546.878 816.275 547.054 815.816 547.054Z" fill="#EEE2FF"/>
<path d="M318.223 564.392H286.801C285.81 564.392 285.008 563.589 285.008 562.598C285.008 561.607 285.81 560.805 286.801 560.805H318.223C319.214 560.805 320.016 561.607 320.016 562.598C320.016 563.589 319.214 564.392 318.223 564.392Z" fill="#EEE2FF"/>
<path d="M705.798 490.235H663.333C662.341 490.235 661.539 489.433 661.539 488.442C661.539 487.451 662.341 486.648 663.333 486.648H705.798C706.789 486.648 707.591 487.451 707.591 488.442C707.591 489.433 706.789 490.235 705.798 490.235Z" fill="#EEE2FF"/>
<path d="M1002.02 648.032H965.059C964.068 648.032 963.266 647.23 963.266 646.239C963.266 645.247 964.068 644.445 965.059 644.445H1002.02C1003.01 644.445 1003.81 645.247 1003.81 646.239C1003.81 647.23 1003.01 648.032 1002.02 648.032Z" fill="#EEE2FF"/>
<path d="M521.356 299.086H517.334V279.005H520.841L530.22 292.086H530.331V279.005H534.353V299.086H530.874L521.481 285.935H521.356V299.086ZM544.4 299.35C539.752 299.35 536.844 296.372 536.844 291.418C536.844 286.52 539.794 283.5 544.4 283.5C549.02 283.5 551.957 286.506 551.957 291.418C551.957 296.386 549.048 299.35 544.4 299.35ZM544.4 296.219C546.543 296.219 547.824 294.466 547.824 291.418C547.824 288.399 546.529 286.617 544.4 286.617C542.257 286.617 540.963 288.412 540.963 291.418C540.963 294.466 542.257 296.219 544.4 296.219ZM555.227 280.355H559.29V283.765H562.129V286.84H559.29V294.285C559.29 295.468 559.875 296.038 561.113 296.038C561.475 296.038 561.879 296.011 562.129 295.969V298.975C561.712 299.058 560.988 299.142 560.167 299.142C556.618 299.142 555.227 297.945 555.227 294.953V286.84H553.153V283.765H555.227V280.355ZM575.085 299.086H570.882V279.005H584.033V282.47H575.085V287.856H583.253V291.182H575.085V299.086ZM592.939 299.35C588.291 299.35 585.383 296.372 585.383 291.418C585.383 286.52 588.333 283.5 592.939 283.5C597.559 283.5 600.495 286.506 600.495 291.418C600.495 296.386 597.587 299.35 592.939 299.35ZM592.939 296.219C595.082 296.219 596.362 294.466 596.362 291.418C596.362 288.399 595.068 286.617 592.939 286.617C590.796 286.617 589.502 288.412 589.502 291.418C589.502 294.466 590.796 296.219 592.939 296.219ZM616.721 283.765V299.086H612.797V296.317H612.713C611.934 298.237 610.431 299.309 608.107 299.309C604.795 299.309 602.61 297.152 602.61 293.589V283.765H606.674V292.74C606.674 294.814 607.704 295.927 609.582 295.927C611.475 295.927 612.658 294.563 612.658 292.49V283.765H616.721ZM619.49 299.086V283.765H623.415V286.506H623.498C624.375 284.572 625.933 283.542 628.285 283.542C631.681 283.542 633.601 285.685 633.601 289.261V299.086H629.538V290.11C629.538 288.078 628.591 286.923 626.671 286.923C624.723 286.923 623.554 288.315 623.554 290.347V299.086H619.49ZM642.006 299.267C638.193 299.267 635.73 296.233 635.73 291.404C635.73 286.603 638.207 283.584 642.02 283.584C644.233 283.584 645.945 284.683 646.71 286.381H646.793V278.045H650.857V299.086H646.849V296.47H646.779C646.028 298.154 644.261 299.267 642.006 299.267ZM643.356 286.868C641.241 286.868 639.891 288.635 639.891 291.418C639.891 294.229 641.241 295.983 643.356 295.983C645.457 295.983 646.821 294.201 646.821 291.432C646.821 288.663 645.457 286.868 643.356 286.868Z" fill="#EEE2FF"/>
</svg>
