<svg width="441" height="328" viewBox="0 0 441 328" fill="none" xmlns="http://www.w3.org/2000/svg">
<g clip-path="url(#clip0_6555_9066)">
<path d="M440.139 288.25H0V288.47H440.139V288.25Z" fill="#EBEBEB"/>
<path d="M396.043 302.414H319.547V302.634H396.043V302.414Z" fill="#EBEBEB"/>
<path d="M322.486 294.242H314.836V294.462H322.486V294.242Z" fill="#EBEBEB"/>
<path d="M263.471 301.539H246.578V301.759H263.471V301.539Z" fill="#EBEBEB"/>
<path d="M65.1859 295.719H46.1719V295.939H65.1859V295.719Z" fill="#EBEBEB"/>
<path d="M97.6174 295.719H73.0312V295.939H97.6174V295.719Z" fill="#EBEBEB"/>
<path d="M224.037 299.32H182.805V299.54H224.037V299.32Z" fill="#EBEBEB"/>
<path d="M208.633 248.986H38.6514C35.8785 248.986 33.625 246.733 33.625 243.96V5.02638C33.625 2.25351 35.8785 0 38.6514 0H208.633C211.406 0 213.659 2.25351 213.659 5.02638V243.96C213.659 246.733 211.406 248.986 208.633 248.986ZM38.6514 0.220069C36.0017 0.220069 33.8451 2.37675 33.8451 5.02638V243.96C33.8451 246.61 36.0017 248.766 38.6514 248.766H208.633C211.282 248.766 213.439 246.61 213.439 243.96V5.02638C213.439 2.37675 211.282 0.220069 208.633 0.220069H38.6514Z" fill="#EBEBEB"/>
<path d="M399.047 248.986H229.065C226.293 248.986 224.039 246.733 224.039 243.96V5.02638C224.039 2.25351 226.293 0 229.065 0H399.047C401.82 0 404.073 2.25351 404.073 5.02638V243.96C404.073 246.733 401.82 248.986 399.047 248.986ZM229.065 0.220069C226.416 0.220069 224.259 2.37675 224.259 5.02638V243.96C224.259 246.61 226.416 248.766 229.065 248.766H399.047C401.697 248.766 403.853 246.61 403.853 243.96V5.02638C403.853 2.37675 401.697 0.220069 399.047 0.220069H229.065Z" fill="#EBEBEB"/>
<path d="M220.47 162.008H193.234V288.24H220.47V162.008Z" fill="#E6E6E6"/>
<path d="M215.291 288.242H220.458V273.523H209.859L215.291 288.242Z" fill="#F0F0F0"/>
<path d="M83.5639 162.008H56.3281V288.24H83.5639V162.008Z" fill="#E6E6E6"/>
<path d="M220.471 162.008H79.0547V279.208H220.471V162.008Z" fill="#F0F0F0"/>
<path d="M216.451 166.031H83.0625V195.01H216.451V166.031Z" fill="#E6E6E6"/>
<path d="M216.448 198.328H151.492V260.819H216.448V198.328Z" fill="#E6E6E6"/>
<path d="M148.034 198.328H83.0781V260.819H148.034V198.328Z" fill="#E6E6E6"/>
<path d="M133.484 209.361C133.484 211.905 135.544 213.956 138.079 213.956C140.615 213.956 142.674 211.896 142.674 209.361C142.674 206.825 140.615 204.766 138.079 204.766C135.544 204.766 133.484 206.825 133.484 209.361Z" fill="#FAFAFA"/>
<path d="M156.828 209.361C156.828 211.905 158.888 213.956 161.423 213.956C163.958 213.956 166.018 211.896 166.018 209.361C166.018 206.825 163.958 204.766 161.423 204.766C158.888 204.766 156.828 206.825 156.828 209.361Z" fill="#FAFAFA"/>
<path d="M84.2219 288.242H79.0547V273.523H89.6444L84.2219 288.242Z" fill="#F0F0F0"/>
<path d="M189.516 180.728C189.516 183.272 191.575 185.323 194.111 185.323C196.646 185.323 198.706 183.263 198.706 180.728C198.706 178.193 196.646 176.133 194.111 176.133C191.575 176.133 189.516 178.193 189.516 180.728Z" fill="#FAFAFA"/>
<path d="M102.016 180.728C102.016 183.272 104.075 185.323 106.611 185.323C109.146 185.323 111.206 183.263 111.206 180.728C111.206 178.193 109.146 176.133 106.611 176.133C104.075 176.133 102.016 178.193 102.016 180.728Z" fill="#FAFAFA"/>
<path d="M382.204 22.5781H234.758V145.104H382.204V22.5781Z" fill="#EBEBEB"/>
<path d="M385.62 22.5781H236.352V145.104H385.62V22.5781Z" fill="#F5F5F5"/>
<path d="M394.722 145.109H234.758V149.167H394.722V145.109Z" fill="#EBEBEB"/>
<path d="M390.662 145.109H251.578V149.167H390.662V145.109Z" fill="#F5F5F5"/>
<path d="M380.82 140.077V27.5859L241.147 27.5859V140.077H380.82Z" fill="#FAFAFA"/>
<path d="M270.938 140.077L311.906 27.5859H331.245L290.277 140.077H270.938Z" fill="white"/>
<path d="M294.422 140.077L335.39 27.5859H342.934L301.957 140.077H294.422Z" fill="white"/>
<path d="M318.68 140.077L359.648 27.5859H367.192L326.224 140.077H318.68Z" fill="white"/>
<path d="M380.82 140.077V27.5859H380.213V140.077H380.82Z" fill="#EBEBEB"/>
<path opacity="0.5" d="M386.753 33.4113H239.315L238.875 29.5469H386.313L386.753 33.4113Z" fill="#EBEBEB"/>
<path opacity="0.5" d="M386.753 38.2316H239.315L238.875 34.3672H386.313L386.753 38.2316Z" fill="#EBEBEB"/>
<path opacity="0.5" d="M386.753 43.0285H239.315L238.875 39.1641H386.313L386.753 43.0285Z" fill="#EBEBEB"/>
<path opacity="0.5" d="M386.753 47.8644H239.315L238.875 44H386.313L386.753 47.8644Z" fill="#EBEBEB"/>
<path opacity="0.5" d="M386.753 52.6769H239.315L238.875 48.8125H386.313L386.753 52.6769Z" fill="#EBEBEB"/>
<path opacity="0.5" d="M386.753 57.4972H239.315L238.875 53.6328H386.313L386.753 57.4972Z" fill="#EBEBEB"/>
<path opacity="0.5" d="M386.753 62.3097H239.315L238.875 58.4453H386.313L386.753 62.3097Z" fill="#EBEBEB"/>
<path opacity="0.5" d="M386.753 67.13H239.315L238.875 63.2656H386.313L386.753 67.13Z" fill="#EBEBEB"/>
<path opacity="0.5" d="M386.753 71.9269H239.315L238.875 68.0625H386.313L386.753 71.9269Z" fill="#EBEBEB"/>
<path opacity="0.5" d="M386.753 76.7707H239.315L238.875 72.9062H386.313L386.753 76.7707Z" fill="#EBEBEB"/>
<path opacity="0.5" d="M386.753 81.5832H239.315L238.875 77.7188H386.313L386.753 81.5832Z" fill="#EBEBEB"/>
<path opacity="0.5" d="M386.753 86.3957H239.315L238.875 82.5312H386.313L386.753 86.3957Z" fill="#EBEBEB"/>
<path opacity="0.5" d="M386.753 91.2238H239.315L238.875 87.3594H386.313L386.753 91.2238Z" fill="#EBEBEB"/>
<path opacity="0.5" d="M386.753 96.0363H239.315L238.875 92.1719H386.313L386.753 96.0363Z" fill="#EBEBEB"/>
<path d="M273.369 189.594H356.344V176.117H273.369V189.594Z" fill="#EBEBEB"/>
<path d="M273.367 288.252L281.809 189.617H293.191L276.747 288.252H273.367Z" fill="#E0E0E0"/>
<path d="M356.316 288.252L347.874 189.617H336.492L352.936 288.252H356.316Z" fill="#E0E0E0"/>
<path d="M325.302 288.252L318.304 189.617H306.922L321.913 288.252H325.302Z" fill="#E0E0E0"/>
<path d="M92.8879 141.097C97.8879 140.745 101.409 136.378 100.749 131.352L94.8773 86.9509C94.2083 81.9245 89.6133 78.1393 84.6133 78.4915C79.6133 78.8436 76.0922 83.2097 76.7612 88.2361L82.6327 132.637C83.3017 137.664 87.8967 141.449 92.8967 141.097H92.8879Z" fill="#F5F5F5"/>
<path d="M98.0214 137.805C101.542 138.685 104.729 136.643 105.125 133.245L108.655 103.21C109.051 99.8119 106.525 96.3348 102.995 95.4546C99.4738 94.5743 96.2872 96.6165 95.8911 100.014L92.3612 130.049C91.9651 133.447 94.4915 136.924 98.0214 137.805Z" fill="#F0F0F0"/>
<path d="M91.7067 142.383C88.4497 143.263 84.6469 141.221 83.2121 137.823L70.5185 107.788C69.0836 104.39 70.5537 100.913 73.8107 100.033C77.0677 99.1524 80.8705 101.195 82.3054 104.593L94.999 134.628C96.4338 138.025 94.9638 141.503 91.7067 142.383Z" fill="#E6E6E6"/>
<path d="M80.0783 162.014H107.719L113.485 129.109H74.3125L80.0783 162.014Z" fill="#E6E6E6"/>
<path d="M72.2147 133.805H115.586V124.412H72.2147V133.805Z" fill="#E0E0E0"/>
<path d="M220.068 328C314.33 328 390.744 323.538 390.744 318.035C390.744 312.532 314.33 308.07 220.068 308.07C125.805 308.07 49.3906 312.532 49.3906 318.035C49.3906 323.538 125.805 328 220.068 328Z" fill="#F5F5F5"/>
<path d="M277.535 310.793L270.484 310.679L270.925 294.297L277.976 294.403L277.535 310.793Z" fill="#F4C9CB"/>
<path d="M270.393 309.867L278.096 309.991C278.386 309.991 278.615 310.202 278.642 310.484L279.311 316.786C279.381 317.438 278.818 318.045 278.149 318.028C275.376 317.94 271.379 317.711 267.885 317.658C263.8 317.596 264.196 317.764 259.408 317.684C256.511 317.64 256.045 314.691 257.286 314.445C262.946 313.318 263.51 313.265 268.624 310.396C269.179 310.087 269.777 309.859 270.385 309.867H270.393Z" fill="#263238"/>
<path d="M268.666 100.012C267.698 102.53 266.642 104.792 265.55 107.142C264.441 109.466 263.279 111.764 262.011 114.017C259.485 118.542 256.703 122.97 253.191 127.16L252.83 127.6C252.628 127.82 252.451 128.031 252.223 128.251C251.774 128.683 251.263 129.114 250.629 129.501C250.022 129.889 249.256 130.214 248.481 130.426C247.698 130.619 246.862 130.707 246.113 130.655C244.573 130.567 243.393 130.074 242.452 129.572C241.51 129.061 240.77 128.498 240.128 127.943C238.851 126.825 237.892 125.681 237.038 124.528C236.184 123.383 235.436 122.239 234.749 121.077C232.029 116.438 230.075 111.746 228.438 106.799L233.288 104.642C234.555 106.667 235.867 108.771 237.24 110.751C238.596 112.75 239.978 114.713 241.43 116.508C242.152 117.406 242.883 118.269 243.631 119.035C244.371 119.801 245.136 120.479 245.788 120.927C246.113 121.148 246.413 121.297 246.58 121.35C246.747 121.403 246.774 121.332 246.483 121.28C246.21 121.218 245.7 121.35 245.515 121.456C245.409 121.517 245.365 121.535 245.356 121.526C245.356 121.526 245.356 121.491 245.374 121.482L245.585 121.183C246.897 119.361 248.103 117.345 249.291 115.329C250.462 113.287 251.571 111.174 252.672 109.044C253.745 106.905 254.793 104.73 255.814 102.547C256.844 100.391 257.83 98.1107 258.763 96.0156L268.701 100.021L268.666 100.012Z" fill="#F4C9CB"/>
<path d="M271.422 95.8049C273.57 102.284 260.832 119.96 260.832 119.96L246.977 111.254C246.977 111.254 250.612 102.24 255.744 95.3648C261.017 88.3049 269.063 88.6923 271.422 95.8049Z" fill="#263238"/>
<path opacity="0.2" d="M263.458 103.423C260.72 104.611 255.993 113.793 256.609 117.323L260.817 119.963C260.817 119.963 265.729 113.159 268.933 106.442C267.041 104.453 264.902 102.798 263.458 103.423Z" fill="black"/>
<path d="M233.745 106.563L232.434 98.5703L224.828 101.202C224.828 101.202 225.022 107.488 230.127 108.641L233.745 106.563Z" fill="#F4C9CB"/>
<path d="M227.279 93.1865L224.374 95.5897C223.89 95.9858 223.679 96.6284 223.829 97.2358L224.823 101.197L232.429 98.565L229.744 93.6531C229.251 92.7552 228.063 92.5263 227.279 93.1777V93.1865Z" fill="#F4C9CB"/>
<path opacity="0.2" d="M270.916 294.297L270.688 302.748L277.739 302.853L277.967 294.411L270.916 294.297Z" fill="black"/>
<path d="M302.81 92.9484C296.217 119.788 298.831 148.274 298.365 154.04C298.365 154.04 260.565 153.432 260.565 153.423C257.097 111.971 263.206 90.3604 263.206 90.3604C263.206 90.3604 265.609 89.8938 268.893 89.5505C269.923 89.4449 271.032 89.348 272.194 89.2864C272.837 89.2512 273.488 89.2248 274.148 89.216C278.409 89.1456 285.398 89.8234 290.213 90.4132C291.226 90.5364 292.247 90.6861 293.241 90.8533C294.166 91.0118 295.072 91.179 295.926 91.3463C299.799 92.1121 302.801 92.9484 302.801 92.9484H302.81Z" fill="#263238"/>
<path opacity="0.2" d="M295.204 104.461C294.623 107.058 295.846 118.906 298.672 121.829C298.901 118.035 299.244 114.074 299.737 110.024L295.204 104.461Z" fill="black"/>
<path d="M289.281 72.2422C288.075 77.3214 286.72 86.6875 290.214 90.4023C287.301 92.9815 283.516 95.9216 277.362 95.684C271.209 95.4463 272.442 91.309 274.141 89.2139C279.959 88.272 279.959 83.9939 279.105 79.9094L289.273 72.2422H289.281Z" fill="#F4C9CB"/>
<path d="M289.881 89.7241C289.221 90.6572 286.448 93.4565 276.008 95.5515C277.531 96.6431 279.106 99.2663 279.925 100.745C280.26 101.361 280.999 101.634 281.633 101.379C284.635 100.173 292.451 96.4494 292.117 90.578C292.108 90.3843 291.994 90.1994 291.826 90.1026C291.36 89.8385 290.849 89.6449 290.506 89.5304C290.277 89.4512 290.031 89.5304 289.899 89.7241H289.881Z" fill="white"/>
<path d="M271.491 99.2471C272.415 98.0587 274.044 96.307 276.007 95.5676C274.748 94.564 273.551 91.8 274.185 89.4672C274.29 89.0887 273.973 88.7014 273.577 88.7366C273.172 88.7718 272.767 88.8598 272.574 88.9039C272.495 88.9215 272.424 88.9567 272.362 89.0007C271.57 89.6081 266.13 94.0711 269.581 99.1327C270.039 99.8017 271.007 99.8545 271.482 99.2383L271.491 99.2471Z" fill="white"/>
<path opacity="0.2" d="M285.138 75.3906L279.117 79.9241C279.32 80.8924 279.478 81.8607 279.505 82.8026C281.714 82.6441 284.83 80.461 285.147 78.1811C285.306 77.0456 285.297 75.9364 285.129 75.3906H285.138Z" fill="black"/>
<path d="M272.813 69.8884C269.847 69.2722 269.539 60.8303 270.921 58.7353C268.993 58.7617 265.983 56.3409 265.305 54.1138C267.409 54.1843 270.437 52.9871 270.921 52.098C268.843 51.1033 265.666 48.1191 265.305 45.6016C270.569 48.172 274.6 48.3392 276.431 48.1192C276.431 48.1192 274.671 46.4114 274.988 44.3516C278.826 46.4026 283.755 47.9431 289.072 47.767C293.738 47.6086 296.15 51.3938 294.354 54.1843C298.57 54.0786 295.639 65.9976 291.599 68.524C287.787 70.5398 280.912 71.5697 272.813 69.8796V69.8884Z" fill="#263238"/>
<path d="M290.984 64.5278C290.095 71.4732 289.937 75.5929 286.169 78.9115C280.509 83.9027 272.094 80.0647 270.888 72.9785C269.796 66.5964 271.425 56.306 278.449 54.0349C285.368 51.799 291.874 57.5824 290.984 64.5278Z" fill="#F4C9CB"/>
<path d="M289.021 54.8281C289.021 54.8281 284.655 56.5183 285.87 60.9549C287.085 65.3915 286.9 67.3721 286.275 68.6925C286.715 70.0833 290.342 70.7171 290.342 70.7171C290.342 70.7171 293.387 64.2735 293.827 60.6556C294.268 57.0376 289.021 54.8369 289.021 54.8369V54.8281Z" fill="#263238"/>
<path d="M292.469 53.8202C294.203 54.1371 296.756 51.241 296.967 48.8906C296.967 48.8906 298.05 57.4029 292.469 53.8202Z" fill="#263238"/>
<path d="M291.962 53.1617C292.842 56.9205 283.696 58.8659 271.813 58.5666C271.813 58.5666 271.742 54.0156 275.334 52.2198C278.925 50.424 290.827 48.2761 291.962 53.1529V53.1617Z" fill="#263238"/>
<path d="M293.839 71.6244C292.853 73.2265 291.216 74.2212 289.702 74.5557C287.422 75.0487 286.401 72.9712 287.132 70.8938C287.792 69.0188 289.772 66.5012 292.017 66.9413C294.227 67.3727 294.975 69.7934 293.848 71.6244H293.839Z" fill="#F4C9CB"/>
<path d="M282.477 223.569C282.196 188.032 290.057 153.913 290.057 153.913L260.594 153.438C260.594 153.438 263.983 204.758 265.162 226.254C266.386 248.604 268.103 301.078 268.103 301.078L280.065 301.262C280.065 301.262 284.141 251.615 282.486 223.578L282.477 223.569Z" fill="#A579E1"/>
<path opacity="0.2" d="M283.636 173.464C275.238 184.96 279.014 206.589 282.456 221.87C282.456 202.874 284.692 184.432 286.743 171.562L283.636 173.464Z" fill="black"/>
<path d="M267.36 301.33L281.576 301.55L282.377 296.946L266.523 296.453L267.36 301.33Z" fill="#263238"/>
<path d="M281.709 65.7011C281.674 66.2733 281.34 66.7046 280.97 66.6782C280.6 66.6518 280.327 66.1676 280.362 65.5954C280.398 65.0233 280.732 64.5919 281.102 64.6183C281.472 64.6447 281.744 65.1289 281.709 65.7011Z" fill="#263238"/>
<path d="M273.842 65.2245C273.807 65.7967 273.472 66.228 273.103 66.2016C272.733 66.1752 272.46 65.6911 272.495 65.1189C272.53 64.5467 272.865 64.1154 273.235 64.1418C273.604 64.1682 273.877 64.6523 273.842 65.2245Z" fill="#263238"/>
<path d="M275.865 65.6562C275.865 65.6562 274.36 68.8429 272.828 70.3129C273.77 71.3252 275.513 71.0259 275.513 71.0259L275.865 65.6562Z" fill="#E7B4B6"/>
<path d="M277.812 72.7266C279.995 72.5946 281.095 71.1685 281.148 71.1069C281.201 71.0365 281.192 70.9308 281.113 70.8692C281.043 70.8164 280.937 70.8252 280.875 70.9044C280.867 70.922 279.573 72.577 277.09 72.3921C277.002 72.3921 276.914 72.4537 276.914 72.5506C276.914 72.6386 276.976 72.7266 277.073 72.7266C277.337 72.7442 277.583 72.7442 277.812 72.7266Z" fill="#263238"/>
<path d="M282.867 62.7513C282.92 62.7513 282.982 62.7337 283.026 62.6985C283.184 62.6017 283.22 62.3904 283.123 62.2319C282.102 60.6738 280.561 60.6562 280.491 60.6562C280.306 60.6562 280.156 60.8059 280.156 60.9908C280.156 61.1756 280.306 61.3253 280.491 61.3253C280.544 61.3253 281.75 61.3605 282.559 62.6017C282.63 62.7073 282.744 62.7601 282.859 62.7513H282.867Z" fill="#263238"/>
<path d="M271.265 62.3436C271.37 62.3436 271.485 62.2996 271.546 62.2116C272.418 61.0232 273.624 61.076 273.677 61.076C273.861 61.0848 274.02 60.944 274.029 60.7591C274.029 60.5742 273.897 60.4158 273.712 60.407C273.641 60.407 272.101 60.3278 271.009 61.8066C270.904 61.9563 270.93 62.1675 271.08 62.2732C271.133 62.3172 271.194 62.3348 271.265 62.3348V62.3436Z" fill="#263238"/>
<path d="M269.123 310.493C269.185 310.475 269.229 310.422 269.238 310.361C269.246 310.29 269.211 310.22 269.15 310.185C268.833 310.018 266.016 308.53 265.153 308.996C264.986 309.084 264.889 309.243 264.871 309.437C264.845 309.771 264.942 310.044 265.171 310.255C265.937 310.951 267.961 310.704 269.106 310.502C269.106 310.502 269.123 310.502 269.132 310.502L269.123 310.493ZM265.364 309.269C265.901 309.093 267.433 309.701 268.542 310.255C266.975 310.493 265.813 310.405 265.391 310.009C265.241 309.868 265.18 309.692 265.197 309.472C265.197 309.384 265.241 309.331 265.303 309.296C265.32 309.287 265.338 309.278 265.364 309.269Z" fill="#A579E1"/>
<path d="M269.118 310.508C269.118 310.508 269.144 310.499 269.162 310.49C269.215 310.455 269.241 310.402 269.232 310.34C269.232 310.261 269.065 308.351 268.176 307.603C267.903 307.374 267.595 307.268 267.252 307.304C266.794 307.339 266.653 307.576 266.618 307.761C266.477 308.562 268.141 310.112 268.986 310.508C269.021 310.525 269.065 310.525 269.109 310.508H269.118ZM267.111 307.664C267.111 307.664 267.208 307.638 267.278 307.629C267.533 307.612 267.753 307.682 267.956 307.849C268.537 308.342 268.774 309.487 268.854 310.041C267.991 309.504 266.864 308.289 266.952 307.805C266.952 307.779 266.97 307.7 267.111 307.656V307.664Z" fill="#A579E1"/>
<path d="M317.159 310.793L310.091 310.679L307.758 294.297L314.826 294.403L317.159 310.793Z" fill="#F4C9CB"/>
<path d="M309.734 309.868L317.436 309.991C317.727 309.991 317.956 310.202 317.982 310.484L318.651 316.787C318.721 317.438 318.158 318.045 317.489 318.028C314.716 317.94 313.845 317.711 310.35 317.658C306.266 317.597 308.149 317.764 303.361 317.685C300.464 317.641 299.998 314.709 301.239 314.445C305.165 313.626 306.195 312.06 307.964 310.396C308.431 309.956 309.118 309.859 309.725 309.868H309.734Z" fill="#263238"/>
<path opacity="0.2" d="M307.758 294.297L308.964 302.748L316.032 302.853L314.835 294.411L307.758 294.297Z" fill="black"/>
<path d="M307.113 222.665C303.099 190.905 303.134 161.125 298.372 154.03L273.398 153.625C273.398 153.625 286.206 203.836 291.083 224.989C296.145 246.987 305.766 298.968 305.766 298.968L317.157 299.126C317.157 299.126 314.595 247.234 307.113 222.665Z" fill="#A579E1"/>
<path d="M304.187 301.33L318.403 301.55L319.213 296.946L303.359 296.453L304.187 301.33Z" fill="#263238"/>
<path d="M311.123 310.404C311.185 310.404 311.246 310.378 311.273 310.316C311.308 310.254 311.299 310.175 311.255 310.122C311.017 309.849 308.878 307.49 307.91 307.631C307.725 307.657 307.575 307.772 307.496 307.948C307.355 308.247 307.355 308.547 307.496 308.819C307.972 309.735 309.961 310.201 311.105 310.395C311.105 310.395 311.123 310.395 311.132 310.395L311.123 310.404ZM308.016 307.966C308.579 307.983 309.803 309.084 310.665 309.981C309.116 309.665 308.051 309.189 307.787 308.67C307.69 308.485 307.69 308.3 307.787 308.098C307.822 308.018 307.875 307.983 307.945 307.966C307.963 307.966 307.989 307.966 308.016 307.966Z" fill="#A579E1"/>
<path d="M311.107 310.397C311.107 310.397 311.143 310.397 311.151 310.397C311.213 310.379 311.257 310.335 311.275 310.282C311.292 310.203 311.803 308.363 311.231 307.351C311.055 307.043 310.799 306.84 310.465 306.752C310.016 306.629 309.813 306.805 309.717 306.964C309.312 307.659 310.342 309.692 311.002 310.353C311.028 310.379 311.072 310.397 311.116 310.405L311.107 310.397ZM310.201 307.034C310.245 307.034 310.306 307.043 310.377 307.06C310.623 307.131 310.808 307.272 310.94 307.501C311.319 308.161 311.143 309.314 311.028 309.869C310.403 309.067 309.761 307.536 310.007 307.113C310.025 307.087 310.06 307.025 310.21 307.025L310.201 307.034Z" fill="#A579E1"/>
<path d="M304.76 97.1094C307.216 101.511 309.434 105.895 311.564 110.41C313.659 114.935 315.658 119.512 317.401 124.301C317.832 125.498 318.254 126.713 318.642 127.945L318.95 128.905C319.099 129.407 319.223 129.917 319.302 130.428C319.469 131.458 319.496 132.479 319.399 133.438C319.205 135.366 318.615 137.021 317.929 138.456C317.233 139.9 316.388 141.132 315.517 142.268C313.756 144.53 311.784 146.361 309.733 148.016C308.712 148.843 307.647 149.609 306.573 150.322C305.482 151.053 304.434 151.713 303.21 152.373L300.129 148.06C300.887 147.276 301.74 146.405 302.515 145.551C303.298 144.688 304.056 143.799 304.786 142.928C306.239 141.167 307.559 139.345 308.563 137.549C309.548 135.78 310.165 133.949 310.041 132.893C310.015 132.629 309.98 132.417 309.909 132.241C309.883 132.153 309.839 132.074 309.804 131.995L309.487 131.229C309.064 130.155 308.607 129.081 308.122 128.007C306.239 123.694 304.108 119.38 301.952 115.093C299.795 110.806 297.568 106.467 295.367 102.25L304.769 97.1182L304.76 97.1094Z" fill="#F4C9CB"/>
<path d="M302.811 92.9474C309.333 94.9632 314.738 112.005 314.738 112.005L300.539 119.963C300.539 119.963 296.613 112.789 293.524 104.514C290.161 95.5002 294.914 90.5002 302.811 92.9474Z" fill="#263238"/>
<path d="M302.213 146.977L295.531 149.529L300.716 156.36C300.716 156.36 306.482 153.315 305.355 149.987L302.204 146.977H302.213Z" fill="#F4C9CB"/>
<path d="M292.458 156.292L294.676 158.378C295.557 159.205 296.912 159.276 297.881 158.536L300.724 156.362L295.539 149.531L292.388 152.753C291.419 153.748 291.446 155.341 292.458 156.292Z" fill="#F4C9CB"/>
<path d="M167.257 56.1484H159.625V57.0287H167.257V56.1484Z" fill="#A579E1"/>
<path d="M150.969 56.1484H133.953V57.0287H150.969V56.1484Z" fill="#A579E1"/>
<path d="M226.572 272.64H125.358C119.337 272.64 114.064 267.71 113.65 261.689L100.463 70.185C100.05 64.1639 104.636 59.2344 110.666 59.2344H211.88C217.901 59.2344 223.174 64.1639 223.588 70.185L236.774 261.689C237.188 267.71 232.602 272.64 226.572 272.64Z" fill="white"/>
<path d="M211.872 60.1068C217.462 60.1068 222.312 64.6491 222.7 70.2388L235.886 261.743C236.071 264.419 235.2 266.928 233.43 268.829C231.67 270.722 229.231 271.761 226.564 271.761H125.35C119.76 271.761 114.91 267.218 114.522 261.629L101.336 70.1244C101.151 67.4484 102.022 64.9396 103.792 63.0382C105.552 61.1456 107.991 60.1068 110.658 60.1068H211.872ZM211.872 59.2266H110.658C104.637 59.2266 100.042 64.1561 100.456 70.1772L113.642 261.681C114.056 267.703 119.329 272.632 125.35 272.632H226.564C232.585 272.632 237.18 267.703 236.766 261.681L223.58 70.1772C223.166 64.1561 217.893 59.2266 211.872 59.2266Z" fill="#A579E1"/>
<path d="M230.759 272.64H129.545C123.524 272.64 118.251 267.71 117.837 261.689L104.651 70.185C104.237 64.1639 108.823 59.2344 114.853 59.2344H216.068C222.089 59.2344 227.362 64.1639 227.775 70.185L240.962 261.689C241.376 267.71 236.789 272.64 230.759 272.64Z" fill="#A579E1"/>
<path d="M195.557 149.816H150.354C148.268 149.816 146.411 148.231 146.067 146.154L141.199 117.157C140.794 114.772 142.529 112.703 144.932 112.703H195.882C198.285 112.703 200.301 114.772 200.231 117.157L199.359 146.154C199.298 148.231 197.66 149.816 195.574 149.816H195.557Z" fill="white"/>
<path d="M195.555 151.136H150.353C147.624 151.136 145.212 149.094 144.763 146.374L139.895 117.377C139.64 115.846 140.045 114.314 141.022 113.17C141.981 112.034 143.407 111.383 144.93 111.383H195.881C197.386 111.383 198.865 112.017 199.939 113.126C201.004 114.226 201.594 115.714 201.55 117.201L200.678 146.198C200.59 148.971 198.354 151.136 195.573 151.136H195.555ZM144.921 114.024C144.164 114.024 143.495 114.323 143.029 114.878C142.553 115.441 142.369 116.172 142.492 116.946L147.36 145.942C147.597 147.377 148.909 148.495 150.344 148.495H195.546C196.911 148.495 197.967 147.474 198.011 146.119L198.882 117.122C198.909 116.339 198.592 115.555 198.02 114.966C197.439 114.367 196.655 114.024 195.863 114.024H144.913H144.921Z" fill="white"/>
<path d="M199.345 147.469C199.345 147.469 199.318 147.469 199.301 147.469C198.57 147.452 197.998 146.836 198.024 146.114L199.354 102.021C199.371 101.537 199.644 101.096 200.075 100.885C200.507 100.665 201.026 100.7 201.422 100.982L209.362 106.475C209.961 106.889 210.111 107.716 209.697 108.315C209.283 108.913 208.456 109.063 207.857 108.649L201.915 104.538L200.656 146.202C200.639 146.915 200.049 147.487 199.336 147.487L199.345 147.469Z" fill="white"/>
<path d="M168.608 163.303C168.89 167.431 165.774 170.785 161.645 170.785C157.517 170.785 153.934 167.431 153.644 163.303C153.353 159.174 156.478 155.82 160.607 155.82C164.735 155.82 168.318 159.174 168.608 163.303Z" fill="white"/>
<path d="M161.641 171.352C157.222 171.352 153.375 167.752 153.067 163.333C152.917 161.167 153.621 159.134 155.056 157.602C156.482 156.079 158.454 155.234 160.611 155.234C165.03 155.234 168.876 158.835 169.184 163.254C169.334 165.419 168.63 167.453 167.195 168.984C165.769 170.507 163.797 171.352 161.641 171.352ZM160.611 156.388C158.78 156.388 157.098 157.101 155.901 158.386C154.695 159.68 154.097 161.414 154.22 163.254C154.484 167.083 157.811 170.199 161.641 170.199C163.472 170.199 165.144 169.486 166.35 168.201C167.556 166.907 168.155 165.182 168.031 163.333C167.767 159.504 164.44 156.388 160.611 156.388Z" fill="white"/>
<path d="M193.312 163.303C193.593 167.431 190.477 170.785 186.349 170.785C182.22 170.785 178.637 167.431 178.347 163.303C178.056 159.174 181.181 155.82 185.31 155.82C189.438 155.82 193.021 159.174 193.312 163.303Z" fill="white"/>
<path d="M186.351 171.352C181.932 171.352 178.086 167.752 177.778 163.333C177.628 161.167 178.332 159.134 179.767 157.602C181.193 156.079 183.165 155.234 185.322 155.234C189.741 155.234 193.587 158.835 193.895 163.254C194.045 165.419 193.341 167.453 191.906 168.984C190.48 170.507 188.508 171.352 186.351 171.352ZM185.322 156.388C183.491 156.388 181.818 157.101 180.612 158.386C179.406 159.68 178.807 161.405 178.931 163.254C179.195 167.083 182.522 170.199 186.351 170.199C188.182 170.199 189.864 169.486 191.061 168.201C192.267 166.907 192.866 165.173 192.742 163.333C192.478 159.504 189.151 156.388 185.322 156.388Z" fill="white"/>
<path d="M187.76 101.724C188.464 111.953 180.744 120.245 170.506 120.245C160.268 120.245 151.413 111.953 150.709 101.724C150.004 91.4953 157.724 83.2031 167.962 83.2031C178.2 83.2031 187.055 91.4953 187.76 101.724Z" fill="#A579E1"/>
<path d="M170.254 117.279C161.706 117.279 154.277 110.325 153.687 101.786C153.396 97.6223 154.761 93.6963 157.507 90.7473C160.254 87.8072 164.048 86.1875 168.203 86.1875C176.75 86.1875 184.18 93.1417 184.769 101.68C185.06 105.844 183.696 109.77 180.949 112.719C178.203 115.659 174.409 117.279 170.254 117.279ZM168.211 87.6047C164.453 87.6047 161.02 89.066 158.546 91.7156C156.064 94.3741 154.84 97.9216 155.095 101.689C155.632 109.506 162.437 115.87 170.254 115.87C174.012 115.87 177.446 114.409 179.919 111.76C182.401 109.101 183.625 105.554 183.37 101.786C182.833 93.9691 176.028 87.6047 168.211 87.6047Z" fill="white"/>
<path d="M158.898 101.017C158.898 101.017 165.386 104.521 168.414 109.028C170.052 105.506 172.552 100.612 179.303 95.1016C170.738 98.7283 168.106 104.503 168.106 104.503C168.106 104.503 164.594 101.598 158.898 101.008V101.017Z" fill="white"/>
<path d="M179.768 267.026C176.07 267.026 172.857 264.024 172.602 260.327C172.479 258.531 173.06 256.832 174.248 255.565C175.428 254.297 177.074 253.602 178.87 253.602C182.567 253.602 185.78 256.603 186.035 260.3C186.158 262.096 185.577 263.795 184.389 265.063C183.201 266.33 181.563 267.026 179.768 267.026ZM178.87 254.042C177.197 254.042 175.674 254.693 174.574 255.873C173.474 257.052 172.928 258.628 173.042 260.309C173.28 263.778 176.299 266.603 179.768 266.603C181.44 266.603 182.963 265.952 184.063 264.772C185.164 263.593 185.709 262.017 185.595 260.344C185.357 256.876 182.338 254.051 178.87 254.051V254.042Z" fill="white"/>
<path d="M187.08 197.14L178.048 199.499L158.523 217.025L177.969 233.231L194.456 218.381C196.904 216.154 198.312 212.993 198.382 209.578L205.442 205.766C208.347 204.199 208.937 200.291 206.675 197.597L201.349 191.259C199.175 188.671 195.345 188.416 193.171 190.705L187.088 197.131L187.08 197.14Z" fill="#A579E1"/>
<path d="M177.972 233.73L157.945 217.049L177.945 199.153L186.871 196.82L192.884 190.474C193.957 189.347 195.428 188.739 197.038 188.792C198.79 188.845 200.454 189.664 201.616 191.046L206.942 197.384C208.148 198.81 208.64 200.641 208.306 202.393C207.998 203.995 207.012 205.35 205.595 206.116L198.729 209.822C198.605 213.273 197.179 216.407 194.688 218.669L177.963 233.73H177.972ZM159.081 217.023L177.945 232.744L194.195 218.114C196.581 215.949 197.936 212.912 197.998 209.584V209.364L205.251 205.447C206.493 204.778 207.32 203.643 207.584 202.234C207.875 200.702 207.434 199.1 206.378 197.841L201.052 191.503C200.031 190.289 198.561 189.567 197.03 189.523C195.648 189.47 194.362 189.998 193.438 190.967L187.285 197.463L178.236 199.831L159.098 217.014L159.081 217.023Z" fill="white"/>
<path d="M196.978 217.944L195.842 217.046L177.585 202.46C175.164 200.524 172.365 199.133 169.407 198.385L164.548 197.161L157.576 190.744C155.085 188.455 151.3 188.71 149.478 191.298L145.024 197.636C143.131 200.321 144.267 204.238 147.383 205.805L154.962 209.617C155.499 213.032 157.339 216.193 160.094 218.42L178.624 233.27H178.633L180.111 234.45C181.476 235.532 183.421 235.365 184.407 234.001C185.34 232.707 184.909 230.796 183.562 229.731L185.393 231.184C186.546 232.099 188.166 232.222 189.249 231.369C190.745 230.18 190.613 227.865 189.055 226.633L190.076 227.443C191.229 228.358 192.858 228.481 193.932 227.627C195.428 226.43 195.296 224.124 193.738 222.891L193.509 222.715C194.874 223.798 196.819 223.631 197.805 222.266C198.738 220.972 198.307 219.062 196.96 217.997L196.978 217.944Z" fill="white"/>
<path d="M188.452 205.783C188.452 205.783 185.741 208.019 181.295 208.45C181.295 208.45 177.589 208.477 175.626 210.457C173.012 213.098 167.73 214.639 166.472 211.91C165.838 210.536 170.6 207.438 173.091 202.447C174.843 198.943 180.45 197.702 187.07 197.156" fill="#A579E1"/>
<path d="M169.181 213.638C168.89 213.638 168.609 213.612 168.345 213.568C167.323 213.392 166.584 212.855 166.197 212.028C165.801 211.174 166.795 210.073 168.301 208.41C169.753 206.807 171.566 204.809 172.816 202.3C174.797 198.348 181.452 197.309 187.042 196.852L187.094 197.45C181.663 197.899 175.202 198.885 173.362 202.573C172.077 205.153 170.228 207.186 168.75 208.815C167.552 210.135 166.514 211.279 166.742 211.781C167.042 212.432 167.614 212.837 168.45 212.978C170.44 213.33 173.565 212.098 175.413 210.241C177.438 208.198 181.135 208.146 181.293 208.146C185.554 207.741 188.23 205.575 188.256 205.549L188.635 206.015C188.521 206.112 185.8 208.313 181.32 208.744C181.258 208.744 177.684 208.797 175.836 210.663C174.075 212.441 171.32 213.638 169.181 213.638Z" fill="white"/>
<path d="M161.616 222.654L164.556 220.04C165.868 218.869 165.771 216.738 164.354 215.497C163.166 214.467 161.449 214.423 160.357 215.4L157.417 218.015C156.106 219.186 156.203 221.316 157.62 222.557C158.808 223.587 160.525 223.631 161.616 222.654Z" fill="#A579E1"/>
<path d="M159.726 223.744C158.899 223.744 158.063 223.444 157.376 222.854C156.584 222.168 156.117 221.182 156.117 220.161C156.117 219.219 156.487 218.365 157.174 217.749L160.114 215.134C161.346 214.034 163.283 214.078 164.603 215.222C165.395 215.909 165.862 216.895 165.862 217.916C165.862 218.858 165.492 219.712 164.806 220.328L161.865 222.942C161.267 223.479 160.501 223.744 159.726 223.744ZM162.253 215.082C161.654 215.082 161.064 215.284 160.607 215.698L157.666 218.312C157.147 218.779 156.857 219.43 156.865 220.161C156.865 220.971 157.235 221.745 157.869 222.291C158.916 223.198 160.422 223.242 161.381 222.388L164.321 219.773C164.841 219.307 165.131 218.656 165.122 217.925C165.122 217.115 164.753 216.34 164.119 215.795C163.573 215.319 162.904 215.082 162.253 215.082Z" fill="white"/>
<path d="M165.617 227.47L169.174 224.31C170.424 223.192 170.406 221.194 169.138 219.926C167.959 218.755 166.128 218.641 164.966 219.68L161.41 222.84C160.098 224.011 160.195 226.141 161.612 227.382C162.8 228.412 164.517 228.456 165.608 227.479L165.617 227.47Z" fill="#A579E1"/>
<path d="M163.719 228.534C162.891 228.534 162.055 228.235 161.368 227.645C160.576 226.958 160.109 225.972 160.109 224.951C160.109 224.009 160.479 223.155 161.166 222.539L164.722 219.379C166.025 218.217 168.085 218.332 169.405 219.643C170.118 220.347 170.505 221.307 170.479 222.275C170.453 223.173 170.083 223.983 169.432 224.564L165.875 227.724C165.277 228.261 164.511 228.525 163.736 228.525L163.719 228.534ZM166.852 219.326C166.254 219.326 165.664 219.529 165.206 219.942L161.65 223.103C161.13 223.569 160.84 224.221 160.849 224.951C160.849 225.761 161.219 226.536 161.852 227.082C162.9 227.988 164.405 228.032 165.365 227.178L168.921 224.018C169.423 223.578 169.704 222.953 169.722 222.258C169.74 221.492 169.432 220.735 168.868 220.171C168.305 219.608 167.565 219.317 166.852 219.317V219.326Z" fill="white"/>
<path d="M170.819 231.209L173.76 228.594C175.071 227.423 174.974 225.293 173.557 224.052C172.369 223.022 170.652 222.978 169.561 223.955L166.62 226.57C165.309 227.74 165.406 229.871 166.823 231.112C168.011 232.142 169.728 232.186 170.819 231.209Z" fill="#A579E1"/>
<path d="M168.929 232.283C168.102 232.283 167.266 231.983 166.579 231.394C165.787 230.707 165.32 229.721 165.32 228.7C165.32 227.758 165.69 226.904 166.377 226.288L169.317 223.673C170.549 222.573 172.486 222.617 173.806 223.762C174.598 224.448 175.065 225.434 175.065 226.455C175.065 227.397 174.695 228.251 174.009 228.867L171.069 231.482C170.47 232.019 169.704 232.283 168.929 232.283ZM171.456 223.621C170.857 223.621 170.267 223.823 169.81 224.237L166.87 226.851C166.35 227.318 166.06 227.978 166.069 228.7C166.069 229.51 166.438 230.284 167.072 230.83C168.12 231.737 169.625 231.781 170.584 230.927L173.524 228.313C174.044 227.846 174.334 227.186 174.326 226.464C174.326 225.654 173.956 224.879 173.322 224.334C172.776 223.858 172.107 223.621 171.456 223.621Z" fill="white"/>
<path d="M176.648 234.414L179.693 231.659C181.031 230.444 180.864 228.243 179.35 227.055C178.17 226.122 176.542 226.131 175.494 227.064L172.449 229.775C171.137 230.946 171.234 233.076 172.651 234.317C173.839 235.347 175.556 235.391 176.648 234.414Z" fill="#A579E1"/>
<path d="M174.742 235.489C173.914 235.489 173.078 235.19 172.392 234.6C171.599 233.914 171.133 232.928 171.133 231.906C171.133 230.965 171.503 230.111 172.189 229.495L175.235 226.783C176.423 225.727 178.237 225.718 179.566 226.757C180.411 227.426 180.921 228.403 180.957 229.451C180.992 230.401 180.613 231.308 179.927 231.924L176.881 234.679C176.282 235.216 175.517 235.48 174.742 235.48V235.489ZM177.365 226.73C176.767 226.73 176.186 226.933 175.728 227.338L172.682 230.049C172.163 230.516 171.872 231.167 171.881 231.898C171.881 232.708 172.251 233.482 172.885 234.028C173.932 234.935 175.437 234.979 176.397 234.125L179.434 231.378C179.962 230.894 180.244 230.225 180.217 229.477C180.191 228.649 179.786 227.866 179.108 227.338C178.589 226.924 177.973 226.722 177.365 226.722V226.73Z" fill="white"/>
<g opacity="0.2">
<path d="M127.915 248.652C124.79 248.652 122.07 246.108 121.85 242.983L110.38 76.4346C110.169 73.3096 112.537 70.7656 115.662 70.7656H216.876C220.001 70.7656 222.721 73.3096 222.941 76.4346L234.411 242.983C234.623 246.108 232.255 248.652 229.13 248.652H127.915Z" fill="white"/>
<path d="M229.124 248.873H127.909C124.67 248.873 121.853 246.241 121.624 243.002L110.154 76.4535C110.049 74.8778 110.559 73.3902 111.607 72.2722C112.645 71.1543 114.089 70.5469 115.656 70.5469H216.87C220.11 70.5469 222.927 73.1877 223.155 76.4271L234.625 242.976C234.731 244.551 234.221 246.039 233.173 247.157C232.134 248.275 230.691 248.882 229.124 248.882V248.873ZM115.656 70.9782C114.204 70.9782 112.883 71.5416 111.924 72.5627C110.964 73.5926 110.489 74.9571 110.594 76.4095L122.064 242.958C122.276 245.968 124.89 248.424 127.909 248.424H229.124C230.576 248.424 231.897 247.861 232.856 246.84C233.816 245.81 234.291 244.446 234.185 242.993L222.715 76.4447C222.504 73.4342 219.89 70.9782 216.87 70.9782H115.656Z" fill="white"/>
</g>
</g>
<defs>
<clipPath id="clip0_6555_9066">
<rect width="440.139" height="328" fill="white"/>
</clipPath>
</defs>
</svg>
