<svg width="441" height="328" viewBox="0 0 441 328" fill="none" xmlns="http://www.w3.org/2000/svg">
<path d="M0.00283813 288.234H440.188V288.454H0.00283813V288.234Z" fill="#EBEBEB"/>
<path d="M44.1078 302.406H73.2656V302.626H44.1078V302.406Z" fill="#EBEBEB"/>
<path d="M148.584 304.797H156.234V305.017H148.584V304.797Z" fill="#EBEBEB"/>
<path d="M74.1448 294.227H91.0391V294.447H74.1448V294.227Z" fill="#EBEBEB"/>
<path d="M355.977 295.719H394V295.939H355.977V295.719Z" fill="#EBEBEB"/>
<path d="M342.56 295.719H348.133V295.939H342.56V295.719Z" fill="#EBEBEB"/>
<path d="M241.965 299.422H324.438V299.642H241.965V299.422Z" fill="#EBEBEB"/>
<path d="M231.546 248.968H401.537C402.868 248.966 404.145 248.435 405.085 247.493C406.026 246.551 406.555 245.273 406.555 243.942V4.98289C406.543 3.65884 406.01 2.39282 405.07 1.45984C404.13 0.526864 402.861 0.00226817 401.537 0H231.546C230.213 0 228.934 0.529619 227.992 1.47235C227.049 2.41508 226.519 3.69369 226.519 5.02691V243.942C226.519 245.275 227.049 246.553 227.992 247.496C228.934 248.439 230.213 248.968 231.546 248.968ZM401.537 0.176075C402.81 0.178407 404.03 0.685865 404.93 1.58707C405.829 2.48827 406.335 3.70957 406.335 4.98289V243.942C406.335 245.215 405.829 246.436 404.93 247.337C404.03 248.239 402.81 248.746 401.537 248.748H231.546C230.272 248.746 229.051 248.239 228.15 247.338C227.249 246.437 226.742 245.216 226.739 243.942V4.98289C226.742 3.70876 227.249 2.48748 228.15 1.58653C229.051 0.685579 230.272 0.178402 231.546 0.176075H401.537Z" fill="#EBEBEB"/>
<path d="M41.1066 248.968H211.106C212.438 248.966 213.716 248.436 214.658 247.494C215.6 246.551 216.13 245.274 216.133 243.942V4.98289C216.119 3.65803 215.583 2.39203 214.642 1.45929C213.701 0.526556 212.431 0.00224344 211.106 0H41.1066C39.784 0.00458188 38.5165 0.530202 37.5789 1.46293C36.6412 2.39567 36.1089 3.66036 36.0973 4.98289V243.942C36.0973 245.272 36.6245 246.548 37.5634 247.49C38.5023 248.432 39.7764 248.964 41.1066 248.968ZM211.106 0.176075C212.38 0.178402 213.601 0.685579 214.502 1.58653C215.403 2.48748 215.91 3.70876 215.913 4.98289V243.942C215.91 245.216 215.403 246.437 214.502 247.338C213.601 248.239 212.38 248.746 211.106 248.748H41.1066C39.8325 248.746 38.6112 248.239 37.7102 247.338C36.8093 246.437 36.3021 245.216 36.2998 243.942V4.98289C36.3021 3.70876 36.8093 2.48748 37.7102 1.58653C38.6112 0.685579 39.8325 0.178402 41.1066 0.176075H211.106Z" fill="#EBEBEB"/>
<path d="M348.942 278.555H392.652C394.704 278.555 396.367 280.218 396.367 282.27V306.181C396.367 308.233 394.704 309.896 392.652 309.896H348.942C346.89 309.896 345.227 308.233 345.227 306.181V282.27C345.227 280.218 346.89 278.555 348.942 278.555Z" fill="#EBEBEB"/>
<path d="M380.581 291.015H391.841C392.032 291.015 392.216 290.939 392.351 290.804C392.486 290.668 392.562 290.485 392.562 290.293C392.563 290.101 392.487 289.916 392.352 289.78C392.216 289.643 392.033 289.565 391.841 289.562H380.581C380.387 289.562 380.201 289.639 380.064 289.777C379.927 289.914 379.85 290.099 379.85 290.293C379.852 290.485 379.93 290.669 380.067 290.804C380.204 290.939 380.388 291.015 380.581 291.015Z" fill="#FAFAFA"/>
<path d="M348.713 283.329H359.973C360.166 283.326 360.349 283.248 360.484 283.111C360.62 282.975 360.695 282.79 360.695 282.598C360.695 282.406 360.62 282.221 360.484 282.084C360.349 281.947 360.166 281.87 359.973 281.867H348.713C348.52 281.867 348.334 281.944 348.197 282.081C348.06 282.218 347.983 282.404 347.983 282.598C347.983 282.792 348.06 282.978 348.197 283.115C348.334 283.252 348.52 283.329 348.713 283.329Z" fill="#FAFAFA"/>
<path d="M380.581 306.36H391.841C392.033 306.358 392.216 306.28 392.352 306.143C392.487 306.006 392.563 305.821 392.562 305.629C392.563 305.437 392.487 305.252 392.352 305.116C392.216 304.979 392.033 304.901 391.841 304.898H380.581C380.387 304.898 380.201 304.975 380.064 305.112C379.927 305.249 379.85 305.435 379.85 305.629C379.85 305.823 379.927 306.009 380.064 306.146C380.201 306.283 380.387 306.36 380.581 306.36Z" fill="#FAFAFA"/>
<path d="M388.874 294.609H391.841C392.033 294.607 392.216 294.529 392.352 294.392C392.487 294.255 392.563 294.07 392.562 293.878C392.562 293.687 392.486 293.503 392.351 293.368C392.216 293.232 392.032 293.156 391.841 293.156H388.874C388.682 293.156 388.499 293.232 388.363 293.368C388.228 293.503 388.152 293.687 388.152 293.878C388.152 294.07 388.228 294.255 388.363 294.392C388.498 294.529 388.681 294.607 388.874 294.609Z" fill="#FAFAFA"/>
<path d="M349.654 298.859H358.995C359.826 298.859 360.5 299.533 360.5 300.365V306.193C360.5 307.024 359.826 307.698 358.995 307.698H349.654C348.822 307.698 348.148 307.024 348.148 306.193V300.365C348.148 299.533 348.822 298.859 349.654 298.859Z" fill="#E0E0E0"/>
<path d="M259.113 86H296.838C298.136 86 299.188 87.0519 299.188 88.3495V109.651C299.188 110.948 298.136 112 296.838 112H259.113C257.815 112 256.764 110.948 256.764 109.651V88.3495C256.764 87.0519 257.815 86 259.113 86Z" fill="#EBEBEB"/>
<path d="M286.097 96.3459H295.433C295.514 96.3488 295.595 96.3355 295.671 96.3067C295.747 96.2779 295.816 96.2342 295.875 96.1781C295.934 96.1221 295.98 96.0548 296.013 95.9803C296.045 95.9059 296.062 95.8257 296.062 95.7446C296.061 95.6639 296.044 95.5843 296.011 95.5105C295.979 95.4367 295.932 95.3701 295.873 95.3146C295.814 95.2592 295.745 95.2159 295.67 95.1875C295.594 95.159 295.514 95.1459 295.433 95.1488H286.097C285.936 95.1488 285.781 95.2128 285.668 95.3266C285.554 95.4404 285.49 95.5948 285.49 95.7557C285.494 95.9137 285.56 96.0638 285.673 96.1741C285.787 96.2843 285.939 96.3459 286.097 96.3459Z" fill="#FAFAFA"/>
<path d="M259.658 89.9581H269C269.08 89.9581 269.158 89.9424 269.232 89.9118C269.305 89.8813 269.372 89.8365 269.427 89.7801C269.483 89.7236 269.527 89.6567 269.557 89.5831C269.587 89.5095 269.602 89.4307 269.602 89.3513C269.602 89.1918 269.538 89.0389 269.425 88.9261C269.313 88.8134 269.16 88.75 269 88.75H259.658C259.499 88.75 259.346 88.8134 259.233 88.9261C259.12 89.0389 259.057 89.1918 259.057 89.3513C259.056 89.4307 259.071 89.5095 259.101 89.5831C259.131 89.6567 259.175 89.7236 259.231 89.7801C259.287 89.8365 259.353 89.8813 259.427 89.9118C259.5 89.9424 259.579 89.9581 259.658 89.9581Z" fill="#FAFAFA"/>
<path d="M285.936 107.859H295.607C295.85 107.859 296.047 108.056 296.047 108.299V108.628C296.047 108.871 295.85 109.068 295.607 109.068H285.936C285.693 109.068 285.497 108.871 285.497 108.628V108.299C285.497 108.056 285.693 107.859 285.936 107.859Z" fill="#FAFAFA"/>
<path d="M292.978 99.3253H295.433C295.515 99.3283 295.596 99.3148 295.672 99.2857C295.749 99.2565 295.818 99.2123 295.877 99.1557C295.936 99.099 295.982 99.0311 296.014 98.956C296.046 98.8808 296.063 98.8001 296.062 98.7185C296.061 98.5585 295.996 98.4056 295.883 98.293C295.769 98.1804 295.616 98.1172 295.456 98.1172H293C292.841 98.1172 292.688 98.1805 292.575 98.2933C292.462 98.4061 292.399 98.559 292.399 98.7185C292.398 98.8751 292.457 99.0262 292.565 99.1395C292.673 99.2529 292.822 99.3195 292.978 99.3253Z" fill="#FAFAFA"/>
<path d="M260.145 102.844H268.485C269.011 102.844 269.438 103.27 269.438 103.796V109.224C269.438 109.75 269.011 110.176 268.485 110.176H260.145C259.62 110.176 259.193 109.75 259.193 109.224V103.796C259.193 103.27 259.62 102.844 260.145 102.844Z" fill="#E0E0E0"/>
<path d="M197.122 115.9V119H199.414V115.928C202.124 115.762 204.749 114.88 206.188 113.636L204.944 110.845C203.337 112.056 201.419 112.785 199.414 112.948V107.418C202.485 106.668 205.775 105.699 205.775 101.831C205.775 99.0115 203.729 96.5473 199.414 96.1347V93H197.122V96.0716C195.14 96.1556 193.211 96.7349 191.511 97.7564L192.657 100.553C194.029 99.7477 195.553 99.2382 197.133 99.0573V104.645C194.067 105.39 190.72 106.364 190.72 110.203C190.709 113.023 192.783 115.458 197.122 115.9ZM199.414 104.066V99.1719C201.379 99.4756 202.205 100.467 202.205 101.688C202.182 102.983 200.996 103.596 199.391 104.066H199.414ZM194.256 110.45C194.256 109.097 195.477 108.461 197.122 107.991V112.885C195.104 112.582 194.245 111.642 194.245 110.45H194.256Z" fill="#E0E0E0"/>
<path d="M107.122 254.9V258H109.414V254.928C112.124 254.762 114.749 253.88 116.188 252.636L114.944 249.845C113.337 251.056 111.419 251.785 109.414 251.948V246.418C112.485 245.668 115.775 244.699 115.775 240.831C115.775 238.011 113.729 235.547 109.414 235.135V232H107.122V235.072C105.14 235.156 103.211 235.735 101.511 236.756L102.657 239.553C104.029 238.748 105.553 238.238 107.133 238.057V243.645C104.067 244.39 100.72 245.364 100.72 249.203C100.709 252.023 102.783 254.458 107.122 254.9ZM109.414 243.066V238.172C111.379 238.476 112.205 239.467 112.205 240.688C112.182 241.983 110.996 242.596 109.391 243.066H109.414ZM104.256 249.45C104.256 248.097 105.477 247.461 107.122 246.991V251.885C105.104 251.582 104.245 250.642 104.245 249.45H104.256Z" fill="#E0E0E0"/>
<path d="M392.964 222.411C393.568 221.771 394.036 221.015 394.339 220.188C394.642 219.362 394.773 218.483 394.725 217.604C394.756 216.38 394.477 215.169 393.915 214.082C393.41 213.129 392.635 212.345 391.687 211.828C390.693 211.325 389.593 211.062 388.478 211.062C387.363 211.062 386.264 211.325 385.269 211.828C384.321 212.347 383.544 213.13 383.033 214.082C382.478 215.171 382.202 216.382 382.232 217.604C382.185 218.482 382.317 219.361 382.62 220.188C382.923 221.014 383.39 221.77 383.993 222.411C385.222 223.533 386.827 224.155 388.492 224.155C390.156 224.155 391.761 223.533 392.99 222.411H392.964ZM374.67 211.397H368.991L385.041 234.894H390.719L374.67 211.397ZM387.365 219.84C386.813 218.403 386.813 216.813 387.365 215.376C387.456 215.172 387.605 214.998 387.793 214.876C387.982 214.754 388.201 214.689 388.426 214.689C388.65 214.689 388.869 214.754 389.058 214.876C389.246 214.998 389.395 215.172 389.486 215.376C390.038 216.813 390.038 218.403 389.486 219.84C389.395 220.045 389.246 220.219 389.058 220.341C388.869 220.463 388.65 220.528 388.426 220.528C388.201 220.528 387.982 220.463 387.793 220.341C387.605 220.219 387.456 220.045 387.365 219.84ZM375.7 233.486C376.303 232.847 376.77 232.092 377.072 231.267C377.375 230.442 377.507 229.565 377.461 228.688C377.493 227.465 377.218 226.254 376.659 225.166C376.153 224.212 375.375 223.431 374.423 222.921C373.431 222.414 372.333 222.15 371.219 222.15C370.105 222.15 369.006 222.414 368.014 222.921C367.063 223.431 366.284 224.212 365.778 225.166C365.217 226.253 364.938 227.464 364.968 228.688C364.922 229.565 365.054 230.442 365.357 231.267C365.66 232.092 366.126 232.846 366.729 233.486C367.956 234.612 369.562 235.236 371.228 235.236C372.893 235.236 374.499 234.612 375.726 233.486H375.7ZM370.145 230.915C369.581 229.48 369.581 227.886 370.145 226.451C370.235 226.246 370.382 226.071 370.57 225.949C370.758 225.826 370.977 225.761 371.201 225.761C371.425 225.761 371.645 225.826 371.832 225.949C372.02 226.071 372.168 226.246 372.258 226.451C372.821 227.886 372.821 229.48 372.258 230.915C372.168 231.12 372.02 231.295 371.832 231.418C371.645 231.54 371.425 231.606 371.201 231.606C370.977 231.606 370.758 231.54 370.57 231.418C370.382 231.295 370.235 231.12 370.145 230.915Z" fill="#E0E0E0"/>
<path d="M146.304 159.19C146.948 158.501 147.446 157.689 147.768 156.802C148.09 155.915 148.229 154.973 148.177 154.031C148.213 152.714 147.915 151.409 147.31 150.239C146.767 149.215 145.932 148.375 144.911 147.826C143.844 147.283 142.663 147 141.465 147C140.268 147 139.087 147.283 138.02 147.826C137.001 148.379 136.167 149.218 135.62 150.239C135.021 151.411 134.725 152.715 134.761 154.031C134.706 154.973 134.844 155.915 135.164 156.802C135.485 157.689 135.983 158.501 136.627 159.19C137.949 160.395 139.673 161.063 141.462 161.063C143.251 161.063 144.975 160.395 146.297 159.19H146.304ZM126.629 147.353H120.531L137.773 172.606H143.871L126.629 147.353ZM140.332 156.457C139.728 154.915 139.728 153.201 140.332 151.659C140.429 151.437 140.588 151.249 140.79 151.117C140.991 150.985 141.227 150.914 141.469 150.914C141.71 150.914 141.946 150.985 142.148 151.117C142.35 151.249 142.509 151.437 142.605 151.659C143.201 153.203 143.201 154.913 142.605 156.457C142.509 156.678 142.35 156.867 142.148 156.999C141.946 157.131 141.71 157.201 141.469 157.201C141.227 157.201 140.991 157.131 140.79 156.999C140.588 156.867 140.429 156.678 140.332 156.457ZM127.796 171.12C128.44 170.431 128.938 169.619 129.26 168.732C129.581 167.846 129.721 166.903 129.669 165.961C129.705 164.646 129.407 163.344 128.802 162.176C128.261 161.148 127.426 160.306 126.403 159.756C125.337 159.213 124.157 158.93 122.96 158.93C121.764 158.93 120.584 159.213 119.518 159.756C118.495 160.306 117.66 161.148 117.119 162.176C116.514 163.344 116.216 164.646 116.252 165.961C116.199 166.903 116.337 167.846 116.659 168.733C116.981 169.62 117.48 170.432 118.125 171.12C119.445 172.329 121.17 173 122.96 173C124.751 173 126.476 172.329 127.796 171.12ZM121.797 168.361C121.193 166.818 121.193 165.104 121.797 163.562C121.894 163.341 122.053 163.153 122.255 163.02C122.456 162.888 122.692 162.818 122.934 162.818C123.175 162.818 123.411 162.888 123.613 163.02C123.815 163.153 123.974 163.341 124.07 163.562C124.674 165.104 124.674 166.818 124.07 168.361C123.974 168.582 123.815 168.77 123.613 168.902C123.411 169.034 123.175 169.105 122.934 169.105C122.692 169.105 122.456 169.034 122.255 168.902C122.053 168.77 121.894 168.582 121.797 168.361Z" fill="#E7E7E7"/>
<path d="M220.086 328.002C125.814 328.002 49.3916 323.54 49.3916 318.036C49.3916 312.532 125.814 308.07 220.086 308.07C314.359 308.07 390.781 312.532 390.781 318.036C390.781 323.54 314.359 328.002 220.086 328.002Z" fill="#F5F5F5"/>
<path d="M354.005 121.555C356.822 121.555 359.525 124.099 361.18 128.827C362.835 133.554 361.646 140.421 361.418 143.661C361.189 146.901 362.844 151.584 362.844 151.584C359.014 148.459 356.408 144.541 355.968 139.144C355.569 141.307 355.702 143.533 356.355 145.633C354.084 143.641 352.299 141.157 351.135 138.37C349.022 133.528 349.26 126.652 349.26 126.652C349.26 126.652 351.179 121.555 354.005 121.555Z" fill="#263238"/>
<path d="M356.031 127.316C356.145 129.79 355.15 134.359 349.076 130.265C343.001 126.172 350.132 123.706 353.046 124.288C353.816 124.373 354.533 124.721 355.076 125.272C355.619 125.824 355.957 126.545 356.031 127.316Z" fill="#A579E1"/>
<path d="M353.101 127.582C353.875 132.644 351.454 137.266 349.984 143.323C348.514 149.38 349.755 150.718 349.755 150.718C349.755 150.718 336.867 148.693 330.158 136.791C323.45 124.888 335.555 117.053 343.012 119.377C346.683 117.537 352.335 122.652 353.101 127.582Z" fill="#263238"/>
<path d="M321.779 156.617C321.709 157.295 321.603 158.123 321.507 158.889C321.41 159.654 321.278 160.456 321.154 161.23C320.89 162.797 320.6 164.356 320.274 165.905C319.948 167.455 319.552 168.978 319.138 170.492C318.725 172.006 318.258 173.494 317.677 174.938L317.474 175.475L317.369 175.748L317.29 175.941C317.24 176.072 317.181 176.198 317.114 176.32C317.054 176.46 316.983 176.595 316.902 176.725C316.556 177.336 316.171 177.924 315.749 178.486C314.797 179.699 313.777 180.857 312.694 181.954C310.484 184.226 308.054 186.453 305.651 188.592L307.561 191.453C310.614 189.867 313.519 188.011 316.242 185.907C317.657 184.815 318.99 183.62 320.23 182.333C320.905 181.633 321.526 180.882 322.088 180.088C322.242 179.875 322.386 179.655 322.519 179.428C322.668 179.198 322.803 178.96 322.924 178.714L323.118 178.345L323.258 178.045L323.54 177.438C325.005 174.247 326.166 170.925 327.009 167.516C327.431 165.826 327.801 164.127 328.083 162.419C328.224 161.538 328.356 160.702 328.47 159.831C328.585 158.959 328.664 158.131 328.734 157.189L321.779 156.617Z" fill="#F4C9CB"/>
<path d="M324.199 150.128C321.857 150.718 320.219 160.358 320.219 160.358L326.672 164.76C326.672 164.76 332.835 155.076 331.074 152.435C329.314 149.794 327.614 149.257 324.199 150.128Z" fill="#A579E1"/>
<g opacity="0.5">
<path d="M324.199 150.128C321.857 150.718 320.219 160.358 320.219 160.358L326.672 164.76C326.672 164.76 332.835 155.076 331.074 152.435C329.314 149.794 327.614 149.257 324.199 150.128Z" fill="white"/>
</g>
<path opacity="0.2" d="M324.417 152.312L322.657 161.997L323.537 162.622V163.229C323.663 166.891 324.11 170.536 324.875 174.119L326.345 170.202L327.648 165.104L326.205 164.453L324.417 152.312Z" fill="black"/>
<path d="M304.559 188.701L300.157 190.409L305.105 193.393C305.105 193.393 308.265 191.562 308.186 189.203L307.702 188.93C307.227 188.662 306.699 188.502 306.156 188.463C305.613 188.423 305.067 188.505 304.559 188.701Z" fill="#F4C9CB"/>
<path d="M297.441 193.629L301.165 196.728L305.109 193.383L300.162 190.398L297.441 193.629Z" fill="#F4C9CB"/>
<path d="M324.192 150.139C324.192 150.139 321.489 151.089 326.912 184.42H349.978C349.59 175.027 349.511 169.234 353.992 149.963C350.799 149.302 347.563 148.872 344.308 148.677C340.82 148.43 337.32 148.43 333.832 148.677C329.263 149.091 324.192 150.139 324.192 150.139Z" fill="#A579E1"/>
<g opacity="0.4">
<path d="M324.192 150.139C324.192 150.139 321.489 151.089 326.912 184.42H349.978C349.59 175.027 349.511 169.234 353.992 149.963C350.799 149.302 347.563 148.872 344.308 148.677C340.82 148.43 337.32 148.43 333.832 148.677C329.263 149.091 324.192 150.139 324.192 150.139Z" fill="white"/>
</g>
<path opacity="0.2" d="M351.441 161.801L349.293 162.426L348.554 160.859C348.554 160.859 336.581 164.997 331.369 163.007C328.006 161.722 326.817 160.428 326.817 160.428L352.102 158.57L351.441 161.801Z" fill="black"/>
<path d="M342.438 312.278H336.75L334.426 299.125H340.105L342.438 312.278Z" fill="#F4C9CB"/>
<path d="M336.295 311.656H342.678C342.788 311.653 342.896 311.691 342.981 311.762C343.065 311.834 343.12 311.934 343.135 312.044L343.857 317.088C343.876 317.215 343.868 317.343 343.832 317.466C343.797 317.588 343.735 317.702 343.651 317.798C343.567 317.894 343.464 317.971 343.347 318.024C343.231 318.076 343.104 318.102 342.977 318.101C340.75 318.101 339.675 317.933 336.876 317.933C335.115 317.933 330.185 318.11 327.799 318.11C325.413 318.11 325.29 315.759 326.285 315.539C330.74 314.588 333.874 313.268 335.379 312.017C335.635 311.797 335.958 311.67 336.295 311.656Z" fill="#263238"/>
<g opacity="0.2">
<path d="M334.436 299.133L335.633 305.912H341.32L340.123 299.133H334.436Z" fill="black"/>
</g>
<path d="M344.219 148.684C340.735 148.428 337.236 148.428 333.752 148.684L333.065 148.746C332.185 150.33 332.017 152.769 334.025 156.343C334.025 156.343 343.207 152.646 345.602 148.772C345.179 148.737 344.721 148.702 344.219 148.684Z" fill="#F4C9CB"/>
<path d="M326.919 184.414C326.919 184.414 322.438 228.168 322.808 245.494C323.195 263.506 334.402 304.611 334.402 304.611H342.079C342.079 304.611 336.26 264.572 336.938 246.876C337.677 227.587 343.805 184.423 343.805 184.423L326.919 184.414Z" fill="#263238"/>
<path opacity="0.3" d="M326.919 184.414C326.919 184.414 322.438 228.168 322.808 245.494C323.195 263.506 334.402 304.611 334.402 304.611H342.079C342.079 304.611 336.26 264.572 336.938 246.876C337.677 227.587 343.805 184.423 343.805 184.423L326.919 184.414Z" fill="#263238"/>
<path d="M342.735 304.871H333.72L333.059 302.001L343.148 301.648L342.735 304.871Z" fill="#263238"/>
<path opacity="0.2" d="M336.868 195.28C331.198 206.68 335.732 227.475 337.748 235.213C338.778 223.592 340.512 209.392 341.859 198.96C340.988 193.061 339.482 190.033 336.868 195.28Z" fill="black"/>
<path d="M391.938 261.474L390.018 266.818L376.936 264.353L378.846 259L391.938 261.474Z" fill="#F4C9CB"/>
<path d="M388.476 267.005L388.925 260.64C388.929 260.524 388.974 260.414 389.051 260.327C389.128 260.24 389.233 260.183 389.347 260.165L394.48 259.135C394.604 259.108 394.733 259.112 394.855 259.146C394.978 259.179 395.09 259.242 395.183 259.328C395.277 259.414 395.348 259.522 395.391 259.641C395.434 259.761 395.447 259.889 395.43 260.015C395.237 262.242 395.025 263.316 394.832 266.116C394.709 267.877 394.55 272.772 394.383 275.157C394.216 277.543 391.83 277.798 391.689 276.821C391.029 272.419 389.928 269.382 388.757 267.965C388.542 267.694 388.441 267.35 388.476 267.005Z" fill="#263238"/>
<g opacity="0.2">
<path d="M376.939 264.344L383.682 265.62L385.602 260.277L378.858 259L376.939 264.344Z" fill="black"/>
</g>
<path d="M333.285 184.414C333.285 184.414 339.589 229.568 343.85 246.559C348.252 264.228 381.424 265.734 381.424 265.734L384.805 258.832C384.805 258.832 365.437 253.69 357.117 242.061C353.499 223.027 350.18 184.414 350.18 184.414H333.285Z" fill="#263238"/>
<path opacity="0.3" d="M333.285 184.414C333.285 184.414 339.589 229.568 343.85 246.559C348.252 264.228 381.424 265.734 381.424 265.734L384.805 258.832C384.805 258.832 365.437 253.69 357.117 242.061C353.499 223.027 350.18 184.414 350.18 184.414H333.285Z" fill="#263238"/>
<path d="M385.195 258.189L382.237 266.702L379.182 266.738L382.149 257.133L385.195 258.189Z" fill="#263238"/>
<path d="M389.334 269.078C389.335 269.578 389.177 270.064 388.885 270.469C388.799 270.562 388.694 270.636 388.577 270.684C388.46 270.733 388.334 270.756 388.208 270.751C388.137 270.752 388.068 270.733 388.008 270.697C387.947 270.662 387.898 270.61 387.864 270.549C387.53 269.871 388.85 267.547 389 267.282C389.014 267.258 389.035 267.237 389.059 267.223C389.084 267.21 389.112 267.203 389.141 267.203C389.168 267.204 389.194 267.215 389.214 267.232C389.235 267.25 389.249 267.274 389.255 267.3C389.333 267.889 389.36 268.484 389.334 269.078ZM388.075 270.152C388.05 270.233 388.05 270.319 388.075 270.399C388.088 270.425 388.108 270.447 388.133 270.461C388.159 270.475 388.188 270.481 388.216 270.478C388.298 270.484 388.38 270.471 388.457 270.44C388.533 270.41 388.601 270.363 388.656 270.302C389.064 269.52 389.182 268.619 388.991 267.758C388.561 268.502 388.252 269.311 388.075 270.152Z" fill="#A579E1"/>
<path d="M389.248 267.327C389.249 267.347 389.249 267.368 389.248 267.388C388.887 268.075 387.567 269.492 386.924 269.422C386.774 269.422 386.589 269.308 386.58 268.938C386.57 268.658 386.672 268.386 386.862 268.181C387.506 267.644 388.292 267.304 389.125 267.203C389.142 267.202 389.16 267.204 389.176 267.21C389.192 267.216 389.208 267.224 389.221 267.236C389.234 267.247 389.245 267.261 389.252 267.277C389.26 267.292 389.265 267.309 389.266 267.327H389.248ZM386.836 268.815C386.832 268.841 386.832 268.868 386.836 268.894C386.836 269.14 386.941 269.149 386.977 269.158C387.364 269.158 388.394 268.233 388.861 267.52C388.192 267.62 387.564 267.903 387.047 268.339C386.926 268.47 386.852 268.637 386.836 268.815Z" fill="#A579E1"/>
<path d="M334.175 312.615C333.691 312.66 333.206 312.535 332.802 312.263C332.71 312.182 332.639 312.079 332.596 311.964C332.553 311.849 332.539 311.725 332.556 311.603C332.561 311.529 332.584 311.459 332.624 311.397C332.664 311.335 332.72 311.285 332.785 311.251C333.48 310.863 335.743 312.025 335.998 312.131C336.023 312.144 336.044 312.164 336.056 312.19C336.069 312.215 336.073 312.244 336.068 312.272C336.065 312.299 336.052 312.323 336.033 312.343C336.014 312.362 335.989 312.374 335.963 312.377C335.376 312.513 334.777 312.592 334.175 312.615ZM333.163 311.436C333.078 311.431 332.993 311.449 332.917 311.488C332.888 311.498 332.864 311.518 332.848 311.543C332.832 311.569 332.825 311.599 332.829 311.629C332.814 311.708 332.821 311.789 332.847 311.864C332.873 311.94 332.918 312.008 332.978 312.061C333.322 312.369 334.255 312.422 335.514 312.219C334.781 311.824 333.986 311.559 333.163 311.436Z" fill="#A579E1"/>
<path d="M335.947 312.41H335.894C335.216 312.111 333.878 310.887 333.984 310.236C333.984 310.086 334.116 309.901 334.486 309.857C334.62 309.843 334.756 309.856 334.885 309.897C335.014 309.938 335.133 310.006 335.234 310.095C335.755 310.708 336.064 311.474 336.114 312.278C336.12 312.302 336.117 312.326 336.108 312.348C336.098 312.37 336.082 312.389 336.062 312.401C336.044 312.411 336.025 312.416 336.005 312.418C335.986 312.419 335.966 312.417 335.947 312.41ZM334.6 310.104H334.512C334.266 310.104 334.257 310.227 334.248 310.253C334.186 310.641 335.128 311.609 335.789 312.014C335.735 311.365 335.479 310.749 335.058 310.253C334.927 310.152 334.766 310.099 334.6 310.104Z" fill="#A579E1"/>
<path d="M343.242 136.875C342.582 140.238 341.922 146.418 344.281 148.663C344.281 148.663 343.401 152.088 337.097 152.088C330.204 152.088 333.805 148.663 333.805 148.663C337.564 147.783 337.467 144.983 336.807 142.36L343.242 136.875Z" fill="#F4C9CB"/>
<path opacity="0.2" d="M340.611 139.102L336.808 142.35C336.969 142.959 337.075 143.58 337.125 144.208C338.56 144.005 340.541 142.447 340.647 140.924C340.743 140.319 340.731 139.702 340.611 139.102Z" fill="black"/>
<path d="M346.872 131.037C345.586 136.53 345.111 138.881 341.871 141.249C336.932 144.815 330.471 142.033 330.083 136.275C329.74 131.09 331.906 122.982 337.707 121.696C338.986 121.408 340.317 121.451 341.574 121.822C342.832 122.192 343.974 122.878 344.892 123.813C345.81 124.749 346.473 125.904 346.82 127.168C347.167 128.432 347.184 129.764 346.872 131.037Z" fill="#F4C9CB"/>
<path d="M344.605 126.096C342.615 127.619 343.487 133.139 345.952 134.838C349.808 133.914 350.539 121.545 344.605 126.096Z" fill="#263238"/>
<path d="M337.649 120.617C335.421 121.005 332.595 124.315 331.997 125.662C335.342 125.045 344.559 127.898 344.559 127.898C344.559 127.898 348.68 127.44 346.364 124.262C344.049 121.084 337.649 120.617 337.649 120.617Z" fill="#263238"/>
<path d="M337.19 131.003C337.111 131.461 336.812 131.786 336.513 131.733C336.213 131.681 336.037 131.276 336.116 130.853C336.196 130.43 336.495 130.07 336.794 130.122C337.094 130.175 337.296 130.554 337.19 131.003Z" fill="#263238"/>
<path d="M332.114 130.135C332.035 130.584 331.735 130.91 331.436 130.857C331.137 130.804 330.969 130.399 331.04 129.977C331.11 129.554 331.418 129.202 331.718 129.246C332.017 129.29 332.193 129.677 332.114 130.135Z" fill="#263238"/>
<path d="M331.852 129.275L330.822 128.773C330.822 128.773 331.235 129.715 331.852 129.275Z" fill="#263238"/>
<path d="M334.102 131.211C333.526 132.184 332.818 133.073 331.997 133.852C332.199 134.056 332.444 134.213 332.713 134.312C332.982 134.411 333.27 134.449 333.556 134.424L334.102 131.211Z" fill="#E7B4B6"/>
<path d="M335.726 136.585C335.5 136.577 335.273 136.556 335.049 136.523C335.014 136.515 334.984 136.494 334.965 136.464C334.945 136.435 334.937 136.4 334.943 136.365C334.949 136.33 334.968 136.3 334.996 136.279C335.023 136.258 335.058 136.247 335.093 136.25C335.652 136.361 336.229 136.34 336.778 136.187C337.327 136.034 337.832 135.754 338.253 135.37C338.265 135.357 338.279 135.346 338.295 135.339C338.311 135.332 338.328 135.328 338.346 135.328C338.363 135.328 338.38 135.332 338.396 135.339C338.412 135.346 338.426 135.357 338.438 135.37C338.463 135.396 338.477 135.431 338.477 135.467C338.477 135.503 338.463 135.537 338.438 135.564C338.075 135.904 337.649 136.169 337.184 136.345C336.719 136.52 336.223 136.601 335.726 136.585Z" fill="#263238"/>
<path d="M347.49 136.381C346.942 137.323 346.043 138.009 344.99 138.291C343.59 138.643 342.921 137.411 343.335 136.081C343.705 134.91 344.884 133.308 346.275 133.528C346.579 133.581 346.864 133.71 347.105 133.901C347.347 134.093 347.536 134.341 347.657 134.625C347.778 134.908 347.826 135.217 347.796 135.524C347.767 135.831 347.662 136.125 347.49 136.381Z" fill="#F4C9CB"/>
<path d="M339.988 130.3C339.932 130.298 339.878 130.278 339.833 130.244C339.789 130.209 339.757 130.161 339.742 130.106C339.558 129.707 339.293 129.35 338.964 129.057C338.635 128.765 338.25 128.544 337.831 128.407C337.764 128.383 337.709 128.334 337.678 128.27C337.647 128.205 337.642 128.131 337.664 128.064C337.675 128.031 337.693 128 337.715 127.974C337.738 127.948 337.766 127.926 337.797 127.911C337.828 127.895 337.862 127.886 337.896 127.883C337.931 127.881 337.966 127.885 337.999 127.896C338.499 128.057 338.96 128.323 339.349 128.677C339.737 129.031 340.046 129.464 340.253 129.948C340.275 130.017 340.269 130.091 340.236 130.156C340.203 130.22 340.145 130.269 340.076 130.291L339.988 130.3Z" fill="#263238"/>
<path d="M331.531 127.511C331.474 127.508 331.419 127.487 331.374 127.45C331.33 127.414 331.298 127.364 331.283 127.308C331.269 127.253 331.272 127.194 331.293 127.14C331.314 127.087 331.351 127.041 331.399 127.01C331.765 126.79 332.177 126.66 332.603 126.631C333.028 126.602 333.455 126.675 333.847 126.842C333.879 126.858 333.908 126.881 333.932 126.908C333.956 126.935 333.975 126.967 333.986 127.001C333.997 127.036 334.002 127.072 333.999 127.108C333.996 127.145 333.987 127.18 333.97 127.212C333.935 127.273 333.878 127.318 333.812 127.339C333.745 127.36 333.673 127.356 333.609 127.327C333.297 127.196 332.959 127.142 332.623 127.168C332.286 127.194 331.96 127.3 331.672 127.476C331.629 127.5 331.581 127.512 331.531 127.511Z" fill="#263238"/>
<path d="M336.953 130.142L335.923 129.641C335.923 129.641 336.31 130.583 336.953 130.142Z" fill="#263238"/>
<path d="M350.321 183.06L350.911 185.129C350.99 185.287 350.806 185.446 350.541 185.446H326.771C326.56 185.446 326.384 185.349 326.375 185.217L326.164 183.148C326.164 183.007 326.331 182.884 326.56 182.884H349.952C350.023 182.879 350.095 182.892 350.16 182.923C350.225 182.954 350.28 183.001 350.321 183.06Z" fill="#FAFAFA"/>
<path d="M347.187 185.67H347.812C347.935 185.67 348.032 185.6 348.023 185.529L347.732 182.844C347.732 182.765 347.609 182.703 347.486 182.703H346.87C346.746 182.703 346.65 182.765 346.658 182.844L346.949 185.529C346.949 185.6 347.063 185.67 347.187 185.67Z" fill="#A579E1"/>
<g opacity="0.3">
<path d="M347.187 185.67H347.812C347.935 185.67 348.032 185.6 348.023 185.529L347.732 182.844C347.732 182.765 347.609 182.703 347.486 182.703H346.87C346.746 182.703 346.65 182.765 346.658 182.844L346.949 185.529C346.949 185.6 347.063 185.67 347.187 185.67Z" fill="black"/>
</g>
<path d="M328.546 185.67H329.171C329.303 185.67 329.391 185.6 329.382 185.529L329.092 182.844C329.092 182.765 328.977 182.703 328.845 182.703H328.22C328.097 182.703 328.009 182.765 328.009 182.844L328.308 185.529C328.317 185.6 328.379 185.67 328.546 185.67Z" fill="#A579E1"/>
<path opacity="0.3" d="M328.546 185.67H329.171C329.303 185.67 329.391 185.6 329.382 185.529L329.092 182.844C329.092 182.765 328.977 182.703 328.845 182.703H328.22C328.097 182.703 328.009 182.765 328.009 182.844L328.308 185.529C328.317 185.6 328.379 185.67 328.546 185.67Z" fill="black"/>
<path d="M337.866 185.67H338.491C338.615 185.67 338.711 185.6 338.703 185.529L338.403 182.844C338.403 182.765 338.289 182.703 338.166 182.703H337.54C337.417 182.703 337.32 182.765 337.329 182.844L337.62 185.529C337.629 185.6 337.734 185.67 337.866 185.67Z" fill="#A579E1"/>
<path opacity="0.3" d="M337.866 185.67H338.491C338.615 185.67 338.711 185.6 338.703 185.529L338.403 182.844C338.403 182.765 338.289 182.703 338.166 182.703H337.54C337.417 182.703 337.32 182.765 337.329 182.844L337.62 185.529C337.629 185.6 337.734 185.67 337.866 185.67Z" fill="black"/>
<path d="M308.371 137.078L312.758 141.406C313.388 142.027 313.395 143.042 312.773 143.672L310.993 145.477C310.371 146.107 309.357 146.114 308.727 145.492L304.34 141.165C303.71 140.543 303.703 139.529 304.324 138.899L306.105 137.094C306.726 136.464 307.741 136.457 308.371 137.078Z" fill="#A579E1"/>
<path opacity="0.4" d="M310.244 142.117L311.714 143.57C311.726 143.583 311.74 143.593 311.756 143.601C311.772 143.608 311.789 143.612 311.806 143.612C311.824 143.612 311.841 143.608 311.857 143.601C311.873 143.593 311.887 143.583 311.899 143.57C311.924 143.544 311.938 143.509 311.938 143.473C311.938 143.437 311.924 143.402 311.899 143.376L310.429 141.932C310.417 141.919 310.403 141.909 310.387 141.902C310.371 141.894 310.354 141.891 310.336 141.891C310.319 141.891 310.301 141.894 310.286 141.902C310.27 141.909 310.255 141.919 310.244 141.932C310.231 141.944 310.22 141.958 310.213 141.974C310.206 141.99 310.202 142.007 310.202 142.025C310.202 142.042 310.206 142.06 310.213 142.075C310.22 142.091 310.231 142.106 310.244 142.117Z" fill="white"/>
<path opacity="0.4" d="M307.069 137.024L308.539 138.468C308.564 138.492 308.597 138.506 308.631 138.506C308.666 138.506 308.699 138.492 308.724 138.468C308.737 138.457 308.748 138.442 308.755 138.427C308.762 138.411 308.766 138.393 308.766 138.376C308.766 138.358 308.762 138.341 308.755 138.325C308.748 138.309 308.737 138.295 308.724 138.283L307.254 136.831C307.242 136.818 307.228 136.807 307.212 136.8C307.196 136.793 307.179 136.789 307.161 136.789C307.144 136.789 307.126 136.793 307.111 136.8C307.095 136.807 307.08 136.818 307.069 136.831C307.044 136.857 307.03 136.892 307.03 136.928C307.03 136.964 307.044 136.998 307.069 137.024Z" fill="white"/>
<path opacity="0.4" d="M308.267 144.13L309.738 145.574C309.762 145.598 309.795 145.611 309.83 145.611C309.865 145.611 309.898 145.598 309.922 145.574C309.947 145.548 309.961 145.513 309.961 145.477C309.961 145.441 309.947 145.406 309.922 145.38L308.452 143.936C308.427 143.912 308.394 143.898 308.36 143.898C308.325 143.898 308.292 143.912 308.267 143.936C308.243 143.962 308.229 143.997 308.229 144.033C308.229 144.069 308.243 144.104 308.267 144.13Z" fill="white"/>
<path opacity="0.4" d="M310.858 143.667L311.245 144.045C311.271 144.07 311.306 144.084 311.342 144.084C311.378 144.084 311.413 144.07 311.439 144.045C311.463 144.021 311.477 143.987 311.477 143.953C311.477 143.918 311.463 143.885 311.439 143.86L311.06 143.473C311.033 143.45 310.999 143.438 310.963 143.438C310.928 143.438 310.894 143.45 310.867 143.473C310.841 143.498 310.825 143.532 310.824 143.568C310.822 143.604 310.834 143.639 310.858 143.667Z" fill="white"/>
<path opacity="0.2" d="M304.434 140.69L304.892 141.148C305.045 141.297 305.251 141.381 305.464 141.381C305.678 141.381 305.884 141.297 306.037 141.148C306.188 140.996 306.273 140.79 306.273 140.576C306.273 140.361 306.188 140.155 306.037 140.003L305.579 139.546C305.426 139.396 305.221 139.312 305.007 139.312C304.793 139.313 304.587 139.396 304.434 139.546C304.283 139.698 304.198 139.903 304.198 140.118C304.198 140.333 304.283 140.538 304.434 140.69Z" fill="black"/>
<path d="M351.491 151.435C350.127 151.972 348.621 152.553 347.16 153.055C345.699 153.557 344.211 154.085 342.758 154.543C339.883 155.482 336.94 156.2 333.955 156.691L333.409 156.77H333.268C333.099 156.771 332.93 156.75 332.766 156.708C332.161 156.556 331.571 156.347 331.005 156.083C329.648 155.456 328.328 154.751 327.052 153.97C324.411 152.377 321.7 150.59 319.076 148.82L316.787 151.373C318.996 153.871 321.401 156.188 323.98 158.302C325.332 159.408 326.765 160.412 328.267 161.304C329.121 161.818 330.023 162.245 330.961 162.58C331.568 162.791 332.197 162.93 332.836 162.994C333.039 162.994 333.224 162.994 333.444 162.994H333.902H334.562C335.442 162.95 336.323 162.836 337.203 162.739C338.083 162.642 338.964 162.492 339.756 162.316C341.446 162.017 343.093 161.603 344.721 161.163C346.35 160.723 347.952 160.212 349.537 159.666C351.122 159.121 352.654 158.54 354.273 157.826L351.491 151.435Z" fill="#F4C9CB"/>
<path d="M319.219 149.094L315.75 144.023L314.209 149.587C314.209 149.587 316.851 152.14 319.069 151.427L319.219 149.094Z" fill="#F4C9CB"/>
<path d="M311.183 142.594L310.144 147.321L314.194 149.601L315.734 144.038L311.183 142.594Z" fill="#F4C9CB"/>
<path d="M358.851 158.771C357.17 160.532 349.872 161.588 349.872 161.588L345.259 151.578C345.259 151.578 351.976 148.726 354.731 150.24C357.487 151.754 360.762 156.79 358.851 158.771Z" fill="#A579E1"/>
<g opacity="0.5">
<path d="M358.851 158.771C357.17 160.532 349.872 161.588 349.872 161.588L345.259 151.578C345.259 151.578 351.976 148.726 354.731 150.24C357.487 151.754 360.762 156.79 358.851 158.771Z" fill="white"/>
</g>
<path d="M264.873 209.276L267.453 209.514C270.974 220.87 275.781 220.958 277.216 220.712C279.857 220.245 281.389 217.366 280.623 214.303C279.566 210.077 274.777 208.351 271.775 207.612C273.633 204.804 274.328 200.129 273.21 197.048C272.896 195.945 272.217 194.981 271.285 194.313C270.353 193.645 269.223 193.312 268.078 193.368C267.398 193.323 266.72 193.463 266.114 193.773C265.507 194.083 264.997 194.551 264.635 195.128C262.549 198.544 265.85 205.904 266.916 208.105L264.873 209.276ZM269.002 206.732C267.461 203.404 265.903 198.394 267.021 196.572C267.197 196.282 267.382 195.982 268.289 195.956C268.828 195.91 269.366 196.065 269.799 196.389C270.232 196.714 270.531 197.186 270.64 197.717C271.626 200.455 270.613 204.936 269.002 206.732ZM277.806 214.338C277.85 214.47 277.885 214.602 277.92 214.734C278.36 216.495 277.524 217.983 276.485 218.168C275.446 218.352 272.638 216.821 270.323 209.839C272.444 210.227 276.767 211.362 277.85 214.338H277.806Z" fill="#263238"/>
<path d="M172.655 215.508L190.245 264.175L277.305 232.719L259.777 184.211L172.655 215.508Z" fill="#A579E1"/>
<path opacity="0.6" d="M172.655 215.508L190.245 264.175L277.305 232.719L259.777 184.211L172.655 215.508Z" fill="white"/>
<path d="M264.237 196.492L265.672 200.454L178.551 231.751L177.124 227.798L264.237 196.492Z" fill="#263238"/>
<path d="M186.737 254.453L187.794 257.359L274.906 226.053L273.859 223.156L186.737 254.453Z" fill="#263238"/>
<path opacity="0.2" d="M183.255 244.853L190.245 264.186L277.305 232.73L270.376 213.547L183.255 244.853Z" fill="black"/>
<path d="M242.371 221.851L243.251 219.87C253.261 220.336 254.696 216.551 254.925 215.345C255.312 213.109 253.472 211.075 250.814 210.802C247.169 210.432 244.422 213.734 242.978 215.908C242.017 214.703 240.817 213.711 239.454 212.992C238.09 212.274 236.592 211.846 235.055 211.735C234.089 211.665 233.127 211.924 232.328 212.471C231.528 213.018 230.938 213.82 230.653 214.746C230.425 215.276 230.345 215.859 230.422 216.431C230.5 217.004 230.732 217.544 231.093 217.995C233.198 220.636 239.985 220.116 242.028 219.905L242.371 221.851ZM241.491 217.845C238.418 218.118 233.99 217.915 232.872 216.507C232.687 216.278 232.502 216.049 232.749 215.327C232.865 214.885 233.141 214.503 233.523 214.252C233.905 214.002 234.366 213.902 234.817 213.971C236.155 214.085 237.451 214.495 238.612 215.171C239.772 215.847 240.767 216.772 241.526 217.88L241.491 217.845ZM250.101 213.047H250.444C251.949 213.205 252.909 214.297 252.751 215.169C252.592 216.04 250.585 217.81 244.387 217.686C245.285 216.155 247.389 213.047 250.101 213.047Z" fill="#263238"/>
<path d="M220.908 248.71H264.539V218.742H221.049L220.908 248.71Z" fill="#A579E1"/>
<path opacity="0.4" d="M220.908 248.71H264.539V218.742H221.049L220.908 248.71Z" fill="white"/>
<path d="M232.061 218.742H235.609L235.469 248.71H231.921L232.061 218.742Z" fill="#263238"/>
<path d="M255.816 248.71H258.422L258.562 218.742H255.957L255.816 248.71Z" fill="#263238"/>
<path opacity="0.2" d="M247.196 248.71H264.539V218.742H247.337L247.196 248.71Z" fill="black"/>
<path d="M231.722 253.734C234.469 254.404 243.66 256.376 247.719 253.189C248.384 252.692 248.914 252.038 249.263 251.284C249.612 250.531 249.768 249.703 249.717 248.875C249.638 246.014 247.86 244.359 244.928 243.962C241.098 243.443 235.42 245.353 232.083 248.126C231.018 244.913 228.632 239.939 223.412 239.763C219.617 239.631 216.193 242.043 215.761 245.142C215.532 246.815 215.929 252.185 230.014 253.453L230.446 256.305L231.722 253.734ZM244.241 246.991C245.764 247.193 246.495 247.792 246.53 249.245C246.58 249.546 246.543 249.855 246.422 250.136C246.302 250.417 246.105 250.657 245.852 250.829C243.687 252.52 237.48 251.947 233.325 251.005C235.429 248.76 240.852 246.498 244.241 246.991ZM229.433 250.266C220.771 249.315 218.719 246.665 218.869 245.301C219.036 244.086 220.832 242.783 222.989 242.862C223.15 242.853 223.312 242.853 223.473 242.862C227.215 243.399 228.852 248.003 229.433 250.266Z" fill="#263238"/>
<path d="M204.362 246.611L259.328 254.023L256.619 274.116L201.653 266.704L204.362 246.611Z" fill="#A579E1"/>
<path opacity="0.4" d="M204.362 246.611L259.328 254.023L256.619 274.116L201.653 266.704L204.362 246.611Z" fill="white"/>
<path opacity="0.2" d="M204.357 246.61L226.195 249.555L223.486 269.648L201.648 266.703L204.357 246.61Z" fill="white"/>
<path d="M240.978 251.554L245.445 252.156L242.736 272.249L238.269 271.647L240.978 251.554Z" fill="#263238"/>
<path d="M212.071 247.651L215.352 248.094L212.642 268.187L209.362 267.744L212.071 247.651Z" fill="#263238"/>
<path d="M278.255 215.9L279.514 216.992C283.344 207.616 288.195 200.265 295.695 198.161L294.436 197.078C287.288 198.962 282.296 206.243 278.255 215.9Z" fill="#263238"/>
<path opacity="0.5" d="M278.255 215.9L279.514 216.992C283.344 207.616 288.195 200.265 295.695 198.161L294.436 197.078C287.288 198.962 282.296 206.243 278.255 215.9Z" fill="white"/>
<path d="M283.176 216L284.937 217.251C288.564 209.926 288.124 206.167 297.156 200.524L295.44 199.273C286.407 205.339 286.407 209.09 283.176 216Z" fill="#263238"/>
<path opacity="0.5" d="M283.176 216L284.937 217.251C288.564 209.926 288.124 206.167 297.156 200.524L295.44 199.273C286.407 205.339 286.407 209.09 283.176 216Z" fill="white"/>
<path d="M173.151 215.961H284.825C285.187 215.961 285.543 216.051 285.86 216.224C286.178 216.397 286.446 216.648 286.642 216.952C286.837 217.256 286.953 217.604 286.979 217.965C287.005 218.326 286.939 218.687 286.789 219.016L260.879 275.905C260.682 276.331 260.352 276.681 259.94 276.905C259.528 277.128 259.055 277.213 258.59 277.147L176.963 264.998C176.485 264.925 176.045 264.695 175.714 264.344C175.382 263.993 175.177 263.541 175.131 263.061L171.002 218.338C170.972 218.038 171.004 217.734 171.098 217.447C171.192 217.16 171.345 216.896 171.548 216.672C171.75 216.448 171.998 216.269 172.274 216.146C172.55 216.024 172.849 215.961 173.151 215.961ZM173.45 219.482L177.376 262.356C177.419 262.819 177.616 263.253 177.935 263.59C178.254 263.927 178.678 264.147 179.137 264.214L257.34 275.852C257.785 275.918 258.239 275.838 258.634 275.624C259.03 275.409 259.345 275.073 259.532 274.664L284.368 220.178C284.512 219.863 284.575 219.517 284.551 219.172C284.527 218.826 284.417 218.492 284.23 218.2C284.043 217.909 283.786 217.668 283.483 217.502C283.179 217.335 282.839 217.247 282.492 217.246H175.527C175.237 217.243 174.949 217.3 174.683 217.415C174.416 217.529 174.177 217.699 173.98 217.912C173.783 218.126 173.633 218.378 173.541 218.653C173.448 218.928 173.414 219.22 173.441 219.509L173.45 219.482Z" fill="#263238"/>
<path d="M252.165 275.879H253.794L280.328 215.961H278.708L252.165 275.879Z" fill="#263238"/>
<path d="M244.866 274.726H246.486L271.867 215.961H270.239L244.866 274.726Z" fill="#263238"/>
<path d="M238.084 273.572H239.704L261.625 215.961H259.996L238.084 273.572Z" fill="#263238"/>
<path d="M230.834 272.357H232.454L252.156 215.961H250.536L230.834 272.357Z" fill="#263238"/>
<path d="M224.278 271.477H225.898L242.281 215.961H240.661L224.278 271.477Z" fill="#263238"/>
<path d="M216.854 270.394H218.474L233 215.961H231.371L216.854 270.394Z" fill="#263238"/>
<path d="M209.861 269.109H211.481L223.445 215.961H221.825L209.861 269.109Z" fill="#263238"/>
<path d="M202.531 268.29H204.16L213.773 215.961H212.145L202.531 268.29Z" fill="#263238"/>
<path d="M195.562 267.41H197.191L203.82 215.961H202.2L195.562 267.41Z" fill="#263238"/>
<path d="M188.582 266.124H190.21L194.102 215.961H192.473L188.582 266.124Z" fill="#263238"/>
<path d="M181.406 265.447H183.026L184.047 215.961H182.418L181.406 265.447Z" fill="#263238"/>
<path d="M173.433 233.023V234.643L277.141 239.318V237.689L173.433 233.023Z" fill="#263238"/>
<path d="M174.732 250.023V251.652L267.18 261.75V260.13L174.732 250.023Z" fill="#263238"/>
<path d="M252.172 312.193C252.169 313.348 252.508 314.478 253.148 315.44C253.788 316.401 254.699 317.151 255.766 317.594C256.832 318.036 258.007 318.152 259.139 317.926C260.272 317.701 261.312 317.144 262.127 316.326C262.943 315.508 263.497 314.466 263.719 313.333C263.941 312.199 263.822 311.026 263.376 309.96C262.93 308.895 262.178 307.986 261.214 307.349C260.251 306.712 259.12 306.376 257.965 306.383C256.428 306.39 254.956 307.005 253.87 308.094C252.785 309.182 252.174 310.656 252.172 312.193Z" fill="#A579E1"/>
<path d="M253.551 312.143C253.808 312.966 254.32 313.685 255.014 314.197C255.707 314.708 256.546 314.985 257.407 314.987C258.23 315.013 259.033 314.738 259.668 314.215C260.303 313.692 260.726 312.955 260.858 312.143L262.672 301.086H247.864L249.625 307.249C249.749 307.678 249.965 308.074 250.259 308.411L253.551 312.143Z" fill="#263238"/>
<path opacity="0.3" d="M253.551 312.143C253.808 312.966 254.32 313.685 255.014 314.197C255.707 314.708 256.546 314.985 257.407 314.987C258.23 315.013 259.033 314.738 259.668 314.215C260.303 313.692 260.726 312.955 260.858 312.143L262.672 301.086H247.864L249.625 307.249C249.749 307.678 249.965 308.074 250.259 308.411L253.551 312.143Z" fill="white"/>
<path d="M196.43 312.193C196.433 313.347 196.094 314.476 195.455 315.437C194.817 316.398 193.907 317.148 192.842 317.591C191.777 318.035 190.604 318.152 189.472 317.928C188.34 317.705 187.3 317.15 186.484 316.335C185.667 315.52 185.111 314.481 184.886 313.349C184.66 312.217 184.776 311.044 185.218 309.979C185.66 308.913 186.408 308.002 187.368 307.362C188.328 306.722 189.457 306.381 190.61 306.383C192.152 306.383 193.631 306.995 194.722 308.084C195.813 309.174 196.427 310.651 196.43 312.193Z" fill="#A579E1"/>
<path d="M195.039 312.143C194.78 312.966 194.266 313.685 193.571 314.196C192.876 314.707 192.037 314.984 191.175 314.987C190.352 315.013 189.549 314.738 188.914 314.215C188.279 313.692 187.856 312.955 187.724 312.143L185.91 301.086H200.727L198.922 307.249C198.802 307.679 198.585 308.076 198.288 308.411L195.039 312.143Z" fill="#263238"/>
<path opacity="0.3" d="M195.039 312.143C194.78 312.966 194.266 313.685 193.571 314.196C192.876 314.707 192.037 314.984 191.175 314.987C190.352 315.013 189.549 314.738 188.914 314.215C188.279 313.692 187.856 312.955 187.724 312.143L185.91 301.086H200.727L198.922 307.249C198.802 307.679 198.585 308.076 198.288 308.411L195.039 312.143Z" fill="white"/>
<path opacity="0.6" d="M173.151 215.961H284.825C285.187 215.961 285.543 216.051 285.86 216.224C286.178 216.397 286.446 216.648 286.642 216.952C286.837 217.256 286.953 217.604 286.979 217.965C287.005 218.326 286.939 218.687 286.789 219.016L260.879 275.905C260.682 276.331 260.352 276.681 259.94 276.905C259.528 277.128 259.055 277.213 258.59 277.147L176.963 264.998C176.485 264.925 176.045 264.695 175.714 264.344C175.382 263.993 175.177 263.541 175.131 263.061L171.002 218.338C170.972 218.038 171.004 217.734 171.098 217.447C171.192 217.16 171.345 216.896 171.548 216.672C171.75 216.448 171.998 216.269 172.274 216.146C172.55 216.024 172.849 215.961 173.151 215.961ZM175.51 217.246C175.222 217.246 174.937 217.306 174.674 217.423C174.41 217.539 174.174 217.709 173.98 217.922C173.786 218.135 173.639 218.386 173.547 218.66C173.456 218.933 173.423 219.222 173.45 219.509L174.691 233.075L182.077 233.41L182.403 217.246H175.51ZM275.661 239.256L270.123 239.009L261.055 259.478L266.197 260.032L275.661 239.256ZM268.53 238.939L262.059 238.648L253.431 258.641L259.506 259.302L268.53 238.939ZM199.086 252.672L205.249 253.341L208.392 236.192L201.217 235.875L199.086 252.672ZM199.641 235.796L192.598 235.479L191.33 251.818L197.493 252.496L199.641 235.796ZM206.895 253.553L213.243 254.248L217.213 236.641L210.064 236.324L206.895 253.553ZM214.818 254.433L220.981 255.102L225.805 237.019L218.824 236.702L214.818 254.433ZM222.539 255.269L228.869 255.965L234.345 237.407L227.39 237.09L222.539 255.269ZM230.463 256.15L236.326 256.792L242.955 237.812L235.974 237.495L230.463 256.15ZM237.884 256.969L244.187 257.655L251.591 238.199L244.548 237.882L237.884 256.969ZM245.746 257.849L251.908 258.527L260.466 238.586L253.15 238.252L245.746 257.849ZM252.789 260.244L246.714 274.329L252.533 275.21L258.837 260.842L252.789 260.244ZM251.239 260.076L245.156 259.407L239.874 273.299L245.156 274.092L251.239 260.076ZM243.598 259.24L237.338 258.553L232.567 272.208L238.333 273.088L243.598 259.24ZM235.771 258.36L229.996 257.726L225.981 271.16L230.991 271.908L235.771 258.36ZM228.429 257.558L222.134 256.872L218.613 270.077L224.476 270.958L228.429 257.558ZM220.558 256.678L214.475 256.018L211.552 269.03L217.046 269.848L220.558 256.678ZM212.89 255.842L206.613 255.155L204.254 267.929L209.968 268.81L212.89 255.842ZM205.02 254.961L198.919 254.301L197.211 266.882L202.608 267.691L205.02 254.961ZM197.317 254.081L191.233 253.412L190.238 265.878L195.662 266.688L197.317 254.081ZM189.622 253.201L183.336 252.514L183.09 264.689L188.671 265.517L189.622 253.201ZM189.745 251.589L191.013 235.355L183.697 235.03L183.372 250.876L189.745 251.589ZM182.077 234.951L174.876 234.625L176.293 250.119L181.752 250.718L182.077 234.951ZM184.005 217.246L183.671 233.48L191.075 233.815L192.36 217.246H184.005ZM193.98 217.246L192.695 233.885L199.852 234.185L202.044 217.22L193.98 217.246ZM203.664 217.246L201.472 234.281L208.735 234.607L211.922 217.246H203.664ZM213.551 217.246L210.346 234.686L217.556 235.003L221.553 217.246H213.551ZM223.173 217.246L219.15 235.065L226.193 235.382L231.035 217.229L223.173 217.246ZM232.672 217.246L227.813 235.47L234.812 235.787L240.279 217.246H232.672ZM241.907 217.246L236.414 235.857L243.457 236.174L250.068 217.246H241.907ZM251.723 217.246L245.085 236.245L252.128 236.562L259.471 217.246H251.723ZM261.143 217.246L253.766 236.614L261.161 236.949L269.683 217.22L261.143 217.246ZM271.303 217.246L262.763 237.046L269.243 237.336L278.143 217.246H271.303ZM282.484 217.246H279.763L270.836 237.407L276.4 237.653L284.324 220.178C284.467 219.865 284.53 219.522 284.508 219.178C284.485 218.835 284.377 218.502 284.193 218.211C284.01 217.92 283.756 217.68 283.456 217.511C283.156 217.343 282.819 217.252 282.475 217.246H282.484ZM259.532 274.682L265.492 261.59L260.369 261.036L254.021 275.377L257.34 275.87C257.785 275.936 258.239 275.856 258.634 275.641C259.03 275.427 259.345 275.09 259.532 274.682ZM177.376 262.356C177.419 262.819 177.616 263.253 177.935 263.59C178.254 263.927 178.678 264.147 179.137 264.214L181.444 264.557L181.69 252.452L176.408 251.88L177.376 262.356Z" fill="white"/>
<path d="M302.273 197.971L295.618 201.818L292.686 196.747L299.333 192.9C299.666 192.708 300.033 192.583 300.414 192.533C300.796 192.483 301.183 192.508 301.554 192.608C301.925 192.708 302.273 192.88 302.578 193.114C302.883 193.349 303.138 193.641 303.33 193.974C303.523 194.306 303.649 194.673 303.7 195.053C303.752 195.433 303.728 195.82 303.63 196.191C303.531 196.563 303.361 196.911 303.128 197.216C302.896 197.522 302.605 197.778 302.273 197.971Z" fill="#A579E1"/>
<path d="M267.188 298.708V301.859H180.524V298.708H267.188Z" fill="#263238"/>
<path d="M252.428 276.292L251.945 279.406L236.468 277.008L236.951 273.893L252.428 276.292Z" fill="#263238"/>
<path d="M269.286 297.017C269.902 297.801 268.951 298.989 267.19 298.716V301.868C273.098 302.07 274.233 297.906 271.592 294.922L269.286 297.017Z" fill="#263238"/>
<path d="M254.869 280.846C254.104 280.022 253.071 279.498 251.955 279.367L252.431 276.25C254.252 276.546 255.929 277.423 257.211 278.75L254.869 280.846Z" fill="#263238"/>
<path d="M267.188 298.708V301.859H180.524V298.708H267.188Z" fill="#263238"/>
<path d="M252.428 276.292L251.945 279.406L236.468 277.008L236.951 273.893L252.428 276.292Z" fill="#263238"/>
<path d="M269.286 297.017C269.902 297.801 268.951 298.989 267.19 298.716V301.868C273.098 302.07 274.233 297.906 271.592 294.922L269.286 297.017Z" fill="#263238"/>
<path d="M254.869 280.846C254.104 280.022 253.071 279.498 251.955 279.367L252.431 276.25C254.252 276.546 255.929 277.423 257.211 278.75L254.869 280.846Z" fill="#263238"/>
<path d="M271.655 294.908L269.305 297.008L254.884 280.862L257.234 278.762L271.655 294.908Z" fill="#263238"/>
<path d="M271.655 294.908L269.305 297.008L254.884 280.862L257.234 278.762L271.655 294.908Z" fill="#263238"/>
<path opacity="0.4" d="M267.179 298.714C268.939 298.987 269.89 297.834 269.274 297.015L254.853 280.834C254.088 280.011 253.055 279.487 251.939 279.355L236.454 276.951L236.938 273.844L252.415 276.238C254.236 276.535 255.913 277.412 257.195 278.739L271.616 294.92C274.257 297.904 273.086 302.068 267.214 301.866H180.559V298.714H267.179Z" fill="white"/>
</svg>
