<svg width="441" height="328" viewBox="0 0 441 328" fill="none" xmlns="http://www.w3.org/2000/svg">
<path d="M440.185 288.234H0V288.454H440.185V288.234Z" fill="#EBEBEB"/>
<path d="M121.189 294.227H92.0312V294.447H121.189V294.227Z" fill="#EBEBEB"/>
<path d="M186.539 302.289H150.664V302.509H186.539V302.289Z" fill="#EBEBEB"/>
<path d="M91.1568 299.531H46.1875V299.751H91.1568V299.531Z" fill="#EBEBEB"/>
<path d="M396.076 295.719H314.078V295.939H396.076V295.719Z" fill="#EBEBEB"/>
<path d="M306.237 295.719H300.664V295.939H306.237V295.719Z" fill="#EBEBEB"/>
<path d="M281.233 299.422H244.055V299.642H281.233V299.422Z" fill="#EBEBEB"/>
<path d="M208.641 248.968H38.6509C37.3192 248.966 36.0429 248.435 35.102 247.493C34.1612 246.551 33.6328 245.273 33.6328 243.942V4.98289C33.6444 3.65884 34.1779 2.39282 35.1175 1.45984C36.0571 0.526864 37.3268 0.00226817 38.6509 0H208.641C209.975 0 211.253 0.529619 212.196 1.47235C213.139 2.41508 213.668 3.69369 213.668 5.02691V243.942C213.668 245.275 213.139 246.553 212.196 247.496C211.253 248.439 209.975 248.968 208.641 248.968ZM38.6509 0.176075C37.3776 0.178407 36.1572 0.685865 35.2577 1.58707C34.3581 2.48827 33.8529 3.70957 33.8529 4.98289V243.942C33.8529 245.215 34.3581 246.436 35.2577 247.337C36.1572 248.239 37.3776 248.746 38.6509 248.748H208.641C209.915 248.744 211.135 248.236 212.035 247.335C212.936 246.435 213.444 245.215 213.448 243.942V4.98289C213.444 3.70947 212.936 2.48953 212.035 1.58908C211.135 0.688634 209.915 0.180714 208.641 0.176075H38.6509Z" fill="#EBEBEB"/>
<path d="M399.081 248.968H229.082C227.75 248.964 226.474 248.433 225.532 247.491C224.59 246.549 224.059 245.273 224.055 243.942V4.98289C224.069 3.65803 224.604 2.39203 225.545 1.45929C226.486 0.526556 227.757 0.00224344 229.082 0H399.081C400.403 0.00458188 401.671 0.530202 402.609 1.46293C403.546 2.39567 404.079 3.66036 404.09 4.98289V243.942C404.091 244.601 403.963 245.253 403.712 245.863C403.46 246.472 403.092 247.026 402.627 247.492C402.162 247.959 401.609 248.33 401.001 248.583C400.392 248.836 399.74 248.967 399.081 248.968ZM229.082 0.176075C227.808 0.180714 226.588 0.688634 225.688 1.58908C224.787 2.48953 224.279 3.70947 224.275 4.98289V243.942C224.279 245.215 224.787 246.435 225.688 247.335C226.588 248.236 227.808 248.744 229.082 248.748H399.081C400.354 248.744 401.574 248.236 402.475 247.335C403.375 246.435 403.883 245.215 403.888 243.942V4.98289C403.883 3.70947 403.375 2.48953 402.475 1.58908C401.574 0.688634 400.354 0.180714 399.081 0.176075H229.082Z" fill="#EBEBEB"/>
<path d="M62.2188 102.198H138.6C138.6 102.198 134.488 92.6371 120.755 95.6127C120.755 95.6127 117.867 84.7402 107.391 86.2456C107.391 86.2456 98.7189 76.8433 86.068 80.488C73.4171 84.1327 74.5087 95.6127 74.5087 95.6127C74.5087 95.6127 65.1504 93.1653 62.2188 102.198Z" fill="#FAFAFA"/>
<path d="M266.645 43.972H190.273C190.273 43.972 194.376 34.4024 208.11 37.378C208.11 37.378 210.997 26.5054 221.483 28.0109C221.483 28.0109 230.154 18.6173 242.796 22.2621C255.438 25.9068 254.364 37.378 254.364 37.378C254.364 37.378 263.758 34.9394 266.645 43.972Z" fill="#FAFAFA"/>
<path d="M322.992 41.4661H381.422C381.422 41.4661 379.186 33.4459 370.735 36.087C370.735 36.087 372.495 25.2937 366.262 24.0435C360.029 22.7934 358.048 31.0073 358.048 31.0073C356.622 29.3908 354.773 28.2047 352.709 27.5825C350.645 26.9603 348.448 26.9268 346.366 27.4858C344.319 28.0189 342.453 29.0943 340.966 30.5987C339.478 32.1032 338.424 33.9809 337.914 36.0342C337.914 36.0342 327.508 30.0741 322.992 41.4661Z" fill="#FAFAFA"/>
<path d="M111.542 147.18H40.4609V288.012H111.542V147.18Z" fill="#E6E6E6"/>
<path d="M98.6181 147.18H40.4609V288.012H98.6181V147.18Z" fill="#F0F0F0"/>
<path d="M112.379 147.18H38.9297V149.477H112.379V147.18Z" fill="#E0E0E0"/>
<path d="M112.379 142.578H38.9297V144.876H112.379V142.578Z" fill="#E0E0E0"/>
<path d="M110.838 144.875H40.4609V147.173H110.838V144.875Z" fill="#F0F0F0"/>
<path d="M56.9019 155.453H45.9766V166.546H56.9019V155.453Z" fill="#E6E6E6"/>
<path d="M56.8945 155.453H46.9375V166.546H56.8945V155.453Z" fill="#F5F5F5"/>
<path d="M73.4488 155.453H62.5234V166.546H73.4488V155.453Z" fill="#E6E6E6"/>
<path d="M73.4413 155.453H63.4844V166.546H73.4413V155.453Z" fill="#F5F5F5"/>
<path d="M89.9879 155.453H79.0625V166.546H89.9879V155.453Z" fill="#E6E6E6"/>
<path d="M89.9804 155.453H80.0234V166.546H89.9804V155.453Z" fill="#F5F5F5"/>
<path d="M56.9019 171.789H45.9766V182.882H56.9019V171.789Z" fill="#E6E6E6"/>
<path d="M56.8945 171.789H46.9375V182.882H56.8945V171.789Z" fill="#F5F5F5"/>
<path d="M73.4488 171.789H62.5234V182.882H73.4488V171.789Z" fill="#E6E6E6"/>
<path d="M73.4413 171.789H63.4844V182.882H73.4413V171.789Z" fill="#F5F5F5"/>
<path d="M89.9879 171.789H79.0625V182.882H89.9879V171.789Z" fill="#E6E6E6"/>
<path d="M89.9804 171.789H80.0234V182.882H89.9804V171.789Z" fill="#F5F5F5"/>
<path d="M56.9019 201.703H45.9766V212.796H56.9019V201.703Z" fill="#E6E6E6"/>
<path d="M56.8945 201.703H46.9375V212.796H56.8945V201.703Z" fill="#F5F5F5"/>
<path d="M73.4488 201.703H62.5234V212.796H73.4488V201.703Z" fill="#E6E6E6"/>
<path d="M73.4413 201.703H63.4844V212.796H73.4413V201.703Z" fill="#F5F5F5"/>
<path d="M89.9879 201.703H79.0625V212.796H89.9879V201.703Z" fill="#E6E6E6"/>
<path d="M89.9804 201.703H80.0234V212.796H89.9804V201.703Z" fill="#F5F5F5"/>
<path d="M56.9019 218.016H45.9766V229.108H56.9019V218.016Z" fill="#E6E6E6"/>
<path d="M56.8945 218.016H46.9375V229.108H56.8945V218.016Z" fill="#F5F5F5"/>
<path d="M73.4488 218.016H62.5234V229.108H73.4488V218.016Z" fill="#E6E6E6"/>
<path d="M73.4413 218.016H63.4844V229.108H73.4413V218.016Z" fill="#F5F5F5"/>
<path d="M89.9879 218.016H79.0625V229.108H89.9879V218.016Z" fill="#E6E6E6"/>
<path d="M89.9804 218.016H80.0234V229.108H89.9804V218.016Z" fill="#F5F5F5"/>
<path d="M56.9019 251.266H45.9766V262.358H56.9019V251.266Z" fill="#E6E6E6"/>
<path d="M56.8945 251.266H46.9375V262.358H56.8945V251.266Z" fill="#F5F5F5"/>
<path d="M73.4488 251.266H62.5234V262.358H73.4488V251.266Z" fill="#E6E6E6"/>
<path d="M73.4413 251.266H63.4844V262.358H73.4413V251.266Z" fill="#F5F5F5"/>
<path d="M89.9879 251.266H79.0625V262.358H89.9879V251.266Z" fill="#E6E6E6"/>
<path d="M89.9804 251.266H80.0234V262.358H89.9804V251.266Z" fill="#F5F5F5"/>
<path d="M56.9019 267.602H45.9766V278.694H56.9019V267.602Z" fill="#E6E6E6"/>
<path d="M56.8945 267.602H46.9375V278.694H56.8945V267.602Z" fill="#F5F5F5"/>
<path d="M73.4488 267.602H62.5234V278.694H73.4488V267.602Z" fill="#E6E6E6"/>
<path d="M73.4413 267.602H63.4844V278.694H73.4413V267.602Z" fill="#F5F5F5"/>
<path d="M89.9879 267.602H79.0625V278.694H89.9879V267.602Z" fill="#E6E6E6"/>
<path d="M89.9804 267.602H80.0234V278.694H89.9804V267.602Z" fill="#F5F5F5"/>
<path d="M111.542 190.68H40.4609V191.71H111.542V190.68Z" fill="#E0E0E0"/>
<path d="M111.542 241.781H40.4609V242.811H111.542V241.781Z" fill="#E0E0E0"/>
<path d="M391.055 118.109H320.828V288.998H391.055V118.109Z" fill="#E0E0E0"/>
<path d="M371.053 118.109H320.828V288.998H371.053V118.109Z" fill="#F0F0F0"/>
<path d="M344.698 132.156H326.008V141.233H344.698V132.156Z" fill="#E6E6E6"/>
<path d="M344.707 132.156H327.258V141.233H344.707V132.156Z" fill="#F5F5F5"/>
<path d="M366.315 132.156H347.625V141.233H366.315V132.156Z" fill="#E6E6E6"/>
<path d="M366.316 132.156H348.867V141.233H366.316V132.156Z" fill="#F5F5F5"/>
<path d="M344.698 149.227H326.008V158.303H344.698V149.227Z" fill="#E6E6E6"/>
<path d="M344.707 149.227H327.258V158.303H344.707V149.227Z" fill="#F5F5F5"/>
<path d="M366.315 149.227H347.625V158.303H366.315V149.227Z" fill="#E6E6E6"/>
<path d="M366.316 149.227H348.867V158.303H366.316V149.227Z" fill="#F5F5F5"/>
<path d="M344.698 171.055H326.008V180.131H344.698V171.055Z" fill="#E6E6E6"/>
<path d="M344.707 171.055H327.258V180.131H344.707V171.055Z" fill="#F5F5F5"/>
<path d="M366.315 171.055H347.625V180.131H366.315V171.055Z" fill="#E6E6E6"/>
<path d="M366.316 171.055H348.867V180.131H366.316V171.055Z" fill="#F5F5F5"/>
<path d="M344.698 183.609H326.008V192.686H344.698V183.609Z" fill="#E6E6E6"/>
<path d="M344.707 183.609H327.258V192.686H344.707V183.609Z" fill="#F5F5F5"/>
<path d="M366.315 183.609H347.625V192.686H366.315V183.609Z" fill="#E6E6E6"/>
<path d="M366.316 183.609H348.867V192.686H366.316V183.609Z" fill="#F5F5F5"/>
<path d="M344.698 204.211H326.008V213.288H344.698V204.211Z" fill="#E6E6E6"/>
<path d="M344.707 204.211H327.258V213.288H344.707V204.211Z" fill="#F5F5F5"/>
<path d="M366.315 204.211H347.625V213.288H366.315V204.211Z" fill="#E6E6E6"/>
<path d="M366.316 204.211H348.867V213.288H366.316V204.211Z" fill="#F5F5F5"/>
<path d="M344.698 216.75H326.008V225.827H344.698V216.75Z" fill="#E6E6E6"/>
<path d="M344.707 216.75H327.258V225.827H344.707V216.75Z" fill="#F5F5F5"/>
<path d="M366.315 216.75H347.625V225.827H366.315V216.75Z" fill="#E6E6E6"/>
<path d="M366.316 216.75H348.867V225.827H366.316V216.75Z" fill="#F5F5F5"/>
<path d="M344.698 239.188H326.008V248.264H344.698V239.188Z" fill="#E6E6E6"/>
<path d="M344.707 239.188H327.258V248.264H344.707V239.188Z" fill="#F5F5F5"/>
<path d="M366.315 239.188H347.625V248.264H366.315V239.188Z" fill="#E6E6E6"/>
<path d="M366.316 239.188H348.867V248.264H366.316V239.188Z" fill="#F5F5F5"/>
<path d="M344.698 255.742H326.008V264.819H344.698V255.742Z" fill="#E6E6E6"/>
<path d="M344.707 255.742H327.258V264.819H344.707V255.742Z" fill="#F5F5F5"/>
<path d="M366.315 255.742H347.625V264.819H366.315V255.742Z" fill="#E6E6E6"/>
<path d="M366.316 255.742H348.867V264.819H366.316V255.742Z" fill="#F5F5F5"/>
<path opacity="0.05" d="M391.055 163.898H320.828V165.457H391.055V163.898Z" fill="black"/>
<path opacity="0.05" d="M391.055 197.664H320.828V199.222H391.055V197.664Z" fill="black"/>
<path opacity="0.05" d="M391.055 231.719H320.828V233.277H391.055V231.719Z" fill="black"/>
<path d="M391.053 113.062H317.516V118.521H391.053V113.062Z" fill="#E0E0E0"/>
<path opacity="0.05" d="M391.056 113.062H374.25V118.521H391.056V113.062Z" fill="black"/>
<path d="M220.806 79.7422H141.414V286.083H220.806V79.7422Z" fill="#E6E6E6"/>
<path d="M191.432 79.7422H112.031V286.083H191.432V79.7422Z" fill="#F0F0F0"/>
<path d="M184.504 93.75H118.961V104.262H184.504V93.75Z" fill="#E6E6E6"/>
<path d="M184.515 93.75H121.516V104.262H184.515V93.75Z" fill="#F5F5F5"/>
<path d="M184.504 111.453H118.961V121.965H184.504V111.453Z" fill="#E6E6E6"/>
<path d="M184.515 111.453H121.516V121.965H184.515V111.453Z" fill="#F5F5F5"/>
<path d="M184.504 129.82H118.961V140.332H184.504V129.82Z" fill="#E6E6E6"/>
<path d="M184.515 129.82H121.516V140.332H184.515V129.82Z" fill="#F5F5F5"/>
<path d="M184.504 148.219H118.961V158.73H184.504V148.219Z" fill="#E6E6E6"/>
<path d="M184.515 148.219H121.516V158.73H184.515V148.219Z" fill="#F5F5F5"/>
<path d="M184.504 166.609H118.961V177.121H184.504V166.609Z" fill="#E6E6E6"/>
<path d="M184.515 166.609H121.516V177.121H184.515V166.609Z" fill="#F5F5F5"/>
<path d="M184.504 184.992H118.961V195.504H184.504V184.992Z" fill="#E6E6E6"/>
<path d="M184.515 184.992H121.516V195.504H184.515V184.992Z" fill="#F5F5F5"/>
<path d="M184.504 205.258H118.961V215.769H184.504V205.258Z" fill="#E6E6E6"/>
<path d="M184.515 205.258H121.516V215.769H184.515V205.258Z" fill="#F5F5F5"/>
<path d="M184.504 225.523H118.961V236.035H184.504V225.523Z" fill="#E6E6E6"/>
<path d="M184.515 225.523H121.516V236.035H184.515V225.523Z" fill="#F5F5F5"/>
<path d="M184.504 245.781H118.961V256.293H184.504V245.781Z" fill="#E6E6E6"/>
<path d="M184.515 245.781H121.516V256.293H184.515V245.781Z" fill="#F5F5F5"/>
<path d="M184.504 266.047H118.961V276.558H184.504V266.047Z" fill="#E6E6E6"/>
<path d="M184.515 266.047H121.516V276.558H184.515V266.047Z" fill="#F5F5F5"/>
<path d="M222.889 77.6719H109.797V82.7076H222.889V77.6719Z" fill="#F5F5F5"/>
<path d="M222.889 68.5938H109.797V73.6295H222.889V68.5938Z" fill="#F5F5F5"/>
<path d="M219.119 72.6406H112.031V77.6763H219.119V72.6406Z" fill="#F0F0F0"/>
<path d="M220.827 93.75H198.703V104.262H220.827V93.75Z" fill="#E0E0E0"/>
<path d="M220.827 111.055H198.703V121.566H220.827V111.055Z" fill="#E0E0E0"/>
<path d="M220.827 128.352H198.703V138.863H220.827V128.352Z" fill="#E0E0E0"/>
<path d="M220.827 148.211H198.703V158.723H220.827V148.211Z" fill="#E0E0E0"/>
<path d="M220.827 166.609H198.703V177.121H220.827V166.609Z" fill="#E0E0E0"/>
<path d="M220.827 184.992H198.703V195.504H220.827V184.992Z" fill="#E0E0E0"/>
<path d="M220.827 205.258H198.703V215.769H220.827V205.258Z" fill="#E0E0E0"/>
<path d="M220.827 225.523H198.703V236.035H220.827V225.523Z" fill="#E0E0E0"/>
<path d="M220.827 245.781H198.703V256.293H220.827V245.781Z" fill="#E0E0E0"/>
<path d="M220.827 266.047H198.703V276.558H220.827V266.047Z" fill="#E0E0E0"/>
<path d="M322.874 151.859H314.141V165.523H322.874V151.859Z" fill="#E0E0E0"/>
<path d="M322.874 174.211H314.141V187.874H322.874V174.211Z" fill="#E0E0E0"/>
<path d="M322.874 195.953H314.141V209.616H322.874V195.953Z" fill="#E0E0E0"/>
<path d="M322.874 218.93H314.141V232.593H322.874V218.93Z" fill="#E0E0E0"/>
<path d="M322.874 241.281H314.141V254.945H322.874V241.281Z" fill="#E0E0E0"/>
<path d="M322.878 138.117H230.977V277.885H322.878V138.117Z" fill="#E6E6E6"/>
<path d="M307.349 138.117H230.977V277.885H307.349V138.117Z" fill="#F0F0F0"/>
<path d="M299.953 151.859H237.852V165.523H299.953V151.859Z" fill="#EBEBEB"/>
<path d="M299.953 174.211H237.852V187.874H299.953V174.211Z" fill="#EBEBEB"/>
<path d="M299.953 196.578H237.852V210.241H299.953V196.578Z" fill="#EBEBEB"/>
<path d="M299.953 218.93H237.852V232.593H299.953V218.93Z" fill="#EBEBEB"/>
<path d="M299.953 241.281H237.852V254.945H299.953V241.281Z" fill="#EBEBEB"/>
<path d="M299.953 151.859H240.141V165.523H299.953V151.859Z" fill="#F5F5F5"/>
<path d="M299.953 174.211H240.141V187.874H299.953V174.211Z" fill="#F5F5F5"/>
<path d="M299.953 196.578H240.141V210.241H299.953V196.578Z" fill="#F5F5F5"/>
<path d="M299.953 218.93H240.141V232.593H299.953V218.93Z" fill="#F5F5F5"/>
<path d="M299.953 241.281H240.141V254.945H299.953V241.281Z" fill="#F5F5F5"/>
<path d="M220.101 328.002C314.373 328.002 390.796 323.54 390.796 318.036C390.796 312.532 314.373 308.07 220.101 308.07C125.829 308.07 49.4062 312.532 49.4062 318.036C49.4062 323.54 125.829 328.002 220.101 328.002Z" fill="#F5F5F5"/>
<path d="M123.014 318.031H119.492" stroke="#A579E1" stroke-width="0.880369" stroke-linecap="round" stroke-linejoin="round"/>
<path d="M112.844 318.031H22.9141" stroke="#A579E1" stroke-width="0.880369" stroke-linecap="round" stroke-linejoin="round" stroke-dasharray="6.66 6.66"/>
<path d="M19.584 318.031H16.0625" stroke="#A579E1" stroke-width="0.880369" stroke-linecap="round" stroke-linejoin="round"/>
<path d="M332.581 107.292L231 108.977L232.216 182.31L333.797 180.626L332.581 107.292Z" fill="#A579E1"/>
<path opacity="0.3" d="M292.298 107.95L230.883 108.969L232.099 182.302L293.514 181.284L292.298 107.95Z" fill="white"/>
<path opacity="0.3" d="M301.562 112.904L283.875 113.258L283.974 118.188L301.66 117.834L301.562 112.904Z" fill="white"/>
<path opacity="0.3" d="M302.09 169.91L284.406 170.203L284.488 175.133L302.172 174.839L302.09 169.91Z" fill="white"/>
<path d="M313.88 154.23C319.612 154.23 324.259 148.972 324.259 142.486C324.259 136 319.612 130.742 313.88 130.742C308.147 130.742 303.5 136 303.5 142.486C303.5 148.972 308.147 154.23 313.88 154.23Z" stroke="white" stroke-width="0.880369" stroke-miterlimit="10"/>
<path d="M314.305 132.539V134.511" stroke="white" stroke-width="0.880369" stroke-linecap="round" stroke-linejoin="round"/>
<path d="M314.758 150.602V152.574" stroke="white" stroke-width="0.880369" stroke-linecap="round" stroke-linejoin="round"/>
<path d="M305.125 142.102H307.106" stroke="white" stroke-width="0.880369" stroke-linecap="round" stroke-linejoin="round"/>
<path d="M321.016 142.109H322.996" stroke="white" stroke-width="0.880369" stroke-linecap="round" stroke-linejoin="round"/>
<path d="M314.297 142.098L314.306 136.023" stroke="white" stroke-width="0.440185" stroke-linecap="round" stroke-linejoin="round"/>
<path d="M314.695 142.492L318.992 146.788" stroke="white" stroke-width="0.440185" stroke-linecap="round" stroke-linejoin="round"/>
<path d="M315.263 142.1C315.263 142.29 315.207 142.476 315.101 142.633C314.996 142.791 314.846 142.914 314.671 142.987C314.495 143.059 314.302 143.078 314.116 143.041C313.93 143.004 313.759 142.913 313.625 142.779C313.491 142.645 313.399 142.474 313.362 142.287C313.325 142.101 313.344 141.908 313.417 141.733C313.489 141.558 313.612 141.408 313.77 141.302C313.928 141.197 314.114 141.141 314.303 141.141C314.43 141.139 314.555 141.164 314.672 141.211C314.789 141.259 314.895 141.33 314.985 141.419C315.074 141.508 315.144 141.615 315.192 141.732C315.24 141.849 315.264 141.974 315.263 142.1Z" fill="white"/>
<path opacity="0.3" d="M313.875 157.336C321.465 157.336 327.618 150.687 327.618 142.485C327.618 134.282 321.465 127.633 313.875 127.633C306.286 127.633 300.133 134.282 300.133 142.485C300.133 150.687 306.286 157.336 313.875 157.336Z" fill="white"/>
<path d="M199.734 271.297C201.266 272.468 232.018 269.158 224.068 214.602C224.068 214.602 238.655 218.308 240.223 218.061C240.223 218.061 261.624 250.873 246.042 267.124C230.459 283.376 207.235 284.371 207.235 284.371L199.734 271.297Z" fill="#A579E1"/>
<path opacity="0.3" d="M199.734 271.297C201.266 272.468 232.018 269.158 224.068 214.602C224.068 214.602 238.655 218.308 240.223 218.061C240.223 218.061 261.624 250.873 246.042 267.124C230.459 283.376 207.235 284.371 207.235 284.371L199.734 271.297Z" fill="black"/>
<path d="M233.818 223.037C233.897 223.037 225.225 223.204 222.32 219.595C219.415 215.985 217.452 209.532 222.734 205.13C228.016 200.728 259.031 181.712 273.637 180.216C288.242 178.719 303.877 188.139 303.877 188.139L284.756 202.278L243.581 212.244L233.818 223.037Z" fill="#263238"/>
<path d="M205.781 262.693L206.582 270.581L216.055 269.78L214.629 261.672L205.781 262.693Z" fill="#F4C9CB"/>
<path d="M203.929 270.014L217.672 269.82L218.649 276.758C218.649 276.758 205.778 276.934 200.487 276.229C195.196 275.525 196.024 272.77 196.024 272.77C196.024 272.77 202.221 272.919 203.929 270.014Z" fill="#263238"/>
<path d="M323.876 289.979C325.928 269.813 313.754 252.057 296.683 250.32C279.613 248.583 264.111 263.523 262.059 283.689C260.007 303.855 272.182 321.611 289.252 323.348C306.323 325.085 321.824 310.145 323.876 289.979Z" fill="#263238"/>
<path d="M271.367 174.573C271.367 174.573 272.793 207.296 253.76 208.229C234.726 209.162 214.275 207.076 214.275 207.076L220.27 265.876L202.425 266.976C202.425 266.976 189.616 217.095 187.6 204.558C185.584 192.022 187.336 183.156 200.568 177.592C213.8 172.028 271.367 174.573 271.367 174.573Z" fill="#A579E1"/>
<path d="M164.849 278.395L188.558 209.533L220.251 174.547C220.251 174.547 192.59 174.653 179.296 182.294C166.003 189.936 165.51 199.118 163.071 210.043C160.632 220.969 150.852 272.682 150.852 272.682L164.849 278.395Z" fill="#A579E1"/>
<path opacity="0.7" d="M271.365 174.575C271.365 174.575 241.908 173.263 220.304 174.575C220.304 174.575 192.643 174.681 179.349 182.322C166.056 189.964 165.51 199.12 163.071 210.045C160.632 220.971 150.852 272.684 150.852 272.684L164.849 278.397L188.558 209.535C192.546 228.621 202.424 266.944 202.424 266.944L220.269 265.878L214.265 207.114C214.265 207.114 234.707 209.2 253.749 208.267C272.792 207.334 271.365 174.575 271.365 174.575Z" fill="black"/>
<path d="M222.732 121.492L211.789 122.822C211.789 122.822 209.888 142.938 208.118 146.847C208.118 146.847 174.462 151.469 160.675 151.073L153.676 155.827L153.43 164.093L160.288 164.296L162.497 159.058C162.497 159.058 167.128 158.855 168.202 156.249C168.202 156.249 203.963 164.886 217.133 155.025C217.151 155.034 225.092 143.369 222.732 121.492Z" fill="#F4C9CB"/>
<path d="M254.098 67.6172C254.098 67.6172 257.523 72.019 256.22 75.831C255.86 76.9182 255.227 77.8943 254.38 78.6653C253.534 79.4363 252.503 79.9762 251.387 80.2329C251.387 80.2329 250.744 86.3338 247.143 86.5099C243.543 86.686 244.749 73.0667 244.749 73.0667L254.098 67.6172Z" fill="#263238"/>
<path d="M226.372 174.714L223.968 135.388L209.055 125.475C209.055 125.475 213.932 108.282 223.264 105.368C232.596 102.454 252.95 95.7717 265.293 99.0907C277.635 102.41 276.218 116.971 274.096 127.773L271.719 128.337C271.719 128.337 271.35 170.902 271.332 174.565L226.372 174.714Z" fill="#263238"/>
<path d="M253.209 101.525C248.323 106.253 238.358 109.07 235.602 106.719C232.847 104.369 236.324 102.212 238.912 99.5532C240.312 98.0918 240.268 95.3539 239.942 93.1705C239.771 92.0704 239.518 90.9846 239.185 89.922C230.038 89.4202 226.244 85.1416 225.865 77.5968C225.487 70.052 228.903 61.2924 228.903 61.2924L235.364 55.7812C235.364 55.7812 244.168 57.1018 251.211 61.9438C255.402 64.7962 254.16 70.413 252.426 74.5595C251.691 76.3246 250.808 78.0239 249.785 79.6393C248.799 89.966 253.209 101.525 253.209 101.525Z" fill="#F4C9CB"/>
<path d="M230.953 79.6723C230.953 79.6723 234.475 79.8396 236.015 77.6562" stroke="#263238" stroke-width="0.880369" stroke-linecap="round" stroke-linejoin="round"/>
<path d="M236.549 70.7561C236.549 71.4252 236.144 71.9534 235.669 71.9446C235.194 71.9358 234.85 71.3811 234.868 70.712C234.885 70.043 235.273 69.5147 235.748 69.5235C236.224 69.5323 236.576 70.087 236.549 70.7561Z" fill="#263238"/>
<path d="M228.542 70.9904C228.542 71.6595 228.137 72.1877 227.661 72.1789C227.186 72.1701 226.842 71.6155 226.86 70.9464C226.878 70.2773 227.265 69.7491 227.74 69.7579C228.216 69.7667 228.568 70.3302 228.542 70.9904Z" fill="#263238"/>
<path d="M231.331 76.4435L230.97 71.0469L228.391 76.1706C228.793 76.5128 229.292 76.7226 229.818 76.7714C230.344 76.8203 230.872 76.7058 231.331 76.4435Z" fill="#E7B4B6"/>
<path d="M236.133 66.5354C236.808 66.3498 237.527 66.4099 238.163 66.7049C238.798 67 239.308 67.5108 239.601 68.1465" stroke="#263238" stroke-width="0.880369" stroke-linecap="round" stroke-linejoin="round"/>
<path d="M226.047 67.5335C226.047 67.5335 227.667 65.7727 229.568 66.2217" stroke="#263238" stroke-width="0.880369" stroke-linecap="round" stroke-linejoin="round"/>
<path d="M252.48 74.5527C242.408 74.9137 241.158 63.4953 241.158 63.4953C236.175 66.1364 228.93 61.2943 228.93 61.2943L235.392 55.7656C235.392 55.7656 244.195 57.1038 251.238 61.9282C255.455 64.7894 254.214 70.4238 252.48 74.5527Z" fill="#263238"/>
<path d="M225.686 64.6479C225.686 64.6479 220.475 61.1792 222.772 58.679C225.07 56.1787 239.147 60.9327 249.668 66.7608C249.668 66.7608 225.572 50.6412 219.022 55.7385C213.608 59.9555 225.616 65.81 225.255 65.8012L225.686 64.6479Z" fill="#A579E1"/>
<path d="M255.084 63.4708C255.069 65.2963 254.723 67.104 254.063 68.8058L230.398 57.3611C231.379 56.229 232.554 55.2809 233.867 54.5615C235.268 53.7604 236.79 53.1952 238.375 52.8888C240.054 52.5676 241.774 52.5082 243.472 52.7127C252.126 53.7075 255.128 60.3631 255.084 63.4708Z" fill="#A579E1"/>
<path d="M200.726 168.731C199.185 170.343 179.263 166.214 175.785 168.062C174.315 168.837 173.672 171.584 172.193 174.595C170.177 178.688 166.594 183.178 157.227 183.478C140.958 183.997 142.921 167.49 141.636 162.129C141.636 162.129 126.229 159.32 125.419 156.618C124.609 153.915 125.604 153.51 125.604 153.51C125.604 153.51 144.611 157.031 148.291 152.225C149.004 151.528 149.84 150.97 150.756 150.578C152.868 149.65 155.14 149.138 157.447 149.073C164.147 148.721 172.316 150.605 174.605 154.848C179.254 163.502 199.185 161.556 201.016 163.828C202.848 166.099 202.267 167.12 200.726 168.731Z" fill="#A579E1"/>
<path d="M150.302 180.008C150.302 180.008 123.574 216.983 145.583 273.899" stroke="#263238" stroke-width="0.880369" stroke-linecap="round" stroke-linejoin="round"/>
<path d="M185.575 199.227C185.575 199.227 185.575 199.297 185.575 199.438C185.575 199.579 185.575 199.658 185.575 199.817V199.905C185.257 203.466 184.668 206.998 183.814 210.469C182.599 215.602 180.988 220.488 179.658 224.414C174.024 241.097 174.676 259.074 174.676 259.074C172.809 256.75 169.393 255.095 165.124 253.933C149.576 249.663 123.183 251.952 123.183 251.952C118.006 233.79 119.855 205.363 125.005 189.446C130.155 173.529 144.435 177.121 144.435 177.121C144.435 177.121 159.507 177.561 161.4 177.359C164.864 176.938 168.37 177.009 171.814 177.57C183.453 179.7 186.252 188.9 185.575 199.227Z" fill="#A579E1"/>
<path d="M301.612 268.517C275.201 292.358 224.219 294.858 186.284 292.217L165.032 253.983L156.422 238.497L184.083 201.213L185.544 199.25C185.544 199.25 185.544 199.32 185.544 199.461C185.544 199.602 185.544 199.681 185.544 199.84V199.928C185.166 206.575 182.719 259.916 202.272 272.999L202.43 273.113C205.076 274.823 208.146 275.762 211.295 275.825C247.17 276.863 246.167 230.045 237.046 220.018L299.297 207.508C299.297 207.508 311.587 238.453 301.612 268.517Z" fill="#A579E1"/>
<path d="M232.368 209.858C232.368 209.858 226.532 214.701 229.542 221.198C232.553 227.695 261.579 215.079 273.006 212.781C284.433 210.484 297.657 208.239 303.344 207.068C309.031 205.897 308.538 189.584 303.89 188.14C299.241 186.696 253.709 194.743 246.155 199.162C241.167 202.191 236.542 205.78 232.368 209.858Z" fill="#263238"/>
<path d="M246.988 78.5983C246.433 78.0002 246.096 77.2315 246.034 76.4177C245.972 75.6038 246.187 74.7929 246.645 74.1172C248.053 72.0043 250.897 68.6501 253.626 71.1591C257.447 74.6806 250.923 81.0809 248.221 79.5315C247.768 79.2799 247.353 78.9658 246.988 78.5983Z" fill="#F4C9CB"/>
<path opacity="0.2" d="M225.704 64.6479C225.704 64.6479 220.492 61.1792 222.79 58.679C223.811 57.5697 226.866 57.7986 230.995 58.9783C233.65 59.6931 236.251 60.5963 238.778 61.681C242.405 63.2569 246.261 65.273 249.686 66.7608C249.686 66.7608 225.59 50.6412 219.04 55.7385C213.626 59.9555 224.886 65.4226 225.282 65.7924L225.475 65.0793L225.704 64.6479Z" fill="black"/>
<path d="M228.17 63.1406C228.17 63.1406 222.888 64.021 226.532 69.7082L228.17 63.1406Z" fill="#263238"/>
<path d="M233.232 59.6773C233.232 59.6773 225.265 56.8777 223.047 58.4623C220.828 60.047 223.152 63.0667 225.688 64.6249L227.721 64.889L228.919 61.2795L232.017 60.901L233.232 59.6773Z" fill="#263238"/>
<path opacity="0.3" d="M244.095 55.3703L242.185 58.1963L233.883 54.5868C235.283 53.7856 236.806 53.2205 238.39 52.9141L244.095 55.3703Z" fill="white"/>
<path opacity="0.1" d="M242.231 89.1484C241.681 90.6095 240.893 91.9692 239.898 93.1717C239.726 92.0716 239.473 90.9858 239.141 89.9232C240.208 89.8486 241.254 89.5863 242.231 89.1484Z" fill="black"/>
<path d="M163.318 166.57C162.965 172.671 160.324 177.663 157.085 178.895C156.524 179.111 155.924 179.204 155.324 179.168C151.327 178.939 148.422 172.944 148.827 165.786C149.232 158.629 152.806 153.012 156.803 153.241C158.432 153.329 159.867 154.377 160.985 156.058C162.631 158.471 163.555 162.327 163.318 166.57Z" fill="#F5F5F5"/>
<path d="M163.312 166.568C162.96 172.669 160.319 177.661 157.079 178.894C153.381 178.682 150.696 173.145 151.075 166.568C151.453 159.992 154.746 154.771 158.443 154.983C159.396 155.054 160.298 155.441 161.005 156.083C162.625 158.469 163.549 162.325 163.312 166.568Z" fill="white"/>
<path d="M306.003 253.051C299.197 248.27 272.866 243.578 272.866 243.578C256.869 243.578 242.827 257.972 240.891 277.085C239.306 292.632 246.173 306.745 257.239 313.18C257.239 313.18 258.163 313.567 259.713 314.175C265.576 316.49 280.454 322.098 289.249 323.331" fill="#263238"/>
<path opacity="0.3" d="M323.876 289.979C325.928 269.813 313.754 252.057 296.683 250.32C279.613 248.583 264.111 263.523 262.059 283.689C260.007 303.855 272.182 321.611 289.252 323.348C306.323 325.085 321.824 310.145 323.876 289.979Z" fill="black"/>
<path d="M187.009 288.799C189.061 268.633 176.886 250.877 159.816 249.14C142.746 247.403 127.244 262.343 125.192 282.509C123.14 302.676 135.315 320.432 152.385 322.168C169.456 323.905 184.957 308.966 187.009 288.799Z" fill="#263238"/>
<path d="M175.089 255.868L159.348 321.958C157.052 322.33 154.717 322.398 152.402 322.16H152.226C149.207 321.385 150.554 322.222 147.525 321.218C139.822 318.674 128.632 314.175 128.632 314.175C116.774 308.409 110.074 294.385 111.703 278.362C113.675 258.95 127.602 244.45 143.995 245.638C143.995 245.638 151.777 247.073 159.789 249.16C163.31 250.04 166.832 251.088 169.728 252.18C171.646 253.208 173.444 254.445 175.089 255.868Z" fill="#263238"/>
<path opacity="0.3" d="M187.013 288.767C185.253 306.155 173.482 319.651 159.335 321.931C157.038 322.303 154.703 322.371 152.389 322.133H152.212C148.989 321.785 145.856 320.852 142.969 319.378C131.075 313.347 123.548 298.698 125.194 282.499C127.245 262.347 142.713 247.425 159.775 249.133H159.819C163.283 249.483 166.645 250.509 169.714 252.153C171.632 253.184 173.43 254.424 175.076 255.85C183.501 263.175 188.404 275.465 187.013 288.767Z" fill="black"/>
<path d="M182.717 265.605C182.201 264.782 181.612 264.007 180.956 263.29C177.021 257.92 168.024 255.912 162.134 256.388C157.619 256.828 153.284 258.383 149.518 260.913C145.222 263.695 142.15 267.956 137.889 270.879C129.807 276.46 117.543 276.302 109.426 270.553C108.969 270.227 108.533 269.872 108.123 269.488C107.296 268.627 106.744 267.539 106.539 266.362C106.228 264.894 106.341 263.367 106.864 261.961C108.625 257.013 114.497 252.664 118.204 250.014C125.718 244.712 134.556 241.601 143.734 241.025C169.908 239.221 181.071 261.573 182.717 265.605Z" fill="#A579E1"/>
<path opacity="0.3" d="M180.907 266.321C175.282 258.204 168.063 255.923 162.173 256.399C157.658 256.839 153.323 258.394 149.557 260.924C145.261 263.706 142.189 267.967 137.928 270.89C129.846 276.471 117.582 276.313 109.465 270.564C109.008 270.239 108.572 269.883 108.162 269.499C107.335 268.638 106.783 267.55 106.578 266.373C106.267 264.905 106.38 263.378 106.903 261.972C109.624 265.114 117.547 272.686 128.279 269.015C141.66 264.393 144.927 250.659 159.233 250.782C170.598 250.914 177.597 259.718 180.907 266.321Z" fill="black"/>
<g opacity="0.3">
<path d="M122.039 247.592C125.857 244.879 130.152 242.91 134.699 241.79C139.25 240.631 143.964 240.245 148.644 240.645C153.316 241.095 157.891 242.259 162.21 244.096L163.813 244.801L165.38 245.584C166.436 246.077 167.431 246.694 168.452 247.257C169.473 247.82 170.415 248.516 171.393 249.141C172.37 249.766 173.285 250.497 174.219 251.192C170.379 248.62 166.281 246.457 161.99 244.739C157.708 243.021 153.196 241.944 148.6 241.543C144.013 241.105 139.386 241.402 134.892 242.424C132.637 242.924 130.426 243.607 128.281 244.466C126.104 245.304 124.014 246.351 122.039 247.592Z" fill="black"/>
</g>
<g opacity="0.3">
<path d="M150.549 241.314C149.451 237.643 148.792 233.854 148.586 230.028C148.295 226.216 148.234 222.386 148.313 218.583C148.392 214.78 148.656 210.941 149.008 207.138L149.651 201.451C149.933 199.558 150.179 197.665 150.531 195.781L149.73 207.226L149.413 212.931C149.361 214.832 149.246 216.734 149.237 218.636C149.088 222.439 149.158 226.242 149.299 230.08C149.361 231.982 149.51 233.875 149.704 235.768C149.859 237.634 150.141 239.487 150.549 241.314Z" fill="black"/>
</g>
<path opacity="0.3" d="M202.228 272.917C183.846 261.094 183.116 230.589 183.741 210.464C183.855 207.004 183.996 203.861 184.102 201.158C184.295 198.453 184.295 195.738 184.102 193.033C182.244 179.211 171.68 177.547 171.68 177.547H171.724C183.424 179.695 186.223 188.895 185.546 199.222C185.546 199.222 185.546 199.292 185.546 199.433C185.546 199.574 185.546 199.653 185.546 199.811V199.899C185.149 206.546 182.702 259.888 202.228 272.917Z" fill="black"/>
<path opacity="0.2" d="M200.737 168.743C199.197 170.354 179.274 166.225 175.797 168.074C174.326 168.849 173.684 171.596 172.205 174.606C168.049 181.209 162.204 182.248 161.843 182.301C168.815 177.019 170.761 164.306 167.301 156.268C163.841 148.231 151.454 150.317 150.75 150.555C152.862 149.626 155.134 149.115 157.441 149.049C164.14 148.697 172.31 150.581 174.599 154.825C179.248 163.479 199.179 161.533 201.01 163.804C202.841 166.076 202.278 167.132 200.737 168.743Z" fill="black"/>
<path d="M185.123 161.055C183.912 163.29 183.429 165.848 183.741 168.371L200.617 170.272C201.48 169.274 202.118 168.101 202.487 166.834C202.856 165.567 202.948 164.236 202.757 162.93C202.757 162.93 186.039 161.248 185.123 161.055Z" fill="#263238"/>
<path d="M133.88 160.421C133.88 160.421 132.198 156.847 134.214 154.584C129.707 154.179 126.916 153.704 124.011 153.281C123.579 154.593 123.368 155.852 124.891 157.85C126.414 159.849 133.88 160.421 133.88 160.421Z" fill="#263238"/>
<path d="M124.51 182.797C121.588 187.56 119.087 195.184 118.867 207.359" stroke="#A579E1" stroke-width="0.880369" stroke-linecap="round" stroke-linejoin="round"/>
<path d="M134.13 174.945C132.003 175.439 130.048 176.494 128.469 178" stroke="#A579E1" stroke-width="0.880369" stroke-linecap="round" stroke-linejoin="round"/>
<path d="M265.423 129.047L254.312 130.403C254.312 130.403 252.376 150.818 250.58 154.789C250.58 154.789 216.412 159.49 202.406 159.076L195.301 163.901L195.055 172.299L202.018 172.502L204.263 167.22C204.263 167.22 208.965 167.017 210.047 164.367C210.047 164.367 246.354 173.171 259.727 163.135C259.718 163.1 267.791 151.259 265.423 129.047Z" fill="#F4C9CB"/>
<path opacity="0.2" d="M174.943 286.118C174.627 297.193 167.372 305.962 158.736 305.715C157.575 305.681 156.425 305.482 155.32 305.125C148.4 302.924 143.417 294.763 143.69 285.211C143.963 275.968 149.061 268.326 155.76 266.204C157.099 265.774 158.501 265.574 159.907 265.614C168.543 265.87 175.269 275.078 174.943 286.118Z" fill="#FAFAFA"/>
<path d="M166.994 286.122C166.721 295.577 161.712 303.351 155.32 305.155C148.4 302.955 143.417 294.794 143.69 285.242C143.963 275.998 149.061 268.356 155.76 266.234C162.416 268.039 167.267 276.332 166.994 286.122Z" fill="#263238"/>
<path opacity="0.2" d="M310.593 287.009C310.267 298.084 303.013 306.861 294.385 306.606C293.224 306.576 292.073 306.377 290.969 306.016C284.041 303.815 279.058 295.663 279.339 286.102C279.604 276.867 284.701 269.217 291.401 267.095C292.739 266.664 294.141 266.465 295.547 266.505C304.184 266.76 310.91 275.951 310.593 287.009Z" fill="#FAFAFA"/>
<path d="M302.643 286.998C302.361 296.444 297.361 304.218 290.969 306.023C284.041 303.822 279.058 295.67 279.339 286.109C279.604 276.874 284.701 269.223 291.401 267.102C298.065 268.906 302.925 277.199 302.643 286.998Z" fill="#263238"/>
<path d="M324.211 257.822C324.361 268.712 307.783 275.923 280.043 280.465C272.565 281.78 264.923 281.869 257.417 280.729C245.092 278.696 239.07 273.484 239.07 273.484C239.07 273.484 242.204 235.848 273.22 231.077C294.349 227.837 310.248 236.359 318.312 245.541C322.107 249.855 324.167 254.336 324.211 257.822Z" fill="#A579E1"/>
<path opacity="0.3" d="M324.215 257.819C324.365 268.709 307.788 275.919 280.047 280.462C272.57 281.777 264.928 281.866 257.422 280.726C258.751 270.505 264.72 243.698 290.665 240.916C302.435 239.648 311.521 242.025 318.317 245.538C322.111 249.851 324.171 254.332 324.215 257.819Z" fill="black"/>
<g opacity="0.3">
<path d="M240.867 273.658C241.438 268.535 242.66 263.506 244.503 258.692C246.316 253.828 248.818 249.25 251.933 245.099C253.508 243.035 255.276 241.128 257.216 239.403C259.137 237.65 261.255 236.126 263.528 234.86C268.05 232.31 273.06 230.747 278.23 230.273C275.697 230.698 273.205 231.34 270.782 232.193C269.558 232.562 268.405 233.135 267.261 233.619C266.112 234.169 264.993 234.777 263.906 235.441C262.797 236.075 261.776 236.841 260.728 237.554C259.681 238.267 258.712 239.112 257.788 240.002C255.908 241.71 254.195 243.594 252.673 245.627C249.58 249.699 247.06 254.174 245.181 258.929C244.206 261.298 243.365 263.72 242.663 266.184C241.916 268.637 241.316 271.133 240.867 273.658Z" fill="black"/>
</g>
<path d="M199.242 261.225L201.073 267.44L220.274 265.838L220.53 257.148L199.242 261.225Z" fill="#A579E1"/>
<path d="M313.555 218.842L355.804 217.125" stroke="#A579E1" stroke-width="0.880369" stroke-linecap="round" stroke-linejoin="round"/>
<path d="M369.773 209.419L376.05 209.164" stroke="#A579E1" stroke-width="0.880369" stroke-linecap="round" stroke-linejoin="round"/>
<path d="M333.797 210.885L364.944 209.617" stroke="#A579E1" stroke-width="0.880369" stroke-linecap="round" stroke-linejoin="round"/>
<path d="M355.594 232.767L381.697 231.711" stroke="#A579E1" stroke-width="0.880369" stroke-linecap="round" stroke-linejoin="round"/>
<path d="M339.461 233.428L350.835 232.961" stroke="#A579E1" stroke-width="0.880369" stroke-linecap="round" stroke-linejoin="round"/>
</svg>
