<svg width="1920" height="790" viewBox="0 0 1920 790" fill="none" xmlns="http://www.w3.org/2000/svg">
<g clip-path="url(#clip0_2163_4730)">
<path opacity="0.5" d="M1624.77 265.508C1715.62 265.508 1789.27 191.859 1789.27 101.008H1460.27C1460.27 191.859 1533.92 265.508 1624.77 265.508ZM1624.77 430.008C1715.62 430.008 1789.27 356.359 1789.27 265.508H1460.27C1460.27 356.359 1533.92 430.008 1624.77 430.008ZM1624.77 594.508C1715.62 594.508 1789.27 520.859 1789.27 430.008H1460.27C1460.27 520.859 1533.92 594.508 1624.77 594.508ZM1624.77 759.008C1715.62 759.008 1789.27 685.359 1789.27 594.508H1460.27C1460.27 685.359 1533.92 759.008 1624.77 759.008Z" fill="url(#paint0_linear_2163_4730)"/>
<path opacity="0.8" d="M317.783 245.472C254.873 190.423 187.501 79.8314 161.679 31.4169C93.1019 214.626 126.829 357.631 152.264 406.232C200.038 503.344 266.412 536.9 293.628 541.539C371.148 559.742 402.41 476.474 408.351 432.564C417.874 348.94 351.941 272.993 317.783 245.472Z" fill="#F6F2E8"/>
</g>
<defs>
<linearGradient id="paint0_linear_2163_4730" x1="1624.77" y1="759.008" x2="1624.77" y2="75.4189" gradientUnits="userSpaceOnUse">
<stop stop-color="white"/>
<stop offset="1" stop-color="white" stop-opacity="0"/>
</linearGradient>
<clipPath id="clip0_2163_4730">
<rect width="1920" height="790" fill="white"/>
</clipPath>
</defs>
</svg>
