<svg width="1920" height="1832" viewBox="0 0 1920 1832" fill="none" xmlns="http://www.w3.org/2000/svg">
<g clip-path="url(#clip0_2580_2882)">
<rect width="1920" height="1832" fill="#F3ECDA"/>
<path d="M125.914 2175.82C249.361 2283.85 381.563 2500.85 432.233 2595.86C566.798 2236.35 500.617 1955.74 450.706 1860.37C356.962 1669.81 226.717 1603.96 173.313 1594.86C21.1981 1559.14 -40.1463 1722.54 -51.8042 1808.7C-70.4914 1972.79 58.888 2121.82 125.914 2175.82Z" fill="#F6F2E8"/>
<path opacity="0.7" d="M373.5 562.5C464.351 562.5 538 636.149 538 727H209C209 636.149 282.649 562.5 373.5 562.5ZM373.5 398C464.351 398 538 471.649 538 562.5H209C209 471.649 282.649 398 373.5 398ZM373.5 233.5C464.351 233.5 538 307.149 538 398H209C209 307.149 282.649 233.5 373.5 233.5ZM373.5 69C464.351 69 538 142.649 538 233.5H209C209 142.649 282.649 69 373.5 69Z" fill="url(#paint0_linear_2580_2882)"/>
<path opacity="0.7" d="M1492.5 1185.5C1583.35 1185.5 1657 1111.85 1657 1021H1328C1328 1111.85 1401.65 1185.5 1492.5 1185.5ZM1492.5 1350C1583.35 1350 1657 1276.35 1657 1185.5H1328C1328 1276.35 1401.65 1350 1492.5 1350ZM1492.5 1514.5C1583.35 1514.5 1657 1440.85 1657 1350H1328C1328 1440.85 1401.65 1514.5 1492.5 1514.5ZM1492.5 1679C1583.35 1679 1657 1605.35 1657 1514.5H1328C1328 1605.35 1401.65 1679 1492.5 1679Z" fill="url(#paint1_linear_2580_2882)"/>
</g>
<defs>
<linearGradient id="paint0_linear_2580_2882" x1="373.5" y1="69" x2="373.5" y2="752.589" gradientUnits="userSpaceOnUse">
<stop stop-color="white"/>
<stop offset="1" stop-color="white" stop-opacity="0"/>
</linearGradient>
<linearGradient id="paint1_linear_2580_2882" x1="1492.5" y1="1679" x2="1492.5" y2="995.411" gradientUnits="userSpaceOnUse">
<stop stop-color="white"/>
<stop offset="1" stop-color="white" stop-opacity="0"/>
</linearGradient>
<clipPath id="clip0_2580_2882">
<rect width="1920" height="1832" fill="white"/>
</clipPath>
</defs>
</svg>
