<svg width="1920" height="1053" viewBox="0 0 1920 1053" fill="none" xmlns="http://www.w3.org/2000/svg">
<g clip-path="url(#clip0_153_2927)">
<path opacity="0.7" d="M296.5 692.5C387.351 692.5 461 766.149 461 857H132C132 766.149 205.649 692.5 296.5 692.5ZM296.5 528C387.351 528 461 601.649 461 692.5H132C132 601.649 205.649 528 296.5 528ZM296.5 363.5C387.351 363.5 461 437.149 461 528H132C132 437.149 205.649 363.5 296.5 363.5ZM296.5 199C387.351 199 461 272.649 461 363.5H132C132 272.649 205.649 199 296.5 199Z" fill="url(#paint0_linear_153_2927)"/>
<path d="M1502.29 -201.777C1647.16 -328.536 1802.29 -583.188 1861.75 -694.67C2019.66 -272.805 1942 56.4853 1883.43 168.397C1773.42 392.013 1620.58 469.279 1557.92 479.96C1379.42 521.877 1307.43 330.139 1293.75 229.031C1271.82 36.4744 1423.64 -138.406 1502.29 -201.777Z" fill="#F6F2E8"/>
</g>
<defs>
<linearGradient id="paint0_linear_153_2927" x1="296.5" y1="199" x2="296.5" y2="882.589" gradientUnits="userSpaceOnUse">
<stop stop-color="white"/>
<stop offset="1" stop-color="white" stop-opacity="0"/>
</linearGradient>
<clipPath id="clip0_153_2927">
<rect width="1920" height="1053" fill="white"/>
</clipPath>
</defs>
</svg>
