<svg width="100" height="100" viewBox="0 0 100 100" fill="none" xmlns="http://www.w3.org/2000/svg">
<rect width="100" height="100" fill="#8E85E2"/>
<g clip-path="url(#clip0_1054_4485)">
<path d="M80.9173 80.4901V35.8164H90.6316V80.4901H80.9173Z" fill="white"/>
<path d="M97.488 43.9507V35.8164H107.202V43.9507H97.488ZM97.488 80.4901V47.8178H107.202V80.4901H97.488Z" fill="white"/>
<path d="M114.058 47.8187H123.772V57.221C124.789 51.8881 127.78 47.1532 134.641 47.1532C140.755 47.1532 144.149 50.9528 144.149 57.2885C145.166 51.8881 148.157 47.1532 155.017 47.1532C161.132 47.1532 164.526 50.9528 164.526 57.6887V80.4909H154.811V61.0207C154.811 56.7534 153.456 54.5546 149.512 54.5546C145.569 54.5546 144.149 57.0861 144.149 62.4236V80.4954H134.435V61.0252C134.435 56.7579 133.074 54.559 129.136 54.559C125.197 54.559 123.772 57.0906 123.772 62.4281V80.4999H114.058V47.8187Z" fill="white"/>
<path d="M60.5736 9.13427L60.9889 11.7301C60.8602 14.3087 59.5382 16.5197 56.9118 17.1859C54.3613 17.8349 52.548 17.3123 50.6761 15.6583C50.6293 15.6181 50.5884 15.5664 50.5416 15.5262C50.0268 14.5442 49.553 13.7459 49.4536 12.5973C49.2781 10.5183 50.0151 8.38768 51.7583 7.14145C52.4427 6.6533 53.7705 6.19961 54.6012 6.07326C57.1808 5.69422 59.4271 6.79687 60.5619 9.12852H60.5736V9.13427Z" fill="white"/>
<path d="M77.935 66.7249C78.2919 75.0924 72.647 83.7987 65.4989 87.8246C56.1104 93.1081 45.4349 92.6544 45.4349 92.6544C19.4278 92.3615 21.0189 78.676 21.0189 78.676C22.6041 65.0709 35.7832 68.9704 35.7832 68.9704C35.2158 72.3472 35.713 75.9021 38.316 78.3544C41.2291 81.0995 46.4294 81.7025 50.2667 81.0478C57.1984 79.8763 62.6911 74.6961 61.8137 67.5116C61.0357 61.1542 56.5491 55.3136 51.8987 51.081C48.4592 47.9511 44.2007 45.4471 41.2467 41.8405C34.7654 33.9324 41.4631 25.341 49.553 22.2512C56.3444 19.6554 63.8318 20.781 70.2546 23.8765C70.898 24.1866 71.4069 24.7379 71.6234 25.4099C72.9161 29.43 71.6058 32.2727 70.6933 33.6223C70.3716 34.0932 69.6638 34.1105 69.3011 33.6683C66.2067 29.8607 61.8605 26.2483 56.6485 26.0933C51.8928 25.9497 48.0087 29.361 48.9213 34.3115C49.553 37.7113 52.1093 40.4507 54.8644 42.6043C58.9766 45.8262 63.7206 48.1865 67.9791 51.2246C72.2317 54.2683 76.1275 58.2425 77.4261 63.2504C77.7186 64.3875 77.8882 65.5475 77.935 66.7076V66.7249Z" fill="white"/>
<path d="M258.46 50.9199C258.46 51.5695 257.467 51.9176 255.482 51.964L252.788 52.0336H251.512L241.941 73.1232C240.902 75.3969 240.382 76.8354 240.382 77.4386C240.382 78.4131 241.114 78.9003 242.579 78.9003C244.706 78.9003 246.597 77.7866 248.251 75.5594C248.629 75.0953 248.913 74.8633 249.102 74.8633C249.48 74.8633 249.669 75.0257 249.669 75.3505C249.669 75.9538 248.889 76.9282 247.329 78.2739C245.533 79.8051 243.383 80.5708 240.878 80.5708C239.176 80.5708 237.782 80.1531 236.695 79.3179C235.655 78.4827 235.135 77.4154 235.135 76.1162C235.135 75.2809 235.679 73.7265 236.766 71.4528L246.053 51.8944H243.147C242.343 51.8944 241.941 51.7319 241.941 51.4071C241.941 50.8039 242.272 50.5023 242.934 50.5023H243.572C243.808 50.5487 244.186 50.5719 244.706 50.5719C245.368 50.5719 246.006 50.5487 246.62 50.5023L247.826 47.5094C248.251 46.4885 248.582 45.9781 248.818 45.9781C249.054 45.9781 249.409 46.0245 249.882 46.1173C250.401 46.2101 250.803 46.2565 251.087 46.2565C251.607 46.2565 252.363 46.0245 253.355 45.5605C253.544 45.4677 253.71 45.4213 253.852 45.4213C254.088 45.4213 254.206 45.5141 254.206 45.6997C254.206 45.6997 253.946 46.2565 253.426 47.3702L251.867 50.7111L253.568 50.6415L256.262 50.5023C256.498 50.5023 256.782 50.4791 257.113 50.4327C257.444 50.3863 257.633 50.3631 257.68 50.3631C258.2 50.3631 258.46 50.5487 258.46 50.9199Z" fill="#F9F9F9"/>
<path d="M235.186 50.9895C235.186 50.9895 235.139 51.1055 235.045 51.3375L234.548 52.4512L226.608 70.6176C225.001 74.2833 224.198 76.557 224.198 77.4386C224.198 78.6915 224.812 79.3179 226.041 79.3179C227.79 79.3179 229.728 78.1115 231.854 75.6986C232.374 75.0953 232.729 74.7937 232.918 74.7937C233.201 74.7937 233.343 74.9329 233.343 75.2113C233.343 76.325 231.949 77.7171 229.16 79.3875C227.506 80.362 225.805 80.8492 224.056 80.8492C222.685 80.8492 221.48 80.478 220.44 79.7355C219.401 78.9931 218.881 78.1347 218.881 77.1602C218.881 76.6034 219.093 75.745 219.519 74.5849L220.369 72.2184C217.203 75.7914 214.792 78.1115 213.138 79.1787C211.531 80.2459 209.546 80.7796 207.183 80.7796C205.34 80.7796 203.827 80.4316 202.646 79.7355C201.464 78.9931 200.873 78.0419 200.873 76.8818C200.873 75.629 201.393 73.8657 202.433 71.592L209.735 55.5137C209.924 55.0961 210.326 54.2841 210.94 53.0776C211.082 52.8456 211.153 52.6832 211.153 52.5904C211.153 52.2192 210.586 52.0336 209.452 52.0336C207.939 52.0336 207.183 51.7784 207.183 51.2679C207.183 50.9431 207.348 50.7807 207.679 50.7807C208.057 50.7807 208.601 50.8271 209.31 50.9199C210.019 51.0127 210.562 51.0591 210.94 51.0591C213.398 51.0591 215.218 50.8503 216.399 50.4327C216.683 50.3399 216.872 50.2935 216.966 50.2935C217.203 50.2935 217.321 50.4327 217.321 50.7111C217.321 51.0823 216.848 52.2656 215.903 54.2609C214.958 56.2097 214.083 58.2282 213.28 60.3163C213.091 60.8267 212.358 62.5204 211.082 65.3973L208.246 71.8008C207.065 74.4457 206.474 76.325 206.474 77.4386C206.474 78.7843 207.348 79.4571 209.097 79.4571C210.94 79.4571 213.327 77.9723 216.258 75.0025C219.566 71.6616 222.307 67.439 224.481 62.3348L229.019 51.7552C229.255 51.1983 229.515 50.9199 229.798 50.9199C229.751 50.9199 230.247 50.9663 231.287 51.0591H231.854C233.13 51.0591 233.958 50.9895 234.336 50.8503C234.572 50.7575 234.737 50.7111 234.832 50.7111C235.068 50.7111 235.186 50.8039 235.186 50.9895Z" fill="#F9F9F9"/>
<path d="M198.469 61.3604C198.469 66.7894 195.941 71.6848 190.883 76.0466C186.913 79.4803 182.778 81.1972 178.477 81.1972C175.547 81.1972 173.136 80.1996 171.246 78.2043C169.355 76.209 168.41 73.6337 168.41 70.4783C168.41 67.787 169.19 65.0261 170.749 62.1956C172.309 59.3651 174.389 56.9522 176.988 54.9569C181.053 51.848 184.976 50.2935 188.757 50.2935C191.64 50.2935 193.979 51.3143 195.775 53.356C197.571 55.3977 198.469 58.0658 198.469 61.3604ZM193.01 56.8362C193.01 53.3096 191.403 51.5463 188.189 51.5463C184.267 51.5463 180.864 54.3073 177.981 59.8291C175.239 65.1189 173.869 70.0839 173.869 74.7241C173.869 78.2043 175.452 79.9443 178.619 79.9443C182.589 79.9443 185.897 77.4386 188.544 72.4272C191.521 66.7662 193.01 61.5692 193.01 56.8362Z" fill="#F9F9F9"/>
</g>
<defs>
<clipPath id="clip0_1054_4485">
<rect width="58.3333" height="87.5" fill="white" transform="translate(21 6)"/>
</clipPath>
</defs>
</svg>
